<svg width="13" height="8" viewBox="0 0 13 8" fill="none" xmlns="http://www.w3.org/2000/svg">
<path d="M11.8288 0.793117C11.6881 0.796443 11.5545 0.855226 11.4569 0.956659L6.50069 5.91291L1.54444 0.956659C1.49474 0.905569 1.43531 0.864958 1.36964 0.837226C1.30398 0.809495 1.23343 0.795205 1.16215 0.795201C1.05606 0.795228 0.952376 0.826897 0.864371 0.886158C0.776366 0.945418 0.708034 1.02958 0.66811 1.12788C0.628186 1.22618 0.618485 1.33415 0.640247 1.43799C0.662009 1.54183 0.714246 1.63683 0.790278 1.71083L6.12361 7.04416C6.22363 7.14414 6.35927 7.20031 6.50069 7.20031C6.64212 7.20031 6.77775 7.14414 6.87778 7.04416L12.2111 1.71083C12.2886 1.63634 12.3417 1.54021 12.3636 1.435C12.3855 1.3298 12.3751 1.22044 12.3338 1.12125C12.2925 1.02205 12.2221 0.937653 12.132 0.879103C12.0419 0.820553 11.9362 0.790582 11.8288 0.793117Z" fill="white"/>
</svg>
