<svg width="29" height="28" viewBox="0 0 29 28" fill="none" xmlns="http://www.w3.org/2000/svg">
<path d="M15.2166 1.11139C14.9082 1.11795 14.661 1.3717 14.6654 1.68014C14.6654 3.39076 14.0113 3.90045 13.1757 4.65076C12.3401 5.39889 11.3141 6.38982 11.3141 8.40014C11.312 8.60139 11.417 8.78951 11.592 8.89232C11.767 8.99295 11.9813 8.99295 12.1563 8.89232C12.3313 8.78951 12.4363 8.60139 12.4341 8.40014C12.4341 6.72889 13.0838 6.2367 13.9238 5.4842C14.7638 4.7317 15.7854 3.72326 15.7854 1.68014C15.7876 1.5292 15.7285 1.38264 15.6213 1.27545C15.5141 1.16826 15.3676 1.1092 15.2166 1.11139ZM18.021 3.91139C17.7126 3.91795 17.4654 4.1717 17.4698 4.48014C17.4698 5.57389 17.0935 5.8342 16.5357 6.33076C15.9779 6.82732 15.2254 7.5667 15.2254 8.96014C15.2232 9.16139 15.3282 9.34951 15.5032 9.45232C15.6782 9.55295 15.8926 9.55295 16.0676 9.45232C16.2426 9.34951 16.3476 9.16139 16.3454 8.96014C16.3454 7.91014 16.7151 7.66951 17.2795 7.16639C17.8438 6.66545 18.5898 5.90639 18.5898 4.48014C18.592 4.3292 18.5329 4.18264 18.4257 4.07545C18.3185 3.96826 18.172 3.9092 18.021 3.91139ZM6.82539 10.6401C6.51695 10.6401 6.26539 10.8917 6.26539 11.2001V18.4801C6.26539 20.3133 7.1557 21.9386 8.5207 22.9601H4.58539C4.27695 22.9601 4.02539 23.2117 4.02539 23.5201C4.02539 24.5133 4.59633 25.3576 5.34008 25.9417C6.08383 26.5236 7.02008 26.8801 7.94539 26.8801H20.2654C21.1907 26.8801 22.127 26.5236 22.8707 25.9417C23.6145 25.3576 24.1854 24.5133 24.1854 23.5201C24.1854 23.2117 23.9338 22.9601 23.6254 22.9601H19.6901C20.9216 22.037 21.766 20.6261 21.9191 19.0139C23.1529 18.8914 24.0563 18.3358 24.577 17.4979C25.1523 16.5661 25.2901 15.3826 25.2966 14.0964C25.2988 14.092 25.2988 14.0876 25.2988 14.0833C25.3032 14.0548 25.3054 14.0286 25.3054 14.0001C25.3054 13.0792 24.5463 12.3201 23.6254 12.3201H21.9454V11.2001C21.9454 10.8917 21.6938 10.6401 21.3854 10.6401H6.82539ZM7.38539 11.7601H20.8254V18.3861C20.8166 18.4408 20.8145 18.4954 20.8232 18.5501C20.7838 20.9979 18.802 22.9601 16.3454 22.9601H11.8654C9.38477 22.9601 7.38539 20.9608 7.38539 18.4801V11.7601ZM21.9454 13.4401H23.6254C23.9426 13.4401 24.1854 13.683 24.1854 14.0001C24.1854 15.2404 24.0235 16.2642 23.6254 16.9073C23.2907 17.4454 22.8182 17.7867 21.9454 17.8851V13.4401ZM5.30727 24.0801H22.9035C22.7613 24.4345 22.5404 24.7758 22.1795 25.0601C21.6304 25.4889 20.8866 25.7601 20.2654 25.7601H7.94539C7.32414 25.7601 6.58039 25.4889 6.03133 25.0601C5.67039 24.7758 5.44945 24.4345 5.30727 24.0801Z" fill="#D9AFA5"/>
</svg>
