<svg width="32" height="32" viewBox="0 0 32 32" fill="none" xmlns="http://www.w3.org/2000/svg">
<path d="M12.16 0C5.5175 0 0 4.795 0 10.82C0 13.735 1.3075 16.3775 3.4 18.32C3.0925 19.2275 2.44 19.95 1.74 20.52C1.35 20.8375 0.97 21.11 0.66 21.38C0.505 21.515 0.3625 21.635 0.24 21.82C0.1175 22.005 -0.005 22.325 0.08 22.64L0.16 22.88L0.38 23.02C1.045 23.3975 1.8525 23.46 2.7 23.4C3.5475 23.34 4.4625 23.1275 5.36 22.88C6.5975 22.54 7.6575 22.135 8.54 21.78C10.3 25.85 14.7175 28.68 19.84 28.68C20.7275 28.68 21.5725 28.54 22.36 28.42C23.2525 28.825 24.85 29.4925 26.58 29.96C28.3775 30.4475 30.215 30.81 31.54 30.06L31.78 29.92L31.84 29.68C31.925 29.3675 31.82 29.0675 31.7 28.88C31.58 28.6925 31.4525 28.5575 31.3 28.42C30.995 28.1425 30.6075 27.8625 30.22 27.54C29.5225 26.96 28.8675 26.23 28.54 25.34C30.625 23.3975 31.94 20.7675 31.94 17.86C31.94 13.1125 28.48 9.0625 23.74 7.62C22.2125 3.18 17.5725 0 12.16 0ZM12.16 1.28C18.19 1.28 22.98 5.575 22.98 10.82C22.98 16.06 18.13 20.36 12.1 20.36C11.235 20.36 10.385 20.2975 9.62 20.12L9.42 20.06L9.22 20.14C9.145 20.1725 8.9875 20.2425 8.9 20.28C8.885 20.285 8.855 20.275 8.84 20.28C8.69 20.29 8.5475 20.355 8.44 20.46C7.535 20.8325 6.3425 21.2975 5.02 21.66C4.1725 21.8925 3.3175 22.0675 2.6 22.12C2.2825 22.1425 2.15 22.0475 1.9 22.02C2.105 21.86 2.2775 21.7325 2.54 21.52C3.3925 20.825 4.4425 19.82 4.78 18.32L4.86 17.94L4.58 17.68C2.5325 15.9325 1.28 13.5 1.28 10.82C1.28 5.58 6.13 1.28 12.16 1.28ZM24.1 9.08C24.22 9.125 24.3425 9.17 24.46 9.22C24.3775 9.3275 24.32 9.455 24.32 9.6C24.32 9.9525 24.6075 10.24 24.96 10.24C25.255 10.24 25.485 10.03 25.56 9.76C26.98 10.545 28.165 11.6075 29.04 12.86C28.9625 12.8275 28.8875 12.8 28.8 12.8C28.4475 12.8 28.16 13.0875 28.16 13.44C28.16 13.7925 28.4475 14.08 28.8 14.08C29.14 14.08 29.4175 13.815 29.44 13.48C29.735 13.98 29.99 14.515 30.18 15.06C30.1275 15.1525 30.08 15.2475 30.08 15.36C30.08 15.6 30.225 15.79 30.42 15.9C30.5725 16.535 30.66 17.1875 30.66 17.86C30.66 18.1 30.64 18.3425 30.62 18.58C30.3175 18.63 30.08 18.8825 30.08 19.2C30.08 19.45 30.2325 19.655 30.44 19.76C30 21.68 28.9125 23.3975 27.36 24.72L27.06 24.98L27.16 25.38C27.485 26.645 28.2825 27.545 29.04 28.22C28.9625 28.1875 28.8875 28.16 28.8 28.16C28.4475 28.16 28.16 28.4475 28.16 28.8C28.16 28.865 28.1825 28.92 28.2 28.98C27.7925 28.925 27.3725 28.8425 26.92 28.72C25.55 28.35 24.215 27.8225 23.32 27.44C23.5275 27.335 23.68 27.13 23.68 26.88C23.68 26.5275 23.3925 26.24 23.04 26.24C22.6875 26.24 22.4 26.5275 22.4 26.88C22.4 26.9675 22.4275 27.0425 22.46 27.12L22.36 27.14C21.5325 27.2675 20.675 27.4 19.84 27.4C19.7475 27.4 19.6525 27.4025 19.56 27.4C19.725 27.285 19.84 27.0975 19.84 26.88C19.84 26.5275 19.5525 26.24 19.2 26.24C18.8475 26.24 18.56 26.5275 18.56 26.88C18.56 27.0575 18.625 27.225 18.74 27.34C17.7775 27.255 16.85 27.07 15.98 26.78C15.93 26.4775 15.6775 26.24 15.36 26.24C15.2075 26.24 15.07 26.2925 14.96 26.38C14.44 26.15 13.9475 25.8975 13.48 25.6C13.815 25.5775 14.08 25.3 14.08 24.96C14.08 24.6075 13.7925 24.32 13.44 24.32C13.0875 24.32 12.8 24.6075 12.8 24.96C12.8 25.0325 12.8175 25.095 12.84 25.16C12.19 24.6775 11.605 24.12 11.1 23.52C11.2125 23.6175 11.36 23.68 11.52 23.68C11.8725 23.68 12.16 23.3925 12.16 23.04C12.16 22.6875 11.8725 22.4 11.52 22.4C11.1675 22.4 10.88 22.6875 10.88 23.04C10.88 23.185 10.9375 23.3125 11.02 23.42C10.575 22.875 10.185 22.3 9.88 21.68C9.98 21.63 10.06 21.5525 10.12 21.46C10.775 21.5625 11.44 21.64 12.1 21.64C12.4 21.64 12.705 21.62 13 21.6C13.115 21.705 13.2725 21.76 13.44 21.76C13.6475 21.76 13.8225 21.655 13.94 21.5C14.915 21.3675 15.8525 21.1475 16.74 20.82C16.6875 20.9125 16.64 21.0075 16.64 21.12C16.64 21.4725 16.9275 21.76 17.28 21.76C17.6325 21.76 17.92 21.4725 17.92 21.12C17.92 20.825 17.71 20.595 17.44 20.52C17.9525 20.295 18.45 20.045 18.92 19.76C19.0075 19.805 19.095 19.84 19.2 19.84C19.5525 19.84 19.84 19.5525 19.84 19.2C19.84 19.185 19.82 19.175 19.82 19.16C20.35 18.77 20.85 18.3425 21.3 17.88C21.52 17.8125 21.6725 17.6275 21.72 17.4C22.1225 16.9375 22.505 16.46 22.82 15.94C22.8925 15.9675 22.9575 16 23.04 16C23.3925 16 23.68 15.7125 23.68 15.36C23.68 15.135 23.555 14.955 23.38 14.84C23.94 13.6 24.26 12.245 24.26 10.82C24.26 10.2275 24.2025 9.645 24.1 9.08ZM26.88 10.88C26.5275 10.88 26.24 11.1675 26.24 11.52C26.24 11.8725 26.5275 12.16 26.88 12.16C27.2325 12.16 27.52 11.8725 27.52 11.52C27.52 11.1675 27.2325 10.88 26.88 10.88ZM24.96 12.8C24.6075 12.8 24.32 13.0875 24.32 13.44C24.32 13.7925 24.6075 14.08 24.96 14.08C25.3125 14.08 25.6 13.7925 25.6 13.44C25.6 13.0875 25.3125 12.8 24.96 12.8ZM26.88 14.72C26.5275 14.72 26.24 15.0075 26.24 15.36C26.24 15.7125 26.5275 16 26.88 16C27.2325 16 27.52 15.7125 27.52 15.36C27.52 15.0075 27.2325 14.72 26.88 14.72ZM24.96 16.64C24.6075 16.64 24.32 16.9275 24.32 17.28C24.32 17.6325 24.6075 17.92 24.96 17.92C25.3125 17.92 25.6 17.6325 25.6 17.28C25.6 16.9275 25.3125 16.64 24.96 16.64ZM28.8 16.64C28.4475 16.64 28.16 16.9275 28.16 17.28C28.16 17.6325 28.4475 17.92 28.8 17.92C29.1525 17.92 29.44 17.6325 29.44 17.28C29.44 16.9275 29.1525 16.64 28.8 16.64ZM23.04 18.56C22.6875 18.56 22.4 18.8475 22.4 19.2C22.4 19.5525 22.6875 19.84 23.04 19.84C23.3925 19.84 23.68 19.5525 23.68 19.2C23.68 18.8475 23.3925 18.56 23.04 18.56ZM26.88 18.56C26.5275 18.56 26.24 18.8475 26.24 19.2C26.24 19.5525 26.5275 19.84 26.88 19.84C27.2325 19.84 27.52 19.5525 27.52 19.2C27.52 18.8475 27.2325 18.56 26.88 18.56ZM21.12 20.48C20.7675 20.48 20.48 20.7675 20.48 21.12C20.48 21.4725 20.7675 21.76 21.12 21.76C21.4725 21.76 21.76 21.4725 21.76 21.12C21.76 20.7675 21.4725 20.48 21.12 20.48ZM24.96 20.48C24.6075 20.48 24.32 20.7675 24.32 21.12C24.32 21.4725 24.6075 21.76 24.96 21.76C25.3125 21.76 25.6 21.4725 25.6 21.12C25.6 20.7675 25.3125 20.48 24.96 20.48ZM28.8 20.48C28.4475 20.48 28.16 20.7675 28.16 21.12C28.16 21.4725 28.4475 21.76 28.8 21.76C29.1525 21.76 29.44 21.4725 29.44 21.12C29.44 20.7675 29.1525 20.48 28.8 20.48ZM15.36 22.4C15.0075 22.4 14.72 22.6875 14.72 23.04C14.72 23.3925 15.0075 23.68 15.36 23.68C15.7125 23.68 16 23.3925 16 23.04C16 22.6875 15.7125 22.4 15.36 22.4ZM19.2 22.4C18.8475 22.4 18.56 22.6875 18.56 23.04C18.56 23.3925 18.8475 23.68 19.2 23.68C19.5525 23.68 19.84 23.3925 19.84 23.04C19.84 22.6875 19.5525 22.4 19.2 22.4ZM23.04 22.4C22.6875 22.4 22.4 22.6875 22.4 23.04C22.4 23.3925 22.6875 23.68 23.04 23.68C23.3925 23.68 23.68 23.3925 23.68 23.04C23.68 22.6875 23.3925 22.4 23.04 22.4ZM26.88 22.4C26.5275 22.4 26.24 22.6875 26.24 23.04C26.24 23.3925 26.5275 23.68 26.88 23.68C27.2325 23.68 27.52 23.3925 27.52 23.04C27.52 22.6875 27.2325 22.4 26.88 22.4ZM17.28 24.32C16.9275 24.32 16.64 24.6075 16.64 24.96C16.64 25.3125 16.9275 25.6 17.28 25.6C17.6325 25.6 17.92 25.3125 17.92 24.96C17.92 24.6075 17.6325 24.32 17.28 24.32ZM21.12 24.32C20.7675 24.32 20.48 24.6075 20.48 24.96C20.48 25.3125 20.7675 25.6 21.12 25.6C21.4725 25.6 21.76 25.3125 21.76 24.96C21.76 24.6075 21.4725 24.32 21.12 24.32ZM24.96 24.32C24.6075 24.32 24.32 24.6075 24.32 24.96C24.32 25.3125 24.6075 25.6 24.96 25.6C25.3125 25.6 25.6 25.3125 25.6 24.96C25.6 24.6075 25.3125 24.32 24.96 24.32ZM26.88 26.24C26.5275 26.24 26.24 26.5275 26.24 26.88C26.24 27.2325 26.5275 27.52 26.88 27.52C27.2325 27.52 27.52 27.2325 27.52 26.88C27.52 26.5275 27.2325 26.24 26.88 26.24ZM29.32 28.44C29.3475 28.4625 29.3725 28.4975 29.4 28.52C29.665 28.74 29.855 28.875 30.06 29.04C29.845 29.06 29.61 29.0625 29.36 29.06C29.4 28.9775 29.44 28.8975 29.44 28.8C29.44 28.665 29.3925 28.5425 29.32 28.44Z" fill="white"/>
</svg>
