<svg width="28" height="28" viewBox="0 0 28 28" fill="none" xmlns="http://www.w3.org/2000/svg">
<g clip-path="url(#clip0_241_2029)">
<path d="M7.28016 0C6.35927 0 5.60016 0.758479 5.60016 1.68V12.32H6.72016V1.68C6.72016 1.36392 6.96458 1.12 7.28016 1.12H26.3202C26.6357 1.12 26.8802 1.36392 26.8802 1.68V26.32C26.8802 26.6352 26.6354 26.88 26.3202 26.88H7.28016C6.96492 26.88 6.72016 26.6352 6.72016 26.32V15.68H5.60016V26.32C5.60016 27.2412 6.35893 28 7.28016 28H26.3202C27.2414 28 28.0002 27.2412 28.0002 26.32V1.68C28.0002 0.758479 27.2411 0 26.3202 0H7.28016ZM12.3442 7.33578C12.2329 7.33603 12.1242 7.36944 12.032 7.43174C11.9397 7.49405 11.8682 7.58243 11.8264 7.6856C11.7846 7.78877 11.7745 7.90205 11.7974 8.01098C11.8203 8.11991 11.8751 8.21955 11.9549 8.29719L17.0966 13.44H0.560163C0.485957 13.439 0.412281 13.4527 0.343419 13.4803C0.274557 13.508 0.211881 13.5491 0.159034 13.6012C0.106187 13.6533 0.0642229 13.7154 0.0355802 13.7838C0.00693745 13.8523 -0.0078125 13.9258 -0.0078125 14C-0.0078125 14.0742 0.00693745 14.1477 0.0355802 14.2162C0.0642229 14.2846 0.106187 14.3467 0.159034 14.3988C0.211881 14.4509 0.274557 14.492 0.343419 14.5197C0.412281 14.5473 0.485957 14.561 0.560163 14.56H17.0966L11.9538 19.7028C11.9 19.7544 11.8571 19.8162 11.8275 19.8846C11.798 19.953 11.7824 20.0266 11.7816 20.1011C11.7809 20.1756 11.795 20.2495 11.8231 20.3185C11.8513 20.3875 11.8929 20.4501 11.9456 20.5028C11.9983 20.5555 12.061 20.5971 12.13 20.6253C12.1989 20.6535 12.2728 20.6676 12.3473 20.6668C12.4218 20.6661 12.4954 20.6505 12.5638 20.6209C12.6322 20.5913 12.694 20.5484 12.7456 20.4947L19.2403 14L12.7467 7.50531C12.6944 7.45154 12.6318 7.40882 12.5627 7.3797C12.4935 7.35057 12.4193 7.33564 12.3442 7.33578Z" fill="#D9AFA5"/>
</g>
<defs>
<clipPath id="clip0_241_2029">
<rect width="28" height="28" fill="white"/>
</clipPath>
</defs>
</svg>
