<svg width="28" height="28" viewBox="0 0 28 28" fill="none" xmlns="http://www.w3.org/2000/svg">
<path d="M0 3.91992V4.47992V24.0799H28V3.91992H0ZM1.12 5.03992H26.88V6.4432C26.6424 6.65029 16.6957 15.3193 15.8681 16.0398C15.1417 16.6722 14.4017 16.801 14 16.801C13.5987 16.801 12.8584 16.6722 12.1319 16.0398C11.3043 15.3193 1.3576 6.65029 1.12 6.4432V5.03992ZM1.12 7.92414C2.48527 9.11423 10.6219 16.2074 11.398 16.883C12.3503 17.7122 13.3586 17.9188 14 17.9188C14.641 17.9188 15.6496 17.7123 16.602 16.883C17.3781 16.2074 25.5147 9.11523 26.88 7.92523V22.9599H1.12V7.92414Z" fill="#D9AFA5"/>
</svg>
