<svg width="29" height="28" viewBox="0 0 29 28" fill="none" xmlns="http://www.w3.org/2000/svg">
<g clip-path="url(#clip0_241_2033)">
<path d="M0.77148 -0.0182031C0.502418 0.0430469 0.312105 0.283672 0.31648 0.559297V27.4393C0.318668 27.7565 0.576793 28.0146 0.89398 28.0168H17.694C18.0112 28.0146 18.2693 27.7565 18.2715 27.4393V21.8393H17.1165V26.8618H1.47148V1.1368H17.1165V6.1593H18.2715V0.559297C18.2693 0.24211 18.0112 -0.0160157 17.694 -0.0182031H0.89398C0.852418 -0.0225781 0.813043 -0.0225781 0.77148 -0.0182031ZM22.1215 8.4518C21.9115 8.48898 21.743 8.64211 21.684 8.84555C21.6249 9.05117 21.6862 9.26992 21.8415 9.4143L25.849 13.4393H9.29398C9.27648 13.4393 9.25898 13.4393 9.24148 13.4393C8.93304 13.4546 8.69242 13.7171 8.70773 14.0255C8.72304 14.334 8.98554 14.5746 9.29398 14.5593H25.849L21.8415 18.5843C21.6752 18.7199 21.5987 18.9365 21.6468 19.1465C21.6949 19.3543 21.859 19.5184 22.0668 19.5665C22.2768 19.6146 22.4934 19.538 22.629 19.3718L27.6165 14.4018L28.0015 13.9993L27.6165 13.5968L22.629 8.6268C22.513 8.50211 22.3446 8.43867 22.174 8.4518C22.1565 8.4518 22.139 8.4518 22.1215 8.4518Z" fill="#D9AFA5"/>
</g>
<defs>
<clipPath id="clip0_241_2033">
<rect width="28" height="28" fill="white" transform="translate(0.333984)"/>
</clipPath>
</defs>
</svg>
