<svg width="24" height="24" viewBox="0 0 24 24" fill="none" xmlns="http://www.w3.org/2000/svg">
<g opacity="0.6">
<path d="M20.7836 2.39291C20.7538 2.39385 20.7241 2.39646 20.6945 2.40072H15.9992C15.8932 2.39922 15.788 2.41881 15.6896 2.45834C15.5912 2.49787 15.5017 2.55656 15.4262 2.631C15.3507 2.70543 15.2907 2.79413 15.2498 2.89194C15.2089 2.98974 15.1878 3.0947 15.1878 3.20072C15.1878 3.30674 15.2089 3.41171 15.2498 3.50951C15.2907 3.60732 15.3507 3.69602 15.4262 3.77045C15.5017 3.84489 15.5912 3.90358 15.6896 3.94311C15.788 3.98264 15.8932 4.00222 15.9992 4.00072H18.868L10.6336 12.2351C10.5568 12.3088 10.4955 12.3971 10.4533 12.4948C10.4111 12.5925 10.3887 12.6977 10.3877 12.8041C10.3866 12.9105 10.4067 13.0161 10.447 13.1147C10.4872 13.2132 10.5467 13.3027 10.622 13.378C10.6972 13.4532 10.7867 13.5127 10.8853 13.553C10.9838 13.5932 11.0894 13.6134 11.1958 13.6123C11.3023 13.6112 11.4074 13.5889 11.5051 13.5467C11.6028 13.5044 11.6911 13.4431 11.7648 13.3663L19.9992 5.13197V8.00072C19.9977 8.10673 20.0173 8.21198 20.0568 8.31036C20.0964 8.40873 20.1551 8.49827 20.2295 8.57377C20.3039 8.64926 20.3926 8.70921 20.4904 8.75013C20.5882 8.79105 20.6932 8.81212 20.7992 8.81212C20.9052 8.81212 21.0102 8.79105 21.108 8.75013C21.2058 8.70921 21.2945 8.64926 21.3689 8.57377C21.4434 8.49827 21.5021 8.40873 21.5416 8.31036C21.5811 8.21198 21.6007 8.10673 21.5992 8.00072V3.30229C21.6152 3.18711 21.6058 3.06984 21.5718 2.95865C21.5378 2.84745 21.4799 2.74501 21.4023 2.65845C21.3247 2.57189 21.2291 2.50329 21.1222 2.45743C21.0154 2.41157 20.8998 2.38956 20.7836 2.39291ZM4.79922 5.60072C3.92477 5.60072 3.19922 6.32627 3.19922 7.20072V19.2007C3.19922 20.0752 3.92477 20.8007 4.79922 20.8007H16.7992C17.6737 20.8007 18.3992 20.0752 18.3992 19.2007V11.2007V9.13822L16.7992 10.7382V12.8007V19.2007H4.79922V7.20072H11.1992H12.7992H13.2617L14.8617 5.60072H12.7992H11.1992H4.79922Z" fill="white"/>
</g>
</svg>
