<svg width="28" height="28" viewBox="0 0 28 28" fill="none" xmlns="http://www.w3.org/2000/svg">
<path d="M14.0002 2.24023C9.66742 2.24023 6.16016 5.74749 6.16016 10.0802C6.16016 13.6688 8.03891 17.5023 9.88438 20.4763C11.7298 23.4504 13.578 25.5688 13.578 25.5688C13.6309 25.6294 13.6962 25.6779 13.7695 25.711C13.8428 25.7441 13.9224 25.761 14.0028 25.7606C14.0832 25.7602 14.1626 25.7424 14.2356 25.7086C14.3085 25.6748 14.3734 25.6256 14.4256 25.5645C14.4256 25.5645 16.2726 23.4055 18.117 20.4118C19.9615 17.4181 21.8402 13.5899 21.8402 10.0802C21.8402 5.74749 18.3329 2.24023 14.0002 2.24023ZM14.0002 3.36023C17.7314 3.36023 20.7202 6.34898 20.7202 10.0802C20.7202 13.1786 18.9588 16.9101 17.1633 19.8245C15.7056 22.1904 14.4933 23.7005 13.9969 24.3045C13.4979 23.7079 12.2896 22.2284 10.8359 19.8857C9.04141 16.9937 7.28016 13.2677 7.28016 10.0802C7.28016 6.34898 10.2689 3.36023 14.0002 3.36023ZM14.0002 6.16023C11.8467 6.16023 10.0802 7.92678 10.0802 10.0802C10.0802 12.2337 11.8467 14.0002 14.0002 14.0002C16.1536 14.0002 17.9202 12.2337 17.9202 10.0802C17.9202 7.92678 16.1536 6.16023 14.0002 6.16023ZM14.0002 7.28023C15.5427 7.28023 16.8002 8.53769 16.8002 10.0802C16.8002 11.6228 15.5427 12.8802 14.0002 12.8802C12.4576 12.8802 11.2002 11.6228 11.2002 10.0802C11.2002 8.53769 12.4576 7.28023 14.0002 7.28023Z" fill="#D9AFA5"/>
</svg>
