<svg width="28" height="28" viewBox="0 0 28 28" fill="none" xmlns="http://www.w3.org/2000/svg">
<path d="M6.62964 1.67378C6.20079 1.63834 5.7217 1.76414 5.27886 2.073C4.89006 2.34494 4.04852 3.01307 3.26417 3.76613C2.872 4.14266 2.4987 4.53466 2.2087 4.92003C1.91871 5.30541 1.66423 5.6577 1.68042 6.168C1.69529 6.62783 1.74276 7.98798 2.71948 10.0683C3.69621 12.1487 5.59294 15.0035 9.29292 18.7046C12.994 22.4065 15.8491 24.3043 17.9292 25.2813C20.0093 26.2583 21.3699 26.3055 21.8295 26.3203C22.3397 26.3363 22.6912 26.081 23.0764 25.791C23.4615 25.5009 23.8538 25.1277 24.2303 24.7355C24.9826 23.9515 25.6489 23.1119 25.9212 22.7219C26.5394 21.8411 26.437 20.7984 25.7473 20.3146C25.314 20.0113 21.3298 17.3594 20.7324 16.9939C20.1238 16.6216 19.4234 16.7895 18.7987 17.1197C18.3044 17.3799 16.9735 18.1442 16.5926 18.3622C16.3067 18.1804 15.2192 17.4576 12.8793 15.1182C10.5402 12.7795 9.81895 11.692 9.63745 11.406C9.85506 11.0261 10.6173 9.6991 10.8789 9.19988V9.19878C11.2074 8.57632 11.3898 7.86973 11.0003 7.25628C10.8345 6.99493 10.0893 5.86142 9.33558 4.72097C8.58188 3.58052 7.86705 2.50066 7.68073 2.24253V2.24144C7.4375 1.90517 7.05848 1.70923 6.62964 1.67378ZM6.52792 2.81894C6.68078 2.83795 6.77292 2.89878 6.77292 2.89878C6.86308 3.02375 7.64809 4.19945 8.40042 5.33785C9.15299 6.47659 9.91981 7.64493 10.0542 7.85675C10.0755 7.89036 10.1068 8.26154 9.88792 8.67597V8.67707L9.88683 8.67816C9.64016 9.14917 8.48901 11.1632 8.48901 11.1632L8.32823 11.4443L8.49229 11.7243C8.49229 11.7243 9.35229 13.1754 12.0875 15.91C14.823 18.6451 16.2732 19.5074 16.2732 19.5074L16.5532 19.6714L16.8354 19.5107C16.8354 19.5107 18.8467 18.36 19.3204 18.1107H19.3215C19.7329 17.8932 20.1052 17.9224 20.1484 17.9488C20.5377 18.187 24.8385 21.0463 25.1042 21.2322C25.1122 21.2379 25.3462 21.5921 25.0046 22.0788L25.0035 22.0799C24.7979 22.3745 24.1242 23.2283 23.422 23.96C23.0709 24.3259 22.7084 24.666 22.4026 24.8963C22.0973 25.1261 21.8234 25.1988 21.8656 25.2003C21.39 25.185 20.3378 25.1747 18.406 24.2674C16.4743 23.3601 13.7175 21.5462 10.0848 17.9127C6.45326 14.28 4.6405 11.5235 3.73339 9.59144C2.82628 7.65938 2.81579 6.60728 2.80042 6.13191C2.80178 6.17461 2.87431 5.89966 3.10448 5.59378C3.33466 5.28791 3.67385 4.92451 4.03964 4.57332C4.77121 3.87093 5.62484 3.19696 5.91979 2.99066V2.99175C6.16184 2.82294 6.37507 2.79993 6.52792 2.81894Z" fill="#D9AFA5"/>
</svg>
