<svg width="28" height="28" viewBox="0 0 28 28" fill="none" xmlns="http://www.w3.org/2000/svg">
<path d="M6.99914 1.11914C5.31914 1.11914 3.91914 2.51914 3.91914 4.19914C3.91914 5.87914 5.31914 7.27914 6.99914 7.27914C8.67914 7.27914 10.0791 5.87914 10.0791 4.19914C10.0791 2.51914 8.67914 1.11914 6.99914 1.11914ZM22.6791 1.11914C20.9991 1.11914 19.5991 2.51914 19.5991 4.19914C19.5991 5.87914 20.9991 7.27914 22.6791 7.27914C24.3591 7.27914 25.7591 5.87914 25.7591 4.19914C25.7591 2.51914 24.3591 1.11914 22.6791 1.11914ZM6.99914 2.23914C8.06227 2.23914 8.95914 3.13602 8.95914 4.19914C8.95914 5.26227 8.06227 6.15914 6.99914 6.15914C5.93602 6.15914 5.03914 5.26227 5.03914 4.19914C5.03914 3.13602 5.93602 2.23914 6.99914 2.23914ZM22.6791 2.23914C23.7423 2.23914 24.6391 3.13602 24.6391 4.19914C24.6391 5.26227 23.7423 6.15914 22.6791 6.15914C21.616 6.15914 20.7191 5.26227 20.7191 4.19914C20.7191 3.13602 21.616 2.23914 22.6791 2.23914ZM5.87914 7.83914C3.86227 7.83914 2.23914 9.46227 2.23914 11.4791V16.2391H1.11914V17.3591H18.4791V16.2391H11.7591V11.4791C11.7591 9.46227 10.136 7.83914 8.11914 7.83914H5.87914ZM14.3841 16.2391C14.7757 16.2391 15.1716 16.121 15.4516 15.7841L19.5991 12.8791V25.1991C19.5991 26.096 20.3823 26.8791 21.2791 26.8791H23.5191C24.416 26.8791 25.1991 26.096 25.1991 25.1991V19.0391C26.096 19.0391 26.8791 18.256 26.8791 17.3591V11.4791C26.8791 9.46227 25.256 7.83914 23.2391 7.83914H21.8391C20.8307 7.83914 19.8201 8.22852 19.0916 9.01164L13.3866 13.5441C12.8266 14.1041 12.7085 15.0076 13.2116 15.6791L13.2641 15.7316C13.5441 16.0116 13.9357 16.2391 14.3841 16.2391ZM5.87914 8.95914H8.11914C9.46227 8.95914 10.6391 10.136 10.6391 11.4791V16.2391H3.35914V11.4791C3.35914 10.136 4.53602 8.95914 5.87914 8.95914ZM21.8916 8.95914H23.2916C24.6348 8.95914 25.8116 10.136 25.8116 11.4791L25.7591 17.3591C25.7591 17.696 25.536 17.9191 25.1991 17.9191H24.6391C24.3023 17.9191 24.0791 18.1423 24.0791 18.4791V25.1991C24.0791 25.536 23.856 25.7591 23.5191 25.7591H21.2791C20.9423 25.7591 20.7191 25.536 20.7191 25.1991L20.6666 11.4791C20.6666 11.1423 20.4435 10.9191 20.1066 10.9191C19.9382 10.9191 19.8157 10.9826 19.7041 11.0941L14.6641 15.0141C14.6073 15.071 14.441 15.1191 14.3841 15.1191C14.2726 15.1191 14.2157 15.0557 14.1041 14.9441C13.9926 14.721 14.0035 14.5548 14.2266 14.3316L19.9316 9.79914C20.4348 9.23914 21.1085 8.95914 21.8916 8.95914ZM11.1991 17.9191C10.9191 17.9191 10.5801 18.0285 10.4116 18.2516C10.1885 18.4201 10.0791 18.7591 10.0791 19.0391V19.5991H8.39914C7.50227 19.5991 6.71914 20.3823 6.71914 21.2791V25.1991C6.71914 26.096 7.50227 26.8791 8.39914 26.8791H16.2391C17.136 26.8791 17.9191 26.096 17.9191 25.1991V21.2791C17.9191 20.3823 17.136 19.5991 16.2391 19.5991H14.5591V19.0391C14.5591 18.7591 14.4498 18.4201 14.2266 18.2516C14.0582 18.0285 13.7191 17.9191 13.4391 17.9191H11.1991ZM11.1991 19.0391H13.4391V19.5991H11.1991V19.0391ZM8.39914 20.7191H8.95914V25.7591H8.39914C8.06227 25.7591 7.83914 25.536 7.83914 25.1991V21.2791C7.83914 20.9423 8.06227 20.7191 8.39914 20.7191ZM10.0791 20.7191H14.5591V25.7591H10.0791V20.7191ZM15.6791 20.7191H16.2391C16.576 20.7191 16.7991 20.9423 16.7991 21.2791V25.1991C16.7991 25.536 16.576 25.7591 16.2391 25.7591H15.6791V20.7191Z" fill="#D9AFA5"/>
</svg>
