<svg width="28" height="28" viewBox="0 0 28 28" fill="none" xmlns="http://www.w3.org/2000/svg">
<path d="M13.9998 0.800781C6.71567 0.800781 0.799805 6.71664 0.799805 14.0008C0.799805 21.2849 6.71567 27.2008 13.9998 27.2008C21.2839 27.2008 27.1998 21.2849 27.1998 14.0008C27.1998 6.71664 21.2839 0.800781 13.9998 0.800781ZM13.9998 2.00078C20.6357 2.00078 25.9998 7.36492 25.9998 14.0008C25.9998 20.6366 20.6357 26.0008 13.9998 26.0008C7.36394 26.0008 1.9998 20.6366 1.9998 14.0008C1.9998 7.36492 7.36394 2.00078 13.9998 2.00078ZM13.3998 6.80078V13.4008H6.7998V14.6008H13.3998V21.2008H14.5998V14.6008H21.1998V13.4008H14.5998V6.80078H13.3998Z" fill="#CDD3B8"/>
</svg>
