<svg width="28" height="29" viewBox="0 0 28 29" fill="none" xmlns="http://www.w3.org/2000/svg">
<path d="M14.0002 0.699219C6.38577 0.699219 0.200195 6.8848 0.200195 14.4992C0.200195 22.1136 6.38577 28.2992 14.0002 28.2992C21.6146 28.2992 27.8002 22.1136 27.8002 14.4992C27.8002 6.8848 21.6146 0.699219 14.0002 0.699219ZM14.0002 1.89922C20.9661 1.89922 26.6002 7.53332 26.6002 14.4992C26.6002 21.4651 20.9661 27.0992 14.0002 27.0992C7.0343 27.0992 1.4002 21.4651 1.4002 14.4992C1.4002 7.53332 7.0343 1.89922 14.0002 1.89922ZM6.8002 13.8992V15.0992H21.2002V13.8992H6.8002Z" fill="black"/>
</svg>
