<svg width="29" height="28" viewBox="0 0 29 28" fill="none" xmlns="http://www.w3.org/2000/svg">
<path d="M8.34914 1.11914L8.20914 1.48664C8.20914 1.48664 6.49414 6.01914 6.49414 10.6391C6.49414 14.686 9.83008 17.6413 13.7741 17.9016V21.3316C13.7741 21.8632 13.5248 22.3095 13.0741 22.7316C12.6235 23.1538 11.9695 23.517 11.3066 23.7991C9.98102 24.3635 8.64664 24.5866 8.64664 24.5866C8.64008 24.5866 8.6357 24.5866 8.62914 24.5866C8.22664 24.6676 7.85039 24.8754 7.56164 25.1641C7.27289 25.4529 7.05414 25.8532 7.05414 26.3191C7.05414 26.6276 7.3057 26.8791 7.61414 26.8791H21.0541C21.3626 26.8791 21.6141 26.6276 21.6141 26.3191C21.6141 25.8532 21.3954 25.4529 21.1066 25.1641C20.8179 24.8754 20.4416 24.6676 20.0391 24.5866C20.0326 24.5866 20.0282 24.5866 20.0216 24.5866C20.0216 24.5866 18.6873 24.3635 17.3616 23.7991C16.6988 23.517 16.0448 23.1538 15.5941 22.7316C15.1435 22.3095 14.8941 21.8632 14.8941 21.3316V17.9016C18.8382 17.6413 22.1741 14.686 22.1741 10.6391C22.1741 6.01914 20.4591 1.48664 20.4591 1.48664L20.3191 1.11914H8.34914ZM9.15414 2.23914H19.5141C19.6301 2.5607 20.1726 4.09633 20.5816 6.15914C20.5707 6.15914 20.5576 6.15914 20.5466 6.15914H8.08664C8.4957 4.09633 9.0382 2.5607 9.15414 2.23914ZM20.7566 7.24414C20.7632 7.24414 20.7676 7.24414 20.7741 7.24414C20.9404 8.30945 21.0541 9.45789 21.0541 10.6391C21.0541 14.2398 17.9873 16.7991 14.3341 16.7991C10.681 16.7991 7.61414 14.2398 7.61414 10.6391C7.61414 9.47102 7.73008 8.3357 7.89414 7.27914C7.92914 7.28352 7.96414 7.28352 7.99914 7.27914H20.5466C20.6188 7.28133 20.6888 7.2682 20.7566 7.24414ZM14.3341 22.9066C14.4873 23.1298 14.6295 23.3529 14.8241 23.5366C15.4235 24.0966 16.1695 24.5188 16.9066 24.8316C18.3723 25.4551 19.8138 25.687 19.8291 25.6891H19.8466C19.8838 25.6979 19.9123 25.7438 19.9516 25.7591H8.71664C8.75602 25.7438 8.78445 25.6979 8.82164 25.6891H8.83914C8.85445 25.687 10.296 25.4551 11.7616 24.8316C12.4988 24.5188 13.2448 24.0966 13.8441 23.5366C14.0388 23.3529 14.181 23.1298 14.3341 22.9066Z" fill="#D9AFA5"/>
</svg>
