<svg width="32" height="32" viewBox="0 0 32 32" fill="none" xmlns="http://www.w3.org/2000/svg">
<g clip-path="url(#clip0_228_926)">
<path d="M13.0004 0C11.9899 0 11.0686 0.3795 10.3636 1H8.50035C5.46785 1 3.00035 3.4675 3.00035 6.5V11.4316C2.64685 11.3336 2.29093 11.2364 1.95543 11.1299C1.80543 11.0799 1.65535 11.0596 1.50035 11.0596C0.845352 11.0596 0.270665 11.4805 0.0706648 12.1055C-0.179335 12.8955 0.260274 13.7352 1.04527 13.9902C1.36527 14.0902 1.69551 14.1902 2.03551 14.2852L3.24547 22.4551C3.56547 24.5951 4.93551 26.3796 6.78551 27.3096L6.67027 27.7646C6.62027 27.9496 6.47063 28.0948 6.28063 28.1348L4.80504 28.4297C4.34004 28.5197 4.00035 28.9352 4.00035 29.4102V30C4.00035 30.55 4.45035 31 5.00035 31H6.59508C7.63508 31 8.61551 30.5402 9.28551 29.7402L10.7357 28H21.265L22.7152 29.7402C23.3852 30.5402 24.3656 31 25.4056 31H27.0004C27.5504 31 28.0004 30.55 28.0004 30V29.4102C28.0004 28.9352 27.6607 28.5197 27.1957 28.4297L25.7201 28.1348C25.5301 28.0948 25.3804 27.9496 25.3304 27.7646L25.2152 27.3096C27.0652 26.3796 28.4352 24.5951 28.7552 22.4551L29.9701 14.2598C30.3051 14.1648 30.6353 14.065 30.9603 13.96C31.7453 13.71 32.18 12.8602 31.93 12.0752C31.73 11.4502 31.1554 11.0352 30.5004 11.0352C30.3454 11.0352 30.1904 11.0555 30.0404 11.1055C26.2354 12.3255 21.2353 13 15.9603 13C12.4238 13 9.01585 12.6896 6.00035 12.1211V6.5C6.00035 5.1215 7.12185 4 8.50035 4H9.00035C9.00035 4.5515 9.44885 5 10.0004 5H13.0004V10.5C13.0004 10.776 13.2244 11 13.5004 11C13.7764 11 14.0004 10.776 14.0004 10.5V5H15.0004V6.5C15.0004 6.776 15.2244 7 15.5004 7C15.7764 7 16.0004 6.776 16.0004 6.5V5H17.0004C17.5519 5 18.0004 4.5515 18.0004 4C18.0004 1.7945 16.2059 0 14.0004 0H13.0004ZM13.0004 1H14.0004C15.6549 1 17.0008 2.3455 17.0013 4H10.0004C10.0004 2.3455 11.3459 1 13.0004 1ZM8.50035 2H9.54137C9.36137 2.3095 9.22419 2.645 9.13219 3H8.50035C6.57035 3 5.00035 4.57 5.00035 6.5V11.9287C4.64485 11.8522 4.30574 11.7666 3.96324 11.6826C3.98574 11.6256 4.00035 11.5645 4.00035 11.5V6.5C4.00035 4.019 6.01935 2 8.50035 2ZM11.5004 6C11.2244 6 11.0004 6.224 11.0004 6.5V11.5C11.0004 11.776 11.2244 12 11.5004 12C11.7764 12 12.0004 11.776 12.0004 11.5V6.5C12.0004 6.224 11.7764 6 11.5004 6ZM15.5004 8C15.2244 8 15.0004 8.224 15.0004 8.5V11.5C15.0004 11.776 15.2244 12 15.5004 12C15.7764 12 16.0004 11.776 16.0004 11.5V8.5C16.0004 8.224 15.7764 8 15.5004 8ZM30.5004 12.0352C30.7154 12.0352 30.91 12.1699 30.975 12.3799C31.06 12.6449 30.9156 12.9248 30.6556 13.0098C30.1106 13.1848 29.5453 13.345 28.9603 13.5C27.3553 13.92 25.6005 14.255 23.7455 14.5C21.2905 14.83 18.6603 15 15.9603 15C13.2703 15 10.6408 14.83 8.19078 14.5C6.33078 14.255 4.57031 13.92 2.96031 13.5C2.40531 13.355 1.86496 13.2002 1.34996 13.0352C1.08496 12.9502 0.940743 12.6703 1.02574 12.4053C1.09074 12.1953 1.29035 12.0596 1.50035 12.0596C1.55035 12.0596 1.60074 12.0651 1.65074 12.0801C3.59074 12.6951 5.82082 13.175 8.23082 13.5C10.6658 13.83 13.2803 14 15.9603 14C18.6503 14 21.2704 13.83 23.7054 13.5C26.1404 13.17 28.3951 12.6797 30.3451 12.0547C30.4001 12.0397 30.4504 12.0352 30.5004 12.0352ZM28.9154 14.54L27.765 22.3047C27.6115 23.3507 27.1559 24.2936 26.5004 25.0576V24.5C26.5004 24.224 26.2769 24 26.0004 24C25.7239 24 25.5004 24.224 25.5004 24.5V25.5C25.5004 25.64 25.5582 25.7654 25.6507 25.8564C25.4342 26.0219 25.2096 26.1771 24.9701 26.3096C24.1801 26.7496 23.2755 27 22.3255 27H21.4105H10.5902H9.67516C8.72516 27 7.82063 26.7496 7.03063 26.3096C6.79113 26.1771 6.56646 26.0219 6.34996 25.8564C6.44246 25.7654 6.50035 25.64 6.50035 25.5V24.5C6.50035 24.224 6.27685 24 6.00035 24C5.72385 24 5.50035 24.224 5.50035 24.5V25.0576C4.84485 24.2936 4.3892 23.3507 4.2357 22.3047L3.0902 14.5654C6.8252 15.4954 11.3053 16 15.9603 16C20.6503 16 25.1654 15.485 28.9154 14.54ZM8.50035 24C8.22385 24 8.00035 24.224 8.00035 24.5V25.5C8.00035 25.776 8.22385 26 8.50035 26C8.77685 26 9.00035 25.776 9.00035 25.5V24.5C9.00035 24.224 8.77685 24 8.50035 24ZM11.0004 24C10.7239 24 10.5004 24.224 10.5004 24.5V25.5C10.5004 25.776 10.7239 26 11.0004 26C11.2769 26 11.5004 25.776 11.5004 25.5V24.5C11.5004 24.224 11.2769 24 11.0004 24ZM13.5004 24C13.2239 24 13.0004 24.224 13.0004 24.5V25.5C13.0004 25.776 13.2239 26 13.5004 26C13.7769 26 14.0004 25.776 14.0004 25.5V24.5C14.0004 24.224 13.7769 24 13.5004 24ZM16.0004 24C15.7239 24 15.5004 24.224 15.5004 24.5V25.5C15.5004 25.776 15.7239 26 16.0004 26C16.2769 26 16.5004 25.776 16.5004 25.5V24.5C16.5004 24.224 16.2769 24 16.0004 24ZM18.5004 24C18.2239 24 18.0004 24.224 18.0004 24.5V25.5C18.0004 25.776 18.2239 26 18.5004 26C18.7769 26 19.0004 25.776 19.0004 25.5V24.5C19.0004 24.224 18.7769 24 18.5004 24ZM21.0004 24C20.7239 24 20.5004 24.224 20.5004 24.5V25.5C20.5004 25.776 20.7239 26 21.0004 26C21.2769 26 21.5004 25.776 21.5004 25.5V24.5C21.5004 24.224 21.2769 24 21.0004 24ZM23.5004 24C23.2239 24 23.0004 24.224 23.0004 24.5V25.5C23.0004 25.776 23.2239 26 23.5004 26C23.7769 26 24.0004 25.776 24.0004 25.5V24.5C24.0004 24.224 23.7769 24 23.5004 24ZM7.72008 27.6953C8.27008 27.8703 8.84492 27.9751 9.43492 27.9951L8.515 29.0996C8.04 29.6696 7.34008 30 6.59508 30H5.00035V29.4102L6.48082 29.1152C7.04582 29.0002 7.5 28.5649 7.64 28.0049L7.72008 27.6953ZM24.2806 27.6953L24.3607 28.0049C24.5007 28.5649 24.9549 29.0002 25.5199 29.1152L27.0004 29.4102V30H25.4056C24.6606 30 23.9607 29.6696 23.4857 29.0996L22.5658 27.9951C23.1558 27.9751 23.7306 27.8703 24.2806 27.6953Z" fill="#D9AFA5"/>
</g>
<defs>
<clipPath id="clip0_228_926">
<rect width="32" height="32" fill="white"/>
</clipPath>
</defs>
</svg>
