<svg width="32" height="32" viewBox="0 0 32 32" fill="none" xmlns="http://www.w3.org/2000/svg">
<path d="M16.5001 1C13.2751 1 11.5949 1.95496 11.5099 3.83496C10.1949 4.45996 9.0501 5.425 8.2101 6.625L2.26967 14.6904C2.01467 15.0304 2.08494 15.5204 2.42494 15.7754L4.62514 17.4551C4.94014 17.7001 5.43057 17.6497 5.69057 17.3447L10.0001 12.3447V18.7402V19.2598V29.5C10.0001 29.775 10.2251 30 10.5001 30H22.0001C22.2751 30 22.5001 29.775 22.5001 29.5V19.2598V18.7402V12.3398L26.8497 17.3496C27.1147 17.6496 27.6002 17.7001 27.9152 17.4551L30.1203 15.7754C30.4553 15.5204 30.5255 15.0304 30.2755 14.6904L24.3351 6.625C23.4851 5.415 22.3253 4.44543 20.9953 3.81543C20.8703 2.12043 19.0951 1 16.5001 1ZM16.5001 2C18.1751 2 19.4406 2.545 19.8556 3.375C19.9506 3.57 20.0001 3.78 20.0001 4C20.0001 4.14 19.9748 4.29508 19.9298 4.45508C19.6048 5.64376 18.1795 7.23066 17.1505 8.33887C17.0227 8.09843 16.8976 7.88227 16.7697 7.65625C17.491 6.78601 18.9978 4.52989 19.0001 4.14355V4.14062C19.0001 3.08262 16.8951 3 16.2501 3C15.6051 3 13.5001 3.08215 13.5001 4.13965C13.5001 4.2658 13.726 4.6587 14.0158 5.12012C14.0308 5.18088 14.0567 5.24016 14.0958 5.29395C14.1222 5.32967 15.8521 7.72993 17.0001 10.3027C16.9512 10.249 16.8969 10.1858 16.8556 10.1445C14.402 7.69095 14.3875 7.67613 13.4259 6.24121C13.3529 6.09488 13.263 5.93728 13.1652 5.76953C12.9352 5.36953 12.6747 4.92973 12.5597 4.46973C12.5247 4.31473 12.5001 4.16 12.5001 4C12.5001 3.93 12.5003 3.84148 12.5109 3.74023C12.5215 3.63898 12.5426 3.52527 12.5851 3.40527C12.8101 2.78527 13.6101 2 16.5001 2ZM16.2501 4C17.0451 4 17.6143 4.12202 17.8908 4.22852C17.5903 4.75452 16.8906 5.88498 16.2726 6.68848C15.6726 5.84998 14.9462 4.74216 14.6232 4.22266C14.9052 4.11716 15.4686 4 16.2501 4ZM20.8497 4.86035C21.9047 5.41535 22.8247 6.21996 23.5197 7.20996L29.34 15.1104L27.4699 16.54L23.255 11.6846C22.98 11.3646 22.5455 11.2554 22.1505 11.4004C21.7555 11.5504 21.5001 11.9148 21.5001 12.3398V17.5H19.0001V14.0254C19.0001 14.0195 18.9992 14.0128 18.9992 14.0068C18.9992 14.0044 19.0001 14.0024 19.0001 14C19.0001 12.5699 18.3848 10.8581 17.6329 9.29297L17.6398 9.28516C18.7598 8.08516 20.3547 6.36535 20.8497 4.86035ZM11.6398 4.88477C11.7948 5.40977 12.0649 5.87539 12.2999 6.27539C12.3949 6.43539 12.4848 6.58461 12.5548 6.72461C12.5597 6.7346 12.5689 6.74049 12.5744 6.75C12.5792 6.75808 12.5797 6.76752 12.5851 6.77539C13.6101 8.32039 13.6597 8.36547 16.1447 10.8555C16.8597 11.5705 18.0001 13.3104 18.0001 14.0254V17.5H15.3556C15.1856 17.22 14.8801 17 14.5001 17H13.5001C13.1201 17 12.8147 17.22 12.6447 17.5H11.0001V12.3447C11.0001 11.9247 10.7447 11.5552 10.3497 11.4102C9.94975 11.2602 9.52037 11.3753 9.24037 11.6953L5.07045 16.54L3.20033 15.1104L9.01967 7.20508C9.70467 6.23508 10.6048 5.43977 11.6398 4.88477ZM13.5001 18H14.5001V23.5L13.5001 23.4697V18ZM11.0548 18.5H12.5001V19.5H11.0548C11.0298 19.46 11.0001 19.3748 11.0001 19.2598V18.7402C11.0001 18.6252 11.0298 18.54 11.0548 18.5ZM15.5001 18.5H21.4454C21.4704 18.54 21.5001 18.6252 21.5001 18.7402V19.2598C21.5001 19.3748 21.4704 19.46 21.4454 19.5H15.5001V18.5ZM11.0001 20.5H12.5001V23.5C12.5001 23.97 12.9101 24.5 13.5001 24.5H14.5001C15.0901 24.5 15.5001 23.975 15.5001 23.5V20.5H18.0001V22.5C18.0001 22.775 18.2251 23 18.5001 23C18.7751 23 19.0001 22.775 19.0001 22.5V20.5H21.5001V29H11.0001V20.5ZM12.5001 26C12.2241 26 12.0001 26.224 12.0001 26.5V27.5C12.0001 27.776 12.2241 28 12.5001 28C12.7761 28 13.0001 27.776 13.0001 27.5V26.5C13.0001 26.224 12.7761 26 12.5001 26ZM15.0001 26C14.7241 26 14.5001 26.224 14.5001 26.5V27.5C14.5001 27.776 14.7241 28 15.0001 28C15.2761 28 15.5001 27.776 15.5001 27.5V26.5C15.5001 26.224 15.2761 26 15.0001 26ZM17.5001 26C17.2241 26 17.0001 26.224 17.0001 26.5V27.5C17.0001 27.776 17.2241 28 17.5001 28C17.7761 28 18.0001 27.776 18.0001 27.5V26.5C18.0001 26.224 17.7761 26 17.5001 26ZM20.0001 26C19.7241 26 19.5001 26.224 19.5001 26.5V27.5C19.5001 27.776 19.7241 28 20.0001 28C20.2761 28 20.5001 27.776 20.5001 27.5V26.5C20.5001 26.224 20.2761 26 20.0001 26Z" fill="#D9AFA5"/>
</svg>
