<svg width="32" height="32" viewBox="0 0 32 32" fill="none" xmlns="http://www.w3.org/2000/svg">
<path d="M20 2C19.8674 2.00001 19.7402 2.0527 19.6465 2.14646C19.5527 2.24023 19.5 2.3674 19.5 2.5V4.5C19.5 4.6326 19.5527 4.75977 19.6465 4.85354C19.7402 4.9473 19.8674 4.99999 20 5H20.5V5.80469C18.098 6.44542 16.2496 8.45831 16.0234 11H15.5C15.3674 11 15.2402 11.0527 15.1465 11.1465C15.0527 11.2402 15 11.3674 15 11.5V15.499H11.4199C11.6644 15.1762 11.8718 14.7752 11.9336 14.2734L13.3535 12.8535C13.4234 12.7836 13.471 12.6945 13.4903 12.5975C13.5095 12.5006 13.4996 12.4 13.4618 12.3087C13.424 12.2174 13.3599 12.1393 13.2777 12.0843C13.1955 12.0294 13.0989 12 13 12H11.4307C11.6857 11.6807 11.8712 11.2805 11.9336 10.7734L13.3535 9.35352C13.4234 9.28358 13.471 9.1945 13.4903 9.09752C13.5095 9.00055 13.4996 8.90004 13.4618 8.8087C13.424 8.71736 13.3599 8.63928 13.2777 8.58433C13.1955 8.52939 13.0989 8.50004 13 8.5H11.4307C11.6857 8.18067 11.8712 7.78053 11.9336 7.27344L13.3535 5.85352C13.4234 5.78358 13.471 5.6945 13.4903 5.59753C13.5095 5.50055 13.4996 5.40004 13.4618 5.3087C13.424 5.21736 13.3599 5.13928 13.2777 5.08433C13.1955 5.02939 13.0989 5.00004 13 5H3.5C3.40113 5.00004 3.30449 5.02939 3.2223 5.08433C3.1401 5.13928 3.07604 5.21736 3.03821 5.3087C3.00037 5.40004 2.99047 5.50055 3.00974 5.59752C3.02901 5.6945 3.0766 5.78358 3.14648 5.85352L4.5625 7.26953C4.62198 7.77728 4.80068 8.17915 5.0459 8.5H3.5C3.40113 8.50004 3.30449 8.52939 3.2223 8.58433C3.1401 8.63928 3.07604 8.71736 3.03821 8.8087C3.00037 8.90004 2.99047 9.00055 3.00974 9.09752C3.02901 9.1945 3.0766 9.28358 3.14648 9.35352L4.5625 10.7695C4.62198 11.2773 4.80068 11.6792 5.0459 12H3.5C3.40113 12 3.30449 12.0294 3.2223 12.0843C3.1401 12.1393 3.07604 12.2174 3.03821 12.3087C3.00037 12.4 2.99047 12.5006 3.00974 12.5975C3.02901 12.6945 3.0766 12.7836 3.14648 12.8535L4.5625 14.2695C4.62133 14.7717 4.82174 15.1739 5.05664 15.498H2C1.8674 15.4981 1.74023 15.5507 1.64646 15.6445C1.5527 15.7383 1.50001 15.8654 1.5 15.998V22.5C1.5 23.2064 1.84239 23.8267 2.30762 24.2686C2.36924 24.3271 2.43883 24.3749 2.50488 24.4277C2.50151 24.4517 2.49988 24.4758 2.5 24.5V29C2.50001 29.1326 2.5527 29.2598 2.64646 29.3535C2.74023 29.4473 2.8674 29.5 3 29.5H5C5.1326 29.5 5.25977 29.4473 5.35354 29.3535C5.4473 29.2598 5.49999 29.1326 5.5 29V24.5C5.5001 24.4811 5.49912 24.4622 5.49707 24.4434C5.67355 24.2986 5.83445 24.1338 5.97168 23.9492C6.03722 24.0458 6.07189 24.1606 6.15234 24.2471C6.58733 24.7145 7.23836 25 8 25C8.88485 25 9.57598 24.5476 10.0137 23.917C10.4812 24.5575 11.2015 25 12 25C12.8066 25 13.5337 24.549 14 23.8975C14.4663 24.549 15.1934 25 16 25C16.8066 25 17.5337 24.549 18 23.8975C18.4663 24.549 19.1934 25 20 25C20.8493 25 21.5463 24.5564 21.9951 23.9297C22.4337 24.5534 23.1211 25 24 25C24.7616 25 25.4127 24.7145 25.8477 24.2471C25.9297 24.1589 25.9657 24.0421 26.0322 23.9434C26.1694 24.1264 26.3294 24.2898 26.5039 24.4336C26.5011 24.4556 26.4998 24.4778 26.5 24.5V29C26.5 29.1326 26.5527 29.2598 26.6465 29.3535C26.7402 29.4473 26.8674 29.5 27 29.5H29C29.1326 29.5 29.2598 29.4473 29.3535 29.3535C29.4473 29.2598 29.5 29.1326 29.5 29V24.5C29.5 24.4893 29.4997 24.4785 29.499 24.4678C30.0919 24.0121 30.5 23.3072 30.5 22.5V16C30.5 15.8674 30.4473 15.7402 30.3535 15.6465C30.2598 15.5527 30.1326 15.5 30 15.5H29V11.5C29 11.3674 28.9473 11.2402 28.8535 11.1465C28.7598 11.0527 28.6326 11 28.5 11H27.9766C27.7504 8.45831 25.902 6.44542 23.5 5.80469V5H24C24.1326 4.99999 24.2598 4.9473 24.3535 4.85354C24.4473 4.75977 24.5 4.6326 24.5 4.5V2.5C24.5 2.3674 24.4473 2.24023 24.3535 2.14646C24.2598 2.0527 24.1326 2.00001 24 2H20ZM20.5 3H23.5V4H23C22.8674 4.00001 22.7402 4.0527 22.6465 4.14646C22.5527 4.24023 22.5 4.3674 22.5 4.5V5.5H22H21.5V4.5C21.5 4.3674 21.4473 4.24023 21.3535 4.14646C21.2598 4.0527 21.1326 4.00001 21 4H20.5V3ZM4.70703 6H11.793L11.1465 6.64648C11.0527 6.74024 11 6.8674 11 7C11 8.00437 10.041 8.45226 9.93555 8.5H6.49121C6.38205 8.44838 5.5 8.01551 5.5 7C5.49997 6.8674 5.44728 6.74024 5.35352 6.64648L4.70703 6ZM22 6.5C24.589 6.5 26.7116 8.46564 26.9727 11H17.0273C17.2884 8.46564 19.411 6.5 22 6.5ZM4.70703 9.5H6.34082H10.0713H11.793L11.1465 10.1465C11.0527 10.2402 11 10.3674 11 10.5C11 11.5044 10.041 11.9523 9.93555 12H6.49121C6.38205 11.9484 5.5 11.5155 5.5 10.5C5.49997 10.3674 5.44728 10.2402 5.35352 10.1465L4.70703 9.5ZM16 12H16.3184C16.4349 12.0453 16.5641 12.0453 16.6807 12H27.3184C27.4349 12.0453 27.5641 12.0453 27.6807 12H28V15.5H27V13.5C27 13.3674 26.9473 13.2402 26.8535 13.1465C26.7598 13.0527 26.6326 13 26.5 13H17.5C17.3674 13 17.2402 13.0527 17.1465 13.1465C17.0527 13.2402 17 13.3674 17 13.5V15.499H16V12ZM4.70703 13H6.34082H10.0713H11.793L11.1465 13.6465C11.0527 13.7402 11 13.8674 11 14C11 15.0012 10.0489 15.4489 9.93848 15.499L6.48828 15.498C6.37371 15.4437 5.5 15.0117 5.5 14C5.49997 13.8674 5.44728 13.7402 5.35352 13.6465L4.70703 13ZM18 14H26V15.5L18 15.499V14ZM2.5 16.498H6.31934C6.3294 16.499 6.3395 16.4997 6.34961 16.5H10.0713C10.0791 16.4999 10.0869 16.4995 10.0947 16.499H15.4648C15.4765 16.4998 15.4883 16.5001 15.5 16.5H17.5C17.5049 16.4997 17.5098 16.4994 17.5146 16.499L29.5 16.5V22.5C29.5 23.2752 28.6943 24 28 24C27.3057 24 26.5 23.2752 26.5 22.5C26.4999 22.4834 26.4989 22.4667 26.4971 22.4502C26.495 22.4335 26.4921 22.4168 26.4883 22.4004C26.4848 22.3842 26.4806 22.3683 26.4756 22.3525C26.4653 22.3207 26.4519 22.2899 26.4355 22.2607C26.4191 22.2319 26.3998 22.2047 26.3779 22.1797C26.3453 22.1416 26.3071 22.1087 26.2646 22.082C26.2362 22.0644 26.2061 22.0497 26.1748 22.0381C26.1278 22.0207 26.0784 22.0105 26.0283 22.0078C25.9106 22.0013 25.7944 22.0366 25.7002 22.1074C25.6867 22.1172 25.6736 22.1276 25.6611 22.1387C25.6491 22.1501 25.6377 22.1622 25.627 22.1748C25.6048 22.1998 25.5851 22.227 25.5684 22.2559C25.5598 22.2701 25.552 22.2848 25.5449 22.2998C25.538 22.3151 25.5318 22.3308 25.5264 22.3467C25.521 22.3624 25.5165 22.3784 25.5127 22.3945C25.509 22.4107 25.506 22.4269 25.5039 22.4434C25.5018 22.4599 25.5005 22.4765 25.5 22.4932C25.5 22.4954 25.5 22.4977 25.5 22.5C25.5 22.9315 25.3598 23.3036 25.1162 23.5654C24.8726 23.8272 24.5239 24 24 24C23.0372 24 22.5 23.3412 22.5 22.5C22.4983 22.3822 22.4551 22.2687 22.3779 22.1797C22.3453 22.1416 22.3071 22.1087 22.2646 22.082C22.2504 22.0735 22.2357 22.0657 22.2207 22.0586C22.2058 22.051 22.1904 22.0441 22.1748 22.0381C22.1121 22.015 22.0453 22.0047 21.9785 22.0078C21.9619 22.0083 21.9452 22.0096 21.9287 22.0117C21.8457 22.0239 21.7671 22.0569 21.7002 22.1074C21.6736 22.1274 21.6491 22.15 21.627 22.1748C21.5935 22.2121 21.5658 22.2543 21.5449 22.2998C21.538 22.3151 21.5318 22.3308 21.5264 22.3467C21.521 22.3624 21.5165 22.3784 21.5127 22.3945C21.509 22.4107 21.506 22.4269 21.5039 22.4434C21.5018 22.4599 21.5005 22.4765 21.5 22.4932C21.5 22.4954 21.5 22.4977 21.5 22.5C21.5 23.3192 20.8756 24 20 24C19.3057 24 18.5 23.2752 18.5 22.5C18.4999 22.4834 18.4989 22.4667 18.4971 22.4502C18.495 22.4335 18.4921 22.4168 18.4883 22.4004C18.4778 22.3515 18.46 22.3044 18.4355 22.2607C18.411 22.2173 18.38 22.1778 18.3438 22.1436C18.3316 22.1322 18.3189 22.1214 18.3057 22.1113C18.2925 22.1009 18.2788 22.0911 18.2646 22.082C18.2504 22.0735 18.2357 22.0657 18.2207 22.0586C18.1907 22.0438 18.1593 22.032 18.127 22.0234C18.0623 22.0063 17.9949 22.0023 17.9287 22.0117C17.8958 22.0166 17.8634 22.0248 17.832 22.0361C17.8004 22.0474 17.77 22.0618 17.7412 22.0791C17.6986 22.1051 17.66 22.1374 17.627 22.1748C17.5935 22.2121 17.5658 22.2543 17.5449 22.2998C17.5172 22.3606 17.5019 22.4264 17.5 22.4932C17.5 22.4954 17.5 22.4977 17.5 22.5C17.5 23.2752 16.6943 24 16 24C15.3057 24 14.5 23.2752 14.5 22.5C14.4999 22.4834 14.4989 22.4667 14.4971 22.4502C14.4932 22.417 14.486 22.3843 14.4756 22.3525C14.4705 22.3366 14.4646 22.321 14.458 22.3057C14.4444 22.2751 14.4277 22.246 14.4082 22.2188C14.3893 22.1916 14.3677 22.1664 14.3438 22.1436C14.3195 22.1204 14.293 22.0998 14.2646 22.082C14.2362 22.0644 14.2061 22.0497 14.1748 22.0381C14.1591 22.0324 14.1431 22.0275 14.127 22.0234C14.0623 22.0063 13.9949 22.0023 13.9287 22.0117C13.9123 22.0142 13.896 22.0174 13.8799 22.0215C13.8148 22.0378 13.7537 22.067 13.7002 22.1074C13.6867 22.1172 13.6736 22.1276 13.6611 22.1387C13.6491 22.1501 13.6377 22.1622 13.627 22.1748C13.6048 22.1998 13.5851 22.227 13.5684 22.2559C13.5598 22.2701 13.552 22.2848 13.5449 22.2998C13.531 22.3302 13.5202 22.362 13.5127 22.3945C13.509 22.4107 13.506 22.4269 13.5039 22.4434C13.5018 22.4599 13.5005 22.4765 13.5 22.4932C13.5 22.4954 13.5 22.4977 13.5 22.5C13.5 23.2752 12.6943 24 12 24C11.3057 24 10.5 23.2752 10.5 22.5C10.4981 22.3686 10.4446 22.2432 10.3511 22.151C10.2575 22.0587 10.1314 22.007 10 22.007C9.8686 22.007 9.74249 22.0587 9.64892 22.151C9.55535 22.2432 9.50186 22.3686 9.5 22.5C9.5 23.3412 8.96282 24 8 24C7.47614 24 7.12743 23.8272 6.88379 23.5654C6.64015 23.3036 6.5 22.9315 6.5 22.5C6.49814 22.3686 6.44465 22.2432 6.35108 22.151C6.25751 22.0587 6.1314 22.007 6 22.007C5.8686 22.007 5.74249 22.0587 5.64892 22.151C5.55535 22.2432 5.50186 22.3686 5.5 22.5C5.5 23.2952 4.77799 24 4 24C3.70035 24 3.29874 23.8314 2.99609 23.5439C2.69345 23.2565 2.5 22.8766 2.5 22.5V16.498ZM3.5 17.5C3.224 17.5 3 17.724 3 18V19C3 19.276 3.224 19.5 3.5 19.5C3.776 19.5 4 19.276 4 19V18C4 17.724 3.776 17.5 3.5 17.5ZM6 17.5C5.724 17.5 5.5 17.724 5.5 18V19C5.5 19.276 5.724 19.5 6 19.5C6.276 19.5 6.5 19.276 6.5 19V18C6.5 17.724 6.276 17.5 6 17.5ZM8.5 17.5C8.224 17.5 8 17.724 8 18V19C8 19.276 8.224 19.5 8.5 19.5C8.776 19.5 9 19.276 9 19V18C9 17.724 8.776 17.5 8.5 17.5ZM11 17.5C10.724 17.5 10.5 17.724 10.5 18V19C10.5 19.276 10.724 19.5 11 19.5C11.276 19.5 11.5 19.276 11.5 19V18C11.5 17.724 11.276 17.5 11 17.5ZM13.5 17.5C13.224 17.5 13 17.724 13 18V19C13 19.276 13.224 19.5 13.5 19.5C13.776 19.5 14 19.276 14 19V18C14 17.724 13.776 17.5 13.5 17.5ZM16 17.5C15.724 17.5 15.5 17.724 15.5 18V19C15.5 19.276 15.724 19.5 16 19.5C16.276 19.5 16.5 19.276 16.5 19V18C16.5 17.724 16.276 17.5 16 17.5ZM18.5 17.5C18.224 17.5 18 17.724 18 18V19C18 19.276 18.224 19.5 18.5 19.5C18.776 19.5 19 19.276 19 19V18C19 17.724 18.776 17.5 18.5 17.5ZM21 17.5C20.724 17.5 20.5 17.724 20.5 18V19C20.5 19.276 20.724 19.5 21 19.5C21.276 19.5 21.5 19.276 21.5 19V18C21.5 17.724 21.276 17.5 21 17.5ZM23.5 17.5C23.224 17.5 23 17.724 23 18V19C23 19.276 23.224 19.5 23.5 19.5C23.776 19.5 24 19.276 24 19V18C24 17.724 23.776 17.5 23.5 17.5ZM26 17.5C25.724 17.5 25.5 17.724 25.5 18V19C25.5 19.276 25.724 19.5 26 19.5C26.276 19.5 26.5 19.276 26.5 19V18C26.5 17.724 26.276 17.5 26 17.5ZM28.5 17.5C28.224 17.5 28 17.724 28 18V19C28 19.276 28.224 19.5 28.5 19.5C28.776 19.5 29 19.276 29 19V18C29 17.724 28.776 17.5 28.5 17.5ZM3.5 24.9365C3.6635 24.9761 3.83001 25 4 25C4.17251 25 4.33861 24.9763 4.5 24.9395V28.5H3.5V24.9365ZM27.5 24.9375C27.6622 24.9758 27.8289 25 28 25C28.1695 25 28.3366 24.9789 28.5 24.9434V28.5H27.5V24.9375Z" fill="#D9AFA5"/>
</svg>
