<svg width="32" height="32" viewBox="0 0 32 32" fill="none" xmlns="http://www.w3.org/2000/svg">
<path d="M14.9736 1.00175C14.807 0.998306 14.6311 0.998726 14.4473 1.01444C14.3289 1.02427 14.2178 1.07593 14.1341 1.16018C14.0503 1.24442 13.9992 1.35574 13.9901 1.4742C13.9809 1.59265 14.0142 1.7105 14.084 1.80663C14.1539 1.90276 14.2556 1.97089 14.3711 1.99882C14.3468 1.99288 14.5462 2.09999 14.6953 2.24979C14.8444 2.3996 14.9863 2.60345 14.9971 2.62479C15.3107 3.24949 15.2096 3.67895 14.8428 4.18143C14.476 4.68391 13.7885 5.18382 13.0068 5.59745C12.2252 6.01108 11.3561 6.3469 10.6387 6.59159C9.92127 6.83628 9.37993 6.98216 9.15332 7.0535C8.14458 7.37042 7.41927 8.1178 7.11719 9.00077H6.50195C5.9542 9.00077 5.5 9.45496 5.5 10.0027V11.9988C5.5 12.0317 5.53196 12.0516 5.53516 12.0838C3.83948 12.2958 2.5 13.6938 2.5 15.4451V25.5564C2.5 27.4526 4.04814 29.0008 5.94434 29.0008H26.0557C27.9519 29.0008 29.5 27.4526 29.5 25.5564V15.4451C29.5 13.6938 28.1605 12.2958 26.4648 12.0838C26.468 12.0516 26.5 12.0317 26.5 11.9988V10.0027C26.5 9.45496 26.0458 9.00077 25.498 9.00077H24.998C24.9775 6.99279 23.8504 5.0153 22.125 3.52811C20.3837 2.02718 18.0115 1.01249 15.4434 1.01249C15.2974 1.01249 15.1402 1.00519 14.9736 1.00175ZM15.791 2.04667C17.9607 2.13508 19.9832 3.0029 21.4717 4.28593C23.0232 5.62324 23.9749 7.36911 23.9961 9.00077H8.20996C8.45582 8.55844 8.87573 8.189 9.45312 8.00761C9.60452 7.95995 10.2139 7.79301 10.9619 7.53788C11.7099 7.28274 12.6211 6.93292 13.4746 6.48124C14.3282 6.02956 15.1299 5.48425 15.6504 4.77128C16.1709 4.0583 16.3553 3.10112 15.8906 2.17557C15.8678 2.13018 15.8181 2.09033 15.791 2.04667ZM6.50195 10.0008H7.36523C7.45062 10.0238 7.54059 10.0238 7.62598 10.0008H25.498C25.5043 10.0008 25.5 9.99647 25.5 10.0027V11.9988C25.5 12.0051 25.5043 12.0008 25.498 12.0008H6.50195C6.49571 12.0008 6.5 12.0051 6.5 11.9988V10.0027C6.5 9.99648 6.49571 10.0008 6.50195 10.0008ZM6.5 12.9998L6.50195 13.0008H25.498L25.5 12.9998V13.0008H26.0557C27.4115 13.0008 28.5 14.0893 28.5 15.4451V25.5564C28.5 26.9122 27.4115 28.0008 26.0557 28.0008H5.94434C4.58853 28.0008 3.5 26.9122 3.5 25.5564V15.4451C3.5 14.0893 4.58853 13.0008 5.94434 13.0008H6.5V12.9998ZM16 16.0008C14.9667 16.0008 14.1614 16.6545 13.6875 17.5076C13.2136 18.3607 13 19.4313 13 20.5008C13 21.5702 13.2136 22.6408 13.6875 23.4939C14.1614 24.347 14.9667 25.0008 16 25.0008C16.9065 25.0008 17.6784 24.4153 18.1914 23.5945C18.7044 22.7737 19 21.6898 19 20.5008C19 19.3118 18.7044 18.2278 18.1914 17.407C17.6784 16.5862 16.9065 16.0008 16 16.0008ZM16 17.0008C16.4742 17.0008 16.9519 17.3104 17.3438 17.9373C17.7356 18.5642 18 19.4806 18 20.5008C18 21.5209 17.7356 22.4373 17.3438 23.0642C16.9519 23.6912 16.4742 24.0008 16 24.0008C15.3667 24.0008 14.9219 23.6545 14.5625 23.0076C14.2031 22.3607 14 21.4313 14 20.5008C14 19.5702 14.2031 18.6408 14.5625 17.9939C14.9219 17.347 15.3667 17.0008 16 17.0008ZM4.5 19.5008C4.2235 19.5008 4 19.7243 4 20.0008V21.0008C4 21.2773 4.2235 21.5008 4.5 21.5008C4.7765 21.5008 5 21.2773 5 21.0008V20.0008C5 19.7243 4.7765 19.5008 4.5 19.5008ZM7 19.5008C6.7235 19.5008 6.5 19.7243 6.5 20.0008V21.0008C6.5 21.2773 6.7235 21.5008 7 21.5008C7.2765 21.5008 7.5 21.2773 7.5 21.0008V20.0008C7.5 19.7243 7.2765 19.5008 7 19.5008ZM9.5 19.5008C9.2235 19.5008 9 19.7243 9 20.0008V21.0008C9 21.2773 9.2235 21.5008 9.5 21.5008C9.7765 21.5008 10 21.2773 10 21.0008V20.0008C10 19.7243 9.7765 19.5008 9.5 19.5008ZM12 19.5008C11.7235 19.5008 11.5 19.7243 11.5 20.0008V21.0008C11.5 21.2773 11.7235 21.5008 12 21.5008C12.2765 21.5008 12.5 21.2773 12.5 21.0008V20.0008C12.5 19.7243 12.2765 19.5008 12 19.5008ZM20 19.5008C19.7235 19.5008 19.5 19.7243 19.5 20.0008V21.0008C19.5 21.2773 19.7235 21.5008 20 21.5008C20.2765 21.5008 20.5 21.2773 20.5 21.0008V20.0008C20.5 19.7243 20.2765 19.5008 20 19.5008ZM22.5 19.5008C22.2235 19.5008 22 19.7243 22 20.0008V21.0008C22 21.2773 22.2235 21.5008 22.5 21.5008C22.7765 21.5008 23 21.2773 23 21.0008V20.0008C23 19.7243 22.7765 19.5008 22.5 19.5008ZM25 19.5008C24.7235 19.5008 24.5 19.7243 24.5 20.0008V21.0008C24.5 21.2773 24.7235 21.5008 25 21.5008C25.2765 21.5008 25.5 21.2773 25.5 21.0008V20.0008C25.5 19.7243 25.2765 19.5008 25 19.5008ZM27.5 19.5008C27.2235 19.5008 27 19.7243 27 20.0008V21.0008C27 21.2773 27.2235 21.5008 27.5 21.5008C27.7765 21.5008 28 21.2773 28 21.0008V20.0008C28 19.7243 27.7765 19.5008 27.5 19.5008Z" fill="#D9AFA5"/>
</svg>
