<svg width="32" height="32" viewBox="0 0 32 32" fill="none" xmlns="http://www.w3.org/2000/svg">
<path d="M23.5701 2.1894C23.4627 2.18354 23.3533 2.19136 23.2419 2.21089L2.92163 5.74409C2.42163 5.83198 2.00171 6.16206 1.80054 6.62886C1.59937 7.09565 1.64624 7.6269 1.92749 8.05268L4.74976 12.3144C4.91382 12.5625 4.99976 12.8476 4.99976 13.1425V28H4.49976C3.67359 28 2.99976 28.6738 2.99976 29.5C2.99976 30.3261 3.67359 31 4.49976 31H25.4998C26.3259 31 26.9998 30.3261 26.9998 29.5C26.9998 28.6738 26.3259 28 25.4998 28H24.9998V12H25.2263C26.2634 12 27.1189 12.7792 27.2185 13.8105L27.9138 21.1425C27.99 21.916 28.6326 22.5 29.408 22.5H29.4998C30.3259 22.5 30.9998 21.8261 30.9998 21V13.5C30.9998 10.0859 28.3494 7.28315 24.9998 7.02534V3.6894C24.9998 3.24604 24.8044 2.82612 24.4666 2.54097C24.2107 2.32612 23.8962 2.20503 23.5701 2.1894ZM23.5525 3.19136C23.6775 3.20307 23.7712 3.26362 23.8201 3.30659C23.9353 3.40229 23.9998 3.53901 23.9998 3.6894V4.57807L12.5662 6.56831C12.2595 6.62104 11.9509 6.57807 11.6697 6.44526L9.80445 5.56245L23.4138 3.19526C23.4627 3.18745 23.5095 3.1855 23.5525 3.19136ZM23.9998 5.5937V22H22.4998C22.2224 22 21.9998 22.2226 21.9998 22.5C21.9998 22.7773 22.2224 23 22.4998 23H23.9998V28H5.99976V23H13.4998C13.7771 23 13.9998 22.7773 13.9998 22.5C13.9998 22.2226 13.7771 22 13.4998 22H5.99976V13.1425C5.99976 12.6523 5.85718 12.1738 5.5857 11.7636L2.76148 7.49995C2.66577 7.35542 2.65015 7.18354 2.71851 7.02534C2.78687 6.86714 2.92163 6.75972 3.09156 6.73042L8.15015 5.85151C8.18921 5.89057 8.23218 5.92573 8.28492 5.95307L11.24 7.35151C11.5779 7.50972 11.9392 7.59175 12.3064 7.59175C12.449 7.59175 12.5935 7.57807 12.7361 7.55464L23.9998 5.5937ZM24.9998 8.02339C27.7986 8.27534 29.9998 10.6347 29.9998 13.5V21C29.9998 21.2753 29.7752 21.5 29.4998 21.5H29.408C29.1502 21.5 28.9353 21.3046 28.9119 21.0468L28.2127 13.7167C28.0662 12.1679 26.781 11 25.2263 11H24.9998V8.02339ZM17.9998 8.99995C16.3455 8.99995 14.9998 10.3457 14.9998 12V23C14.9998 24.6542 16.3455 26 17.9998 26C19.6541 26 20.9998 24.6542 20.9998 23V12C20.9998 10.3457 19.6541 8.99995 17.9998 8.99995ZM17.9998 9.99995C19.1033 9.99995 19.9998 10.8964 19.9998 12V23C19.9998 24.1035 19.1033 25 17.9998 25C16.8962 25 15.9998 24.1035 15.9998 23V12C15.9998 10.8964 16.8962 9.99995 17.9998 9.99995ZM17.4998 12C17.2224 12 16.9998 12.2226 16.9998 12.5C16.9998 12.7773 17.2224 13 17.4998 13H18.4998C18.7771 13 18.9998 12.7773 18.9998 12.5C18.9998 12.2226 18.7771 12 18.4998 12H17.4998ZM17.4998 14.5C17.2224 14.5 16.9998 14.7226 16.9998 15C16.9998 15.2773 17.2224 15.5 17.4998 15.5H18.4998C18.7771 15.5 18.9998 15.2773 18.9998 15C18.9998 14.7226 18.7771 14.5 18.4998 14.5H17.4998ZM17.4998 17C17.2224 17 16.9998 17.2226 16.9998 17.5C16.9998 17.7773 17.2224 18 17.4998 18H18.4998C18.7771 18 18.9998 17.7773 18.9998 17.5C18.9998 17.2226 18.7771 17 18.4998 17H17.4998ZM17.4998 19.5C17.2224 19.5 16.9998 19.7226 16.9998 20C16.9998 20.2773 17.2224 20.5 17.4998 20.5H18.4998C18.7771 20.5 18.9998 20.2773 18.9998 20C18.9998 19.7226 18.7771 19.5 18.4998 19.5H17.4998ZM17.4998 22C17.2224 22 16.9998 22.2226 16.9998 22.5C16.9998 22.7773 17.2224 23 17.4998 23H18.4998C18.7771 23 18.9998 22.7773 18.9998 22.5C18.9998 22.2226 18.7771 22 18.4998 22H17.4998ZM4.49976 29H25.4998C25.7752 29 25.9998 29.2246 25.9998 29.5C25.9998 29.7753 25.7752 30 25.4998 30H4.49976C4.22437 30 3.99976 29.7753 3.99976 29.5C3.99976 29.2246 4.22437 29 4.49976 29Z" fill="#D9AFA5"/>
</svg>
