<svg width="32" height="32" viewBox="0 0 32 32" fill="none" xmlns="http://www.w3.org/2000/svg">
<path d="M12.5 2C11.765 2 11.1504 2.53523 11.0254 3.24023C10.1804 3.24523 9.33035 3.29023 8.48535 3.36523L8.4248 3.37012C4.18981 3.75512 1 7.25 1 11.5C1 13.9345 2.04973 16.1178 3.74023 17.6143L9.23047 29.0195C9.81047 30.2195 11.0498 31 12.3848 31H15.0049C15.4599 31 15.865 30.7296 16.04 30.3096C16.21 29.8896 16.1149 29.4098 15.7949 29.0898L15.4248 28.7148C15.1548 28.4498 14.9698 28.1101 14.8848 27.7451L14.2617 25H15.1553C15.6343 25 16.0734 24.7795 16.3594 24.3955C16.6449 24.011 16.7303 23.5283 16.5928 23.0693L15.5176 19.4854C15.8511 19.4409 16.1836 19.3953 16.5146 19.3398L29.7451 17.1299C30.4751 17.0099 31 16.3903 31 15.6553V7.34473C31 6.60973 30.4751 5.99012 29.7451 5.87012L16.5146 3.66016C15.6796 3.52016 14.8352 3.41473 13.9902 3.34473C13.9102 2.58973 13.27 2 12.5 2ZM12.5 3C12.695 3 12.8653 3.11039 12.9453 3.27539C12.9803 3.34539 13 3.42 13 3.5V19.4346V19.5C13 19.58 12.9803 19.6546 12.9453 19.7246C12.8653 19.8896 12.695 20 12.5 20C12.32 20 12.1602 19.8999 12.0752 19.7549C12.0252 19.6799 12 19.595 12 19.5V3.5C12 3.405 12.0252 3.31523 12.0752 3.24023C12.1602 3.09523 12.32 3 12.5 3ZM11 4.24023V7.25977C9.255 7.87477 8 9.545 8 11.5C8 13.455 9.255 15.1252 11 15.7402V18.7598C10.19 18.7548 9.3802 18.7146 8.5752 18.6396L8.51465 18.6348C6.96765 18.4953 5.58471 17.8775 4.49121 16.9395C4.47121 16.9195 4.45073 16.9027 4.42773 16.8867C2.93173 15.5727 2 13.6475 2 11.5C2 7.77 4.79965 4.70023 8.51465 4.36523L8.5752 4.36035C9.3802 4.28535 10.19 4.24523 11 4.24023ZM14 4.35547C14.785 4.42047 15.5696 4.52039 16.3496 4.65039L29.585 6.85547C29.825 6.89547 30 7.09973 30 7.34473V15.6553C30 15.9003 29.825 16.1045 29.585 16.1445L29 16.2422V12C29 11.724 28.7765 11.5 28.5 11.5C28.2235 11.5 28 11.724 28 12V16.4092L16.3496 18.3496C15.5696 18.4796 14.785 18.5795 14 18.6445V15.7402C15.745 15.1252 17 13.455 17 11.5C17 9.545 15.745 7.87477 14 7.25977V4.35547ZM6.44727 6.66797C6.38183 6.67655 6.315 6.69883 6.25 6.73633C5.99 6.88633 5.92938 7.18042 6.06738 7.41992L6.56738 8.28516C6.66088 8.44716 6.82798 8.53613 7.00098 8.53613C7.06548 8.54763 7.1635 8.51875 7.25 8.46875C7.51 8.31875 7.57062 8.02466 7.43262 7.78516L6.93262 6.91992C6.82912 6.7403 6.64358 6.64221 6.44727 6.66797ZM28.5 7.5C28.2235 7.5 28 7.724 28 8V10C28 10.276 28.2235 10.5 28.5 10.5C28.7765 10.5 29 10.276 29 10V8C29 7.724 28.7765 7.5 28.5 7.5ZM11 8.33984V14.6602C9.82 14.1002 9 12.895 9 11.5C9 10.105 9.82 8.89984 11 8.33984ZM14 8.33984C15.18 8.89984 16 10.105 16 11.5C16 12.895 15.18 14.1002 14 14.6602V8.33984ZM4.73242 8.50098C4.5418 8.4721 4.34883 8.55598 4.23633 8.75098C4.08633 9.01048 4.18092 9.29509 4.41992 9.43359L5.28516 9.93359C5.36466 9.97959 5.43834 10.0211 5.52734 10.0146C5.70734 10.0031 5.86875 9.92398 5.96875 9.75098C6.11875 9.49098 6.02466 9.20538 5.78516 9.06738L4.91992 8.56738C4.86005 8.53288 4.79596 8.5106 4.73242 8.50098ZM4 11C3.724 11 3.5 11.2 3.5 11.5C3.5 11.8 3.724 12 4 12H5C5.276 12 5.5 11.8 5.5 11.5C5.5 11.2 5.2765 11 5 11H4ZM5.47266 13.001C5.40912 13.0106 5.34601 13.0329 5.28613 13.0674L4.41992 13.5674C4.18042 13.7054 4.08633 13.99 4.23633 14.25C4.33633 14.423 4.49773 14.5031 4.67773 14.5146C4.76623 14.5211 4.83992 14.4786 4.91992 14.4326L5.78516 13.9326C6.02466 13.7946 6.11875 13.51 5.96875 13.25C5.85625 13.055 5.66327 12.9721 5.47266 13.001ZM7.05273 14.4629C6.85642 14.4371 6.67088 14.5342 6.56738 14.7139L6.06738 15.5801C5.92938 15.8196 5.99 16.1127 6.25 16.2627C6.3365 16.3127 6.43452 16.3426 6.49902 16.3311C6.67252 16.3311 6.84062 16.2396 6.93262 16.0801L7.43262 15.2139C7.57112 14.9749 7.51 14.6812 7.25 14.5312C7.185 14.4937 7.11817 14.4715 7.05273 14.4629ZM5.39941 18.751C6.31491 19.2225 7.3343 19.5304 8.4248 19.6299L8.48535 19.6348C9.33035 19.7148 10.1804 19.7548 11.0254 19.7598C11.1404 20.4098 11.6702 20.9102 12.3252 20.9902L13.9102 27.9648C14.0352 28.5198 14.3148 29.0198 14.7148 29.4248L15.0898 29.7949C15.1248 29.8349 15.1352 29.8748 15.1152 29.9248C15.0952 29.9748 15.055 30 15 30H12.3848C11.4298 30 10.5448 29.445 10.1348 28.585L5.39941 18.751ZM14.5166 19.6006C14.5196 19.6151 14.517 19.6291 14.5215 19.6436L15.6348 23.3564C15.6808 23.5094 15.6526 23.6699 15.5576 23.7979C15.4621 23.9264 15.3158 24 15.1562 24H14.0352L13.2998 20.7598C13.6748 20.5248 13.9402 20.1253 13.9902 19.6553C14.1662 19.6408 14.3411 19.6181 14.5166 19.6006Z" fill="#D9AFA5"/>
</svg>
