<svg width="32" height="32" viewBox="0 0 32 32" fill="none" xmlns="http://www.w3.org/2000/svg">
<path d="M14.0938 1.05865C13.9648 1.0567 13.8359 1.10357 13.7363 1.19928L12.2969 2.5899C12.0996 2.78131 12.0938 3.09771 12.2871 3.29693C12.3848 3.39654 12.5137 3.44928 12.6465 3.44928C12.7715 3.44928 12.8965 3.4024 12.9922 3.30865L14.4316 1.91803C14.6309 1.72662 14.6348 1.41021 14.4434 1.211C14.3477 1.11334 14.2207 1.06256 14.0938 1.05865ZM7.86523 3.00006C6.76758 3.00006 5.79687 3.35162 5.20312 3.9649L5.14453 4.0235C4.42969 4.75396 2.75391 6.46686 2.75391 9.83209C2.75391 12.7208 4.4707 15.5118 5.49219 16.92L5.53125 16.9708C5.55469 17.002 5.5957 17.0626 5.65625 17.1504C8.90234 21.8848 12.9141 25.42 16.957 27.1036C20.5449 28.5997 22.4434 28.9981 23.7422 28.9981C24.291 28.9981 24.7324 28.9278 25.1504 28.8379C27.0137 28.4337 29.3262 27.0626 29.9395 25.3145C30.4395 23.8946 30.5938 22.2969 30.2871 21.7579C30.084 21.3985 29.709 21.2169 29.1895 20.9649C29.0762 20.9102 28.9531 20.8516 28.8203 20.7833C28.7812 20.7637 24.9824 18.8614 24.2812 18.6172C23.4004 18.2813 22.6191 18.5196 22.0801 19.2872L21.8047 19.6778C21.2715 20.4297 20.7676 21.1407 20.3594 21.5821C20.0996 21.8614 19.6543 21.8497 19.3301 21.7149L19.1211 21.629C18.248 21.2735 16.4316 20.5352 14.1855 18.5235C12.3887 16.9141 11.0996 14.8731 10.6309 14.0762C10.4355 13.7403 10.5176 13.6192 10.8516 13.2247C11.0312 13.0001 11.207 12.8126 11.3828 12.6251C11.5293 12.4708 11.6738 12.3165 11.8203 12.1446L11.8887 12.0684C12.1836 11.7227 12.3965 11.4747 12.6152 11.0079C12.9824 10.2891 12.6406 9.57428 12.5293 9.33795C12.418 9.10553 11.6465 7.22271 11.084 5.84771L10.5137 4.45709L10.5117 4.45514C9.98047 3.17389 9.44922 3.06061 8.64844 3.0274C8.41602 3.01373 8.1543 3.00006 7.86523 3.00006ZM17.3672 3.7735C17.3027 3.7735 17.2363 3.78522 17.1719 3.81061L14.3906 4.93365C14.1328 5.03717 14.0117 5.33014 14.1152 5.586C14.1934 5.78131 14.3809 5.8985 14.5781 5.8985C14.6406 5.8985 14.7031 5.88678 14.7656 5.86139L17.5469 4.73834C17.8027 4.63482 17.9258 4.34381 17.8223 4.086C17.7461 3.89459 17.5625 3.7774 17.3672 3.7735ZM8.04297 4.00397C8.24023 4.00787 8.42578 4.01568 8.59961 4.02545C9.14844 4.04889 9.26367 4.05279 9.58789 4.836L10.1582 6.22662C10.9199 8.08795 11.5117 9.52936 11.625 9.76764C11.7949 10.1231 11.8242 10.3575 11.7188 10.5684C11.5488 10.9278 11.4082 11.0899 11.1309 11.4141L11.1074 11.4434L8.04297 4.00397ZM7.01758 4.09381C7.02539 4.12701 7.02344 4.16022 7.03711 4.19147L10.3594 12.2598C10.2637 12.3672 10.166 12.4805 10.0625 12.6075C9.74414 12.9844 9.20898 13.6153 9.76562 14.5782C10.3789 15.6251 11.6836 17.627 13.5176 19.2696C15.8926 21.3965 17.8906 22.209 18.7422 22.5547L18.9434 22.6387C19.7305 22.9669 20.5742 22.8204 21.0938 22.2618C21.3809 21.9512 21.6992 21.5333 22.0312 21.0762L29.1113 24.6153C29.0762 24.7364 29.041 24.8575 28.9961 24.9844C28.5273 26.3184 26.5254 27.5157 24.9395 27.8594C23.9453 28.0723 22.5801 28.3653 17.3418 26.1797C13.4766 24.5684 9.61914 21.1622 6.48242 16.586C6.4082 16.4786 6.35547 16.4044 6.33594 16.377L6.30273 16.3301C5.35156 15.0215 3.75391 12.4376 3.75391 9.83014C3.75391 6.87311 5.17578 5.41998 5.85937 4.72272L5.91992 4.66022C6.17383 4.3985 6.56055 4.20318 7.01758 4.09381ZM14.8906 8.00201C14.6133 8.00201 14.3906 8.22662 14.3906 8.50201C14.3906 8.77936 14.6133 9.00201 14.8906 9.00201H16.8906C17.166 9.00201 17.3906 8.77936 17.3906 8.50201C17.3906 8.22662 17.166 8.00201 16.8906 8.00201H14.8906ZM8.82422 15.3301C8.75977 15.3379 8.69531 15.3594 8.63672 15.3946C8.39844 15.5352 8.31836 15.8419 8.45898 16.0782C8.62305 16.3594 8.91602 16.7891 9.24414 17.2305C9.3418 17.3633 9.49414 17.4317 9.64648 17.4317C9.75 17.4317 9.85352 17.4004 9.94336 17.334C10.166 17.17 10.2129 16.8555 10.0469 16.6348C9.5918 16.0196 9.37695 15.6661 9.32031 15.5723C9.2168 15.3926 9.01758 15.3047 8.82422 15.3301ZM11.0312 18.1016C10.9023 18.0938 10.7715 18.1348 10.6699 18.2266C10.4629 18.4083 10.4434 18.7247 10.627 18.9317C11.2051 19.584 11.7949 20.1817 12.3809 20.7051C13.7539 21.9356 15.1348 22.9122 16.4863 23.6075C16.5586 23.6446 16.6387 23.6622 16.7148 23.6622C16.8965 23.6622 17.0703 23.5645 17.1582 23.3907C17.2871 23.1465 17.1895 22.8438 16.9453 22.7188C15.668 22.0606 14.3574 21.1329 13.0469 19.961C12.4902 19.461 11.9277 18.8926 11.375 18.2676C11.2832 18.1661 11.1582 18.1075 11.0312 18.1016ZM23.4766 19.4708C23.6133 19.461 23.7637 19.4903 23.9375 19.5547C24.4746 19.7422 27.416 21.1973 28.3672 21.6778C28.5059 21.7462 28.6348 21.8087 28.7539 21.8672C29.0273 21.9981 29.3672 22.1622 29.4062 22.2266C29.459 22.3692 29.4727 22.8946 29.3516 23.6172L22.623 20.252L22.8984 19.8653C23.0703 19.6192 23.252 19.4903 23.4766 19.4708Z" fill="#D9AFA5"/>
</svg>
