<svg width="32" height="32" viewBox="0 0 32 32" fill="none" xmlns="http://www.w3.org/2000/svg">
<path d="M6.46875 4.00018C5.10238 4.01691 4 5.12956 4 6.50018V7.50018C3.9995 7.80568 4.10073 8.17118 4.24023 8.50018C4.36773 8.80068 4.56852 9.06393 4.81152 9.28143C4.88452 9.34643 4.95944 9.41291 5.02344 9.46991C5.13294 9.56741 5.25036 9.65829 5.38086 9.72479C6.15136 10.1173 7.07629 10.0841 7.82129 9.62714C8.27579 9.32714 8.50012 9.00054 8.64062 8.79804C8.87563 8.40654 9.002 7.95818 9 7.50018V6.60761C9 5.30161 8.04512 4.1359 6.74512 4.0119C6.65193 4.00303 6.55984 3.99907 6.46875 4.00018ZM25.5303 4.00018C25.4392 3.99907 25.3471 4.00303 25.2539 4.0119C23.9544 4.1359 23 5.30161 23 6.60761V7.50018C22.998 7.95818 23.1244 8.40654 23.3594 8.79804C23.4999 9.00054 23.7247 9.32714 24.1787 9.62714C24.9237 10.0841 25.8486 10.1173 26.6191 9.72479C26.7496 9.65829 26.8661 9.56741 26.9756 9.46991C27.0396 9.41291 27.1155 9.34643 27.1885 9.28143C27.4315 9.06393 27.6323 8.80068 27.7598 8.50018C27.8998 8.17118 27.9995 7.80568 27.999 7.50018V6.50018C27.999 5.12956 26.8966 4.01691 25.5303 4.00018ZM6.5 5.00018C7.3285 5.00018 8 5.67168 8 6.50018V7.50018C8 8.32868 7.3285 9.00018 6.5 9.00018C5.6715 9.00018 5 8.32868 5 7.50018V6.50018C5 5.67168 5.6715 5.00018 6.5 5.00018ZM25.5 5.00018C26.3285 5.00018 27 5.67168 27 6.50018V7.50018C27 8.32868 26.3285 9.00018 25.5 9.00018C24.6715 9.00018 24 8.32868 24 7.50018V6.50018C24 5.67168 24.6715 5.00018 25.5 5.00018ZM2.5 7.00018C2.224 7.00018 2 7.22418 2 7.50018V18.0002C2 19.8566 3.01934 21.4766 4.52539 22.3391L2.03906 28.3068C1.93306 28.5618 2.05262 28.8551 2.30762 28.9611C2.37062 28.9876 2.436 29.0002 2.5 29.0002C2.6955 29.0002 2.88141 28.8851 2.96191 28.6926L5.43945 22.7473C5.93104 22.9093 6.45485 23.0002 7 23.0002H9.07617L8.50684 26.4182C8.48284 26.5632 8.52316 26.7109 8.61816 26.8234C8.71316 26.9359 8.853 27.0002 9 27.0002H11V28.5002C11 28.7762 11.224 29.0002 11.5 29.0002C11.776 29.0002 12 28.7762 12 28.5002V27.0002H20V28.5002C20 28.7762 20.224 29.0002 20.5 29.0002C20.776 29.0002 21 28.7762 21 28.5002V27.0002H23C23.147 27.0002 23.2868 26.9359 23.3818 26.8234C23.4768 26.7109 23.5172 26.5632 23.4932 26.4182L22.9238 23.0002H25C25.5451 23.0002 26.069 22.9093 26.5605 22.7473L29.0381 28.6926C29.1176 28.8846 29.304 29.0002 29.5 29.0002C29.564 29.0002 29.6294 28.9881 29.6924 28.9611C29.9474 28.8546 30.0679 28.5618 29.9619 28.3068L27.4746 22.3381C28.9804 21.4755 30 19.8564 30 18.0002V7.50018C30 7.22418 29.776 7.00018 29.5 7.00018C29.224 7.00018 29 7.22418 29 7.50018V18.0002C29 20.2057 27.2055 22.0002 25 22.0002H22.7568L22.5898 21.0002H24.5C26.43 21.0002 28 19.4302 28 17.5002V13.5002C28 12.7972 27.7016 12.1236 27.1816 11.6506C26.6616 11.1781 25.9603 10.9439 25.2568 11.0119C23.9913 11.1324 23 12.2631 23 13.5861V16.0002H21.7812C21.7729 16.0002 21.766 16.0047 21.7578 16.0051L21.4932 14.4182C21.4532 14.1777 21.2445 14.0002 21 14.0002H11C10.7555 14.0002 10.5468 14.1777 10.5068 14.4182L10.2432 16.0002H9V13.5861C9 12.2631 8.00866 11.1324 6.74316 11.0119C6.04016 10.9439 5.33836 11.1781 4.81836 11.6506C4.29836 12.1236 4 12.7972 4 13.5002V17.5002C4 19.4302 5.57 21.0002 7.5 21.0002H9.41016L9.24316 22.0002H7C4.7945 22.0002 3 20.2057 3 18.0002V7.50018C3 7.22418 2.776 7.00018 2.5 7.00018ZM25.3516 12.007C25.7791 11.9655 26.1918 12.1018 26.5088 12.3898C26.8208 12.6738 27 13.0787 27 13.5002V17.5002C27 18.8787 25.8785 20.0002 24.5 20.0002H22.4238L21.9238 17.0002H23C23.5515 17.0002 24 16.5517 24 16.0002V13.5861C24 12.7731 24.5936 12.0795 25.3516 12.007ZM6.64941 12.008C7.40691 12.08 8 12.7731 8 13.5861V16.0002C8 16.5517 8.4485 17.0002 9 17.0002H10.0762L9.57617 20.0002H7.5C6.1215 20.0002 5 18.8787 5 17.5002V13.5002C5 13.0787 5.17871 12.6733 5.49121 12.3898C5.80771 12.1018 6.22041 11.9665 6.64941 12.008ZM11.4238 15.0002H20.5762L22.4102 26.0002H9.59082L11.4238 15.0002ZM12 23.0002C11.724 23.0002 11.5 23.2242 11.5 23.5002V24.5002C11.5 24.7762 11.724 25.0002 12 25.0002C12.276 25.0002 12.5 24.7762 12.5 24.5002V23.5002C12.5 23.2242 12.276 23.0002 12 23.0002ZM14.5 23.0002C14.224 23.0002 14 23.2242 14 23.5002V24.5002C14 24.7762 14.224 25.0002 14.5 25.0002C14.776 25.0002 15 24.7762 15 24.5002V23.5002C15 23.2242 14.776 23.0002 14.5 23.0002ZM17 23.0002C16.724 23.0002 16.5 23.2242 16.5 23.5002V24.5002C16.5 24.7762 16.724 25.0002 17 25.0002C17.276 25.0002 17.5 24.7762 17.5 24.5002V23.5002C17.5 23.2242 17.276 23.0002 17 23.0002ZM19.5 23.0002C19.224 23.0002 19 23.2242 19 23.5002V24.5002C19 24.7762 19.224 25.0002 19.5 25.0002C19.776 25.0002 20 24.7762 20 24.5002V23.5002C20 23.2242 19.776 23.0002 19.5 23.0002Z" fill="#D9AFA5"/>
</svg>
