<svg width="32" height="32" viewBox="0 0 32 32" fill="none" xmlns="http://www.w3.org/2000/svg">
<path d="M2.5 4C1.65039 4 1 4.65039 1 5.5V25.5C1 26.3496 1.65039 27 2.5 27H5V28C5 28.5508 5.44922 29 6 29H8C8.55078 29 9 28.5508 9 28V27H23V28C23 28.5508 23.4492 29 24 29H26C26.5508 29 27 28.5508 27 28V27H29.5C30.3496 27 31 26.3496 31 25.5V5.5C31 4.65039 30.3496 4 29.5 4H2.5ZM2.5 5H29.5C29.8008 5 30 5.19922 30 5.5V25.5C30 25.8008 29.8008 26 29.5 26H2.5C2.19922 26 2 25.8008 2 25.5V5.5C2 5.19922 2.19922 5 2.5 5ZM5.5 7C4.65039 7 4 7.65039 4 8.5V22.5C4 23.3496 4.65039 24 5.5 24H26.5C27.3496 24 28 23.3496 28 22.5V22C28 21.6992 27.8008 21.5 27.5 21.5C27.1992 21.5 27 21.6992 27 22V22.5C27 22.8008 26.8008 23 26.5 23H5.5C5.19922 23 5 22.8008 5 22.5V8.5C5 8.19922 5.19922 8 5.5 8H26.5C26.8008 8 27 8.19922 27 8.5V9C27 9.30078 27.1992 9.5 27.5 9.5C27.8008 9.5 28 9.30078 28 9V8.5C28 7.65039 27.3496 7 26.5 7H5.5ZM27 10C26.4492 10 26 10.4492 26 11V13C26 13.5508 26.4492 14 27 14H28C28.5508 14 29 13.5508 29 13V11C29 10.4492 28.5508 10 28 10H27ZM16 10.5C13.25 10.5 11 12.75 11 15.5C11 18.25 13.25 20.5 16 20.5C18.75 20.5 21 18.25 21 15.5C21 12.75 18.75 10.5 16 10.5ZM6.5 11C6.19922 11 6 11.1992 6 11.5V19.5C6 19.8008 6.19922 20 6.5 20C6.80078 20 7 19.8008 7 19.5V11.5C7 11.1992 6.80078 11 6.5 11ZM27 11H28V13H27V11ZM16 11.4004C18.25 11.4004 20.0996 13.25 20.0996 15.5C20.0996 17.75 18.25 19.5996 16 19.5996C13.75 19.5996 11.9004 17.75 11.9004 15.5C11.9004 13.25 13.75 11.4004 16 11.4004ZM16 12C15.6992 12 15.5 12.1992 15.5 12.5V13.4004C15.5 13.7012 15.6992 13.9004 16 13.9004C16.3008 13.9004 16.5 13.7012 16.5 13.4004V12.5C16.5 12.1992 16.3008 12 16 12ZM13.9004 12.8496C13.7754 12.8496 13.6504 12.9004 13.5488 13C13.3496 13.1992 13.3496 13.5 13.5488 13.7012L14.2012 14.3496C14.3008 14.4492 14.4492 14.5 14.5488 14.5C14.6504 14.5 14.8008 14.4492 14.9004 14.3496C15.0996 14.1504 15.0996 13.8496 14.9004 13.6504L14.25 13C14.1504 12.9004 14.0254 12.8496 13.9004 12.8496ZM18.1504 12.8496C18.0254 12.8496 17.9004 12.9004 17.7988 13L17.1504 13.6504C16.9512 13.8496 16.9512 14.1504 17.1504 14.3496C17.25 14.4492 17.3496 14.5 17.5 14.5C17.6504 14.5 17.75 14.4492 17.8496 14.3496L18.5 13.7012C18.6992 13.5 18.6992 13.1992 18.5 13C18.4004 12.9004 18.2754 12.8496 18.1504 12.8496ZM27.5 14.5C27.1992 14.5 27 14.6992 27 15V16C27 16.3008 27.1992 16.5 27.5 16.5C27.8008 16.5 28 16.3008 28 16V15C28 14.6992 27.8008 14.5 27.5 14.5ZM13 15C12.6992 15 12.5 15.1992 12.5 15.5C12.5 15.8008 12.6992 16 13 16H13.9004C14.2012 16 14.4004 15.8008 14.4004 15.5C14.4004 15.1992 14.2012 15 13.9004 15H13ZM18.0996 15C17.7988 15 17.5996 15.1992 17.5996 15.5C17.5996 15.8008 17.7988 16 18.0996 16H19C19.3008 16 19.5 15.8008 19.5 15.5C19.5 15.1992 19.3008 15 19 15H18.0996ZM17.4512 16.4004C17.3262 16.4004 17.1992 16.4492 17.0996 16.5488C16.9004 16.75 16.9004 17.0508 17.0996 17.25L17.75 17.9004C17.8496 18 18 18.0488 18.0996 18.0488C18.1992 18.0488 18.3496 18 18.4512 17.9004C18.6504 17.7012 18.6504 17.4004 18.4512 17.2012L17.7988 16.5488C17.6992 16.4492 17.5762 16.4004 17.4512 16.4004ZM14.5488 16.4512C14.4238 16.4512 14.3008 16.5 14.2012 16.5996L13.5488 17.25C13.3496 17.4492 13.3496 17.75 13.5488 17.9512C13.6504 18.0508 13.8008 18.0996 13.9004 18.0996C14 18.0996 14.1504 18.0508 14.25 17.9512L14.9004 17.2988C15.0996 17.0996 15.0996 16.7988 14.9004 16.5996C14.8008 16.5 14.6738 16.4512 14.5488 16.4512ZM16 17C15.6992 17 15.5 17.1992 15.5 17.5V18.4004C15.5 18.7012 15.6992 18.9004 16 18.9004C16.3008 18.9004 16.5 18.7012 16.5 18.4004V17.5C16.5 17.1992 16.3008 17 16 17ZM27 17C26.4492 17 26 17.4492 26 18V20C26 20.5508 26.4492 21 27 21H28C28.5508 21 29 20.5508 29 20V18C29 17.4492 28.5508 17 28 17H27ZM27 18H28V20H27V18ZM6 27H8V28H6V27ZM24 27H26V28H24V27Z" fill="#D9AFA5"/>
</svg>
