<svg width="32" height="32" viewBox="0 0 32 32" fill="none" xmlns="http://www.w3.org/2000/svg">
<path d="M10.9988 0.5C10.9463 0.5 10.8936 0.502789 10.8406 0.508789C10.4441 0.550289 10.0863 0.744641 9.83378 1.05664C9.58178 1.36814 9.46609 1.7597 9.50859 2.1582L9.91288 6H8.16093C7.72393 6 7.30921 6.18998 7.02421 6.52148C6.73921 6.85248 6.6126 7.29024 6.6746 7.69824L8.7498 28.3711C8.9353 29.6041 9.97448 30.5 11.2215 30.5H20.7771C22.0241 30.5 23.0642 29.6047 23.2527 28.3467L25.3221 7.72266C25.3871 7.29066 25.2604 6.85248 24.9754 6.52148C24.7734 6.28648 24.5062 6.12238 24.2117 6.04688C24.1477 6.01687 24.0753 6 23.9998 6H12.9285L12.491 1.84277C12.411 1.07727 11.7693 0.5 10.9988 0.5ZM10.9988 1.5C11.2468 1.5 11.4699 1.69027 11.4969 1.94727L11.9236 6H10.9187L10.5027 2.05176C10.4732 1.77726 10.673 1.53193 10.948 1.50293C10.965 1.50143 10.9818 1.5 10.9988 1.5ZM8.16093 7H10.0174L10.9656 16H8.51249L7.66679 7.57422C7.64479 7.42822 7.68602 7.28583 7.78202 7.17383C7.87902 7.06183 8.01293 7 8.16093 7ZM11.0232 7H12.0281L13.7644 23.4912C13.7939 23.7657 13.5941 24.012 13.3191 24.041C13.3016 24.043 13.2839 24.0439 13.2664 24.0439C13.0134 24.0439 12.7973 23.8527 12.7703 23.5957L11.0232 7ZM13.034 7H23.8387C23.9867 7 24.1206 7.06133 24.2176 7.17383C24.3136 7.28583 24.3544 7.42813 24.3299 7.59863L23.4871 16H15.4998C15.2233 16 14.9998 16.2235 14.9998 16.5C14.9998 16.7765 15.2233 17 15.4998 17H23.3865L22.2605 28.2227C22.1495 28.9632 21.5261 29.5 20.7781 29.5H11.2215C10.4735 29.5 9.84998 28.9631 9.74198 28.2471L8.61308 17H11.0701L11.7762 23.7012C11.8562 24.4667 12.4964 25.0439 13.2664 25.0439C13.3209 25.0439 13.375 25.0412 13.4295 25.0352C13.8225 24.9942 14.1814 24.7993 14.4334 24.4873C14.6854 24.1758 14.8011 23.7842 14.7586 23.3857L13.034 7ZM10.9998 26.5C10.7233 26.5 10.4998 26.7235 10.4998 27V28C10.4998 28.2765 10.7233 28.5 10.9998 28.5C11.2763 28.5 11.4998 28.2765 11.4998 28V27C11.4998 26.7235 11.2763 26.5 10.9998 26.5ZM13.4998 26.5C13.2233 26.5 12.9998 26.7235 12.9998 27V28C12.9998 28.2765 13.2233 28.5 13.4998 28.5C13.7763 28.5 13.9998 28.2765 13.9998 28V27C13.9998 26.7235 13.7763 26.5 13.4998 26.5ZM15.9998 26.5C15.7233 26.5 15.4998 26.7235 15.4998 27V28C15.4998 28.2765 15.7233 28.5 15.9998 28.5C16.2763 28.5 16.4998 28.2765 16.4998 28V27C16.4998 26.7235 16.2763 26.5 15.9998 26.5ZM18.4998 26.5C18.2233 26.5 17.9998 26.7235 17.9998 27V28C17.9998 28.2765 18.2233 28.5 18.4998 28.5C18.7763 28.5 18.9998 28.2765 18.9998 28V27C18.9998 26.7235 18.7763 26.5 18.4998 26.5ZM20.9998 26.5C20.7233 26.5 20.4998 26.7235 20.4998 27V28C20.4998 28.2765 20.7233 28.5 20.9998 28.5C21.2763 28.5 21.4998 28.2765 21.4998 28V27C21.4998 26.7235 21.2763 26.5 20.9998 26.5Z" fill="#D9AFA5"/>
</svg>
