<svg width="32" height="32" viewBox="0 0 32 32" fill="none" xmlns="http://www.w3.org/2000/svg">
<path d="M1.5 7C0.673828 7 0 7.67383 0 8.5C0 9.32617 0.673828 10 1.5 10H2.92773L0.582031 27.3672C0.542969 27.6523 0.628906 27.9395 0.820312 28.1562C1.00977 28.375 1.2832 28.5 1.57227 28.5H2.61328C3.06836 28.5 3.4668 28.1914 3.58203 27.75L5.84961 19H20.5C20.7773 19 21 18.7754 21 18.5C21 18.2246 20.7773 18 20.5 18H6.10938L6.78906 15.375C6.8457 15.1543 7.04688 15 7.27344 15H24.7266C24.9531 15 25.1543 15.1543 25.2109 15.375L28.4199 27.75C28.5332 28.1914 28.9316 28.5 29.3867 28.5H30.4277C30.7168 28.5 30.9902 28.375 31.1797 28.1582C31.3711 27.9414 31.457 27.6523 31.4199 27.3672L29.0723 10H30.5C31.3262 10 32 9.32617 32 8.5C32 7.67383 31.3262 7 30.5 7H1.5ZM1.5 8H30.5C30.7754 8 31 8.22461 31 8.5C31 8.77539 30.7754 9 30.5 9H1.5C1.22461 9 1 8.77539 1 8.5C1 8.22461 1.22461 8 1.5 8ZM3.9375 10H28.0625L28.2109 11.1016C28.0859 11.1934 28 11.334 28 11.5V12.5C28 12.7637 28.207 12.9766 28.4688 12.9922L30.4277 27.5H29.3867L26.1777 15.123C26.0059 14.4609 25.4082 14 24.7266 14H7.27344C6.5918 14 5.99414 14.4609 5.82227 15.123L2.61328 27.5H1.57227L3.53125 12.9922C3.79297 12.9766 4 12.7637 4 12.5V11.5C4 11.334 3.91406 11.1934 3.78906 11.1016L3.9375 10ZM6 11C5.72266 11 5.5 11.2246 5.5 11.5V12.5C5.5 12.7754 5.72266 13 6 13C6.27734 13 6.5 12.7754 6.5 12.5V11.5C6.5 11.2246 6.27734 11 6 11ZM8.5 11C8.22266 11 8 11.2246 8 11.5V12.5C8 12.7754 8.22266 13 8.5 13C8.77734 13 9 12.7754 9 12.5V11.5C9 11.2246 8.77734 11 8.5 11ZM11 11C10.7227 11 10.5 11.2246 10.5 11.5V12.5C10.5 12.7754 10.7227 13 11 13C11.2773 13 11.5 12.7754 11.5 12.5V11.5C11.5 11.2246 11.2773 11 11 11ZM13.5 11C13.2227 11 13 11.2246 13 11.5V12.5C13 12.7754 13.2227 13 13.5 13C13.7773 13 14 12.7754 14 12.5V11.5C14 11.2246 13.7773 11 13.5 11ZM16 11C15.7227 11 15.5 11.2246 15.5 11.5V12.5C15.5 12.7754 15.7227 13 16 13C16.2773 13 16.5 12.7754 16.5 12.5V11.5C16.5 11.2246 16.2773 11 16 11ZM18.5 11C18.2227 11 18 11.2246 18 11.5V12.5C18 12.7754 18.2227 13 18.5 13C18.7773 13 19 12.7754 19 12.5V11.5C19 11.2246 18.7773 11 18.5 11ZM21 11C20.7227 11 20.5 11.2246 20.5 11.5V12.5C20.5 12.7754 20.7227 13 21 13C21.2773 13 21.5 12.7754 21.5 12.5V11.5C21.5 11.2246 21.2773 11 21 11ZM23.5 11C23.2227 11 23 11.2246 23 11.5V12.5C23 12.7754 23.2227 13 23.5 13C23.7773 13 24 12.7754 24 12.5V11.5C24 11.2246 23.7773 11 23.5 11ZM26 11C25.7227 11 25.5 11.2246 25.5 11.5V12.5C25.5 12.7754 25.7227 13 26 13C26.2773 13 26.5 12.7754 26.5 12.5V11.5C26.5 11.2246 26.2773 11 26 11ZM22.5 18C22.2227 18 22 18.2246 22 18.5C22 18.7754 22.2227 19 22.5 19H24.5C24.7773 19 25 18.7754 25 18.5C25 18.2246 24.7773 18 24.5 18H22.5Z" fill="#D9AFA5"/>
</svg>
