<svg width="32" height="32" viewBox="0 0 32 32" fill="none" xmlns="http://www.w3.org/2000/svg">
<path d="M7 2C5.695 2 4.5798 2.835 4.1748 4H1.5C0.675 4 0 4.675 0 5.5C0 6.325 0.675 7 1.5 7H4V20.54C4 21.37 4.675 22.04 5.5 22.04H8V28.5C8 29.325 8.675 30 9.5 30H26.5C27.325 30 28 29.325 28 28.5V7H30.5C31.325 7 32 6.325 32 5.5C32 4.675 31.325 4 30.5 4H27.9502C27.7202 2.86 26.71 2 25.5 2H7ZM7 3H23.5C23.28 3.29 23.1247 3.63 23.0547 4C23.0147 4.16 23 4.33 23 4.5V12.2207L22.4365 12.6709C21.8905 13.1084 21.1301 13.1121 20.5801 12.6846L20.5615 12.6699C19.6425 11.9344 18.3575 11.9344 17.4385 12.6699L17.4258 12.6807C16.8813 13.1087 16.1271 13.11 15.5811 12.6855L15.5615 12.6709C14.6425 11.9354 13.3585 11.9354 12.4395 12.6709L12.4258 12.6807C11.8813 13.1087 11.1271 13.11 10.5811 12.6855L10.5625 12.6709C9.6435 11.9354 8.35845 11.9354 7.43945 12.6709L7.42676 12.6816C6.87626 13.1141 6.11295 13.1104 5.56445 12.6719L5 12.2207V5C5 4.635 5.09953 4.295 5.26953 4C5.61453 3.4 6.26 3 7 3ZM25.5 3C26.15 3 26.7052 3.42 26.9102 4H24.0898C24.2948 3.42 24.85 3 25.5 3ZM6.5 4C6.2235 4 6 4.2235 6 4.5V5.5C6 5.7765 6.2235 6 6.5 6C6.7765 6 7 5.7765 7 5.5V4.5C7 4.2235 6.7765 4 6.5 4ZM9 4C8.7235 4 8.5 4.2235 8.5 4.5V5.5C8.5 5.7765 8.7235 6 9 6C9.2765 6 9.5 5.7765 9.5 5.5V4.5C9.5 4.2235 9.2765 4 9 4ZM11.5 4C11.2235 4 11 4.2235 11 4.5V5.5C11 5.7765 11.2235 6 11.5 6C11.7765 6 12 5.7765 12 5.5V4.5C12 4.2235 11.7765 4 11.5 4ZM14 4C13.7235 4 13.5 4.2235 13.5 4.5V5.5C13.5 5.7765 13.7235 6 14 6C14.2765 6 14.5 5.7765 14.5 5.5V4.5C14.5 4.2235 14.2765 4 14 4ZM16.5 4C16.2235 4 16 4.2235 16 4.5V5.5C16 5.7765 16.2235 6 16.5 6C16.7765 6 17 5.7765 17 5.5V4.5C17 4.2235 16.7765 4 16.5 4ZM19 4C18.7235 4 18.5 4.2235 18.5 4.5V5.5C18.5 5.7765 18.7235 6 19 6C19.2765 6 19.5 5.7765 19.5 5.5V4.5C19.5 4.2235 19.2765 4 19 4ZM21.5 4C21.2235 4 21 4.2235 21 4.5V5.5C21 5.7765 21.2235 6 21.5 6C21.7765 6 22 5.7765 22 5.5V4.5C22 4.2235 21.7765 4 21.5 4ZM1.5 5H4V6H1.5C1.225 6 1 5.775 1 5.5C1 5.225 1.225 5 1.5 5ZM24 5H27.5H30.5C30.775 5 31 5.225 31 5.5C31 5.775 30.775 6 30.5 6H28H24V5ZM24 7H27V28.5C27 28.775 26.775 29 26.5 29H9.5C9.225 29 9 28.775 9 28.5V28H21.5C21.7765 28 22 27.7765 22 27.5C22 27.2235 21.7765 27 21.5 27H9V22.04H22.5C23.325 22.04 24 21.37 24 20.54V7ZM13.9961 13.1191C14.3212 13.1185 14.6467 13.2243 14.9199 13.4365L14.9365 13.4512C15.8565 14.1867 17.1405 14.1867 18.0605 13.4512L18.0723 13.4414C18.6188 13.0129 19.3729 13.012 19.9189 13.4365L19.9365 13.4502C20.3965 13.8177 20.9465 14.0029 21.498 14.0029C22.0255 14.0029 22.551 13.8292 22.998 13.4922V14.7188L22.4355 15.1699C21.8895 15.6079 21.1291 15.6111 20.5791 15.1836L20.5596 15.1689C19.6406 14.4334 18.3555 14.4334 17.4365 15.1689L17.4238 15.1787C16.8793 15.6057 16.1251 15.6076 15.5791 15.1836L15.5605 15.1689C14.6415 14.4334 13.3565 14.4334 12.4375 15.1689L12.4248 15.1787C11.8803 15.6057 11.1261 15.6076 10.5801 15.1836L10.5605 15.1689C9.64155 14.4334 8.35748 14.4334 7.43848 15.1689L7.4248 15.1787C6.8743 15.6102 6.11102 15.6074 5.56152 15.1689L5 14.7207V13.4932C5.915 14.1817 7.16152 14.1716 8.06152 13.4521L8.07324 13.4424C8.61974 13.0139 9.37392 13.013 9.91992 13.4375L9.9375 13.4512C10.8575 14.1867 12.1415 14.1867 13.0615 13.4512L13.0732 13.4414C13.3462 13.2272 13.671 13.1198 13.9961 13.1191ZM13.9961 15.6191C14.3212 15.6184 14.6467 15.724 14.9199 15.9365L14.9365 15.9512C15.8565 16.6867 17.1405 16.6867 18.0605 15.9512L18.0723 15.9414C18.6188 15.5134 19.3729 15.5115 19.9189 15.9365L19.9365 15.9502C20.3965 16.3177 20.9465 16.5029 21.498 16.5029C22.025 16.5029 22.5505 16.3292 22.998 15.9922V20.5381C22.998 20.8131 22.773 21.0381 22.498 21.0381H9H8V21.04H5.5C5.225 21.04 5 20.815 5 20.54V15.9932C5.915 16.6817 7.16152 16.6716 8.06152 15.9521L8.07324 15.9424C8.61974 15.5144 9.37392 15.5125 9.91992 15.9375L9.9375 15.9512C10.8575 16.6867 12.1415 16.6867 13.0615 15.9512L13.0732 15.9414C13.3462 15.7274 13.671 15.6199 13.9961 15.6191ZM23.5 27C23.2235 27 23 27.2235 23 27.5C23 27.7765 23.2235 28 23.5 28H25.5C25.7765 28 26 27.7765 26 27.5C26 27.2235 25.7765 27 25.5 27H23.5Z" fill="#D9AFA5"/>
</svg>
