<svg width="32" height="32" viewBox="0 0 32 32" fill="none" xmlns="http://www.w3.org/2000/svg">
<path d="M1.5 3.02539C0.675 3.02539 0 3.70039 0 4.52539V21.6348C0 22.4148 0.585469 23.0549 1.35547 23.1299L5.35547 23.5146C7.89047 23.7646 10.445 23.9202 13 23.9902V25.3203C12.85 25.3553 12.6998 25.3897 12.5498 25.4297L9.08984 26.3447C8.44984 26.5097 8 27.0946 8 27.7646C8 28.2196 8.21031 28.6448 8.57031 28.9248C8.93531 29.2048 9.39484 29.2947 9.83984 29.1797L12.6797 28.4297C14.8497 27.8547 17.1503 27.8547 19.3203 28.4297L22.1602 29.1797C22.2852 29.2097 22.415 29.2305 22.54 29.2305C22.855 29.2305 23.1697 29.1248 23.4297 28.9248C23.7897 28.6448 24 28.2198 24 27.7598C24 27.0948 23.5502 26.5097 22.9102 26.3447L19.4502 25.4297C19.3002 25.3897 19.15 25.3553 19 25.3203V23.9902C21.555 23.9202 24.1095 23.7646 26.6445 23.5146L30.6445 23.1299C31.4145 23.0549 32 22.4148 32 21.6348V4.52539C32 3.70039 31.325 3.02539 30.5 3.02539H1.5ZM1.5 4.02539H30.5C30.775 4.02539 31 4.25039 31 4.52539V12.0273C30.724 12.0273 30.5 12.2508 30.5 12.5273V13.5273C30.5 13.8038 30.724 14.0273 31 14.0273V20.0273H1V14.0273C1.276 14.0273 1.5 13.8038 1.5 13.5273V12.5273C1.5 12.2508 1.276 12.0273 1 12.0273V4.52539C1 4.25039 1.225 4.02539 1.5 4.02539ZM2.5 5.02734C2.224 5.02734 2 5.25084 2 5.52734C2 5.80384 2.224 6.02734 2.5 6.02734H25.5C25.776 6.02734 26 5.80334 26 5.52734C26 5.25084 25.776 5.02734 25.5 5.02734H2.5ZM27.5 5.02734C27.224 5.02734 27 5.25084 27 5.52734C27 5.80384 27.224 6.02734 27.5 6.02734H29.5C29.776 6.02734 30 5.80384 30 5.52734C30 5.25084 29.776 5.02734 29.5 5.02734H27.5ZM3.5 12.0273C3.224 12.0273 3 12.2508 3 12.5273V13.5273C3 13.8038 3.224 14.0273 3.5 14.0273C3.776 14.0273 4 13.8038 4 13.5273V12.5273C4 12.2508 3.776 12.0273 3.5 12.0273ZM6 12.0273C5.724 12.0273 5.5 12.2508 5.5 12.5273V13.5273C5.5 13.8038 5.724 14.0273 6 14.0273C6.276 14.0273 6.5 13.8038 6.5 13.5273V12.5273C6.5 12.2508 6.276 12.0273 6 12.0273ZM8.5 12.0273C8.224 12.0273 8 12.2508 8 12.5273V13.5273C8 13.8038 8.224 14.0273 8.5 14.0273C8.776 14.0273 9 13.8038 9 13.5273V12.5273C9 12.2508 8.776 12.0273 8.5 12.0273ZM11 12.0273C10.724 12.0273 10.5 12.2508 10.5 12.5273V13.5273C10.5 13.8038 10.724 14.0273 11 14.0273C11.276 14.0273 11.5 13.8038 11.5 13.5273V12.5273C11.5 12.2508 11.276 12.0273 11 12.0273ZM13.5 12.0273C13.224 12.0273 13 12.2508 13 12.5273V13.5273C13 13.8038 13.224 14.0273 13.5 14.0273C13.776 14.0273 14 13.8038 14 13.5273V12.5273C14 12.2508 13.776 12.0273 13.5 12.0273ZM16 12.0273C15.724 12.0273 15.5 12.2508 15.5 12.5273V13.5273C15.5 13.8038 15.724 14.0273 16 14.0273C16.276 14.0273 16.5 13.8038 16.5 13.5273V12.5273C16.5 12.2508 16.276 12.0273 16 12.0273ZM18.5 12.0273C18.224 12.0273 18 12.2508 18 12.5273V13.5273C18 13.8038 18.224 14.0273 18.5 14.0273C18.776 14.0273 19 13.8038 19 13.5273V12.5273C19 12.2508 18.776 12.0273 18.5 12.0273ZM21 12.0273C20.724 12.0273 20.5 12.2508 20.5 12.5273V13.5273C20.5 13.8038 20.724 14.0273 21 14.0273C21.276 14.0273 21.5 13.8038 21.5 13.5273V12.5273C21.5 12.2508 21.276 12.0273 21 12.0273ZM23.5 12.0273C23.224 12.0273 23 12.2508 23 12.5273V13.5273C23 13.8038 23.224 14.0273 23.5 14.0273C23.776 14.0273 24 13.8038 24 13.5273V12.5273C24 12.2508 23.776 12.0273 23.5 12.0273ZM26 12.0273C25.724 12.0273 25.5 12.2508 25.5 12.5273V13.5273C25.5 13.8038 25.724 14.0273 26 14.0273C26.276 14.0273 26.5 13.8038 26.5 13.5273V12.5273C26.5 12.2508 26.276 12.0273 26 12.0273ZM28.5 12.0273C28.224 12.0273 28 12.2508 28 12.5273V13.5273C28 13.8038 28.224 14.0273 28.5 14.0273C28.776 14.0273 29 13.8038 29 13.5273V12.5273C29 12.2508 28.776 12.0273 28.5 12.0273ZM1 21.0273H31V21.6348C31 21.8948 30.8048 22.1098 30.5498 22.1348L26.5498 22.5195C24.0448 22.7645 21.52 22.9202 19 22.9902C18.665 23.0002 18.335 23.0048 18 23.0098C16.665 23.0348 15.335 23.0348 14 23.0098C13.665 23.0048 13.335 23.0002 13 22.9902C10.48 22.9202 7.9552 22.7645 5.4502 22.5195L1.4502 22.1348C1.1952 22.1098 1 21.8948 1 21.6348V21.0273ZM14 24.0098C14.665 24.0248 15.335 24.0303 16 24.0303C16.665 24.0303 17.335 24.0248 18 24.0098V25.1299C16.675 24.9299 15.325 24.9299 14 25.1299V24.0098ZM16 25.9814C16.4188 25.9814 16.8374 26.0024 17.2549 26.0449C17.8399 26.1049 18.425 26.2046 19 26.3496C19.065 26.3596 19.1303 26.3795 19.1953 26.3945L22.6553 27.3096C22.8603 27.3646 23 27.5496 23 27.7646C23 27.9096 22.9353 28.0399 22.8203 28.1299C22.7053 28.2199 22.555 28.25 22.415 28.21L19.5801 27.46C18.7651 27.245 17.9346 27.1049 17.0996 27.0449C16.3646 26.9849 15.6354 26.9849 14.9004 27.0449C14.0654 27.1049 13.2349 27.245 12.4199 27.46L9.58496 28.21C9.44496 28.25 9.29469 28.2199 9.17969 28.1299C9.06469 28.0399 9 27.9098 9 27.7598C9 27.5498 9.13973 27.3646 9.34473 27.3096L12.8047 26.3945C12.8697 26.3795 12.935 26.3596 13 26.3496C13.575 26.2046 14.1601 26.1049 14.7451 26.0449C15.1626 26.0024 15.5813 25.9814 16 25.9814Z" fill="#D9AFA5"/>
</svg>
