<svg width="49" height="48" viewBox="0 0 49 48" fill="none" xmlns="http://www.w3.org/2000/svg">
<path d="M25.8339 0.762386C25.7372 0.782894 25.6435 0.81805 25.5585 0.876644C25.2128 1.10809 25.1191 1.57098 25.3505 1.91668L26.37 3.44012C26.5195 3.66571 26.5341 3.95282 26.4169 4.19598L25.6933 5.64032C25.3329 6.35516 25.3857 7.21942 25.8251 7.88739L26.3027 8.60516C26.4667 8.86004 26.4667 9.18524 26.2997 9.43426L25.9042 10.0319C25.4003 10.7848 25.4003 11.7604 25.8984 12.5163L26.2939 13.1227C26.4638 13.3776 26.4609 13.7057 26.2909 13.9577L25.3564 15.3288C25.122 15.6716 25.2128 16.1374 25.5527 16.3718C25.6845 16.4567 25.831 16.5007 25.9745 16.5007C26.2148 16.5007 26.4521 16.3864 26.5956 16.1725L27.5302 14.8014C28.0458 14.0456 28.0517 13.0612 27.5478 12.2936L27.1493 11.6931C26.9823 11.4382 26.9823 11.113 27.1493 10.8639L27.5478 10.2663C28.0517 9.51043 28.0517 8.53485 27.5536 7.77899L27.0761 7.06121C26.9296 6.83563 26.915 6.55145 27.0322 6.31121L27.7558 4.86395C28.1161 4.14325 28.0634 3.28192 27.6152 2.60809L26.5986 1.08465C26.4257 0.826839 26.121 0.709652 25.8339 0.762386ZM21.3368 6.01239C21.2431 6.02996 21.1493 6.06512 21.0615 6.12371C20.7157 6.35223 20.622 6.81512 20.8505 7.16082L21.8027 8.60516C21.9667 8.86004 21.9667 9.18231 21.7997 9.43426L21.4042 10.0319C20.9003 10.7848 20.9003 11.7604 21.3984 12.5163L21.7939 13.1227C21.9638 13.3776 21.9609 13.7028 21.7909 13.9577L20.8564 15.3288C20.622 15.6716 20.7128 16.1374 21.0527 16.3718C21.1845 16.4597 21.331 16.5007 21.4745 16.5007C21.7148 16.5007 21.9521 16.3864 22.0956 16.1725L23.0302 14.8014C23.5458 14.0456 23.5517 13.0612 23.0478 12.2936L22.6493 11.6931C22.4824 11.4382 22.4824 11.113 22.6493 10.8639L23.0478 10.2663C23.5517 9.51043 23.5517 8.53485 23.0536 7.77899L22.1015 6.33465C21.9316 6.07684 21.6269 5.95965 21.3368 6.01239ZM32.1152 8.28582C31.8281 8.23016 31.5234 8.34735 31.3534 8.60516L30.4042 10.029C29.9003 10.7819 29.8974 11.7604 30.3954 12.5163L30.7939 13.1198C30.9638 13.3747 30.9609 13.7028 30.7909 13.9577L29.8534 15.3288C29.622 15.6686 29.7128 16.1345 30.0527 16.3688C30.1845 16.4567 30.331 16.5007 30.4745 16.5007C30.7148 16.5007 30.9521 16.3864 31.0956 16.1725L32.0302 14.8014C32.5458 14.0456 32.5517 13.0612 32.0478 12.2936L31.6493 11.6931C31.4823 11.4382 31.4823 11.113 31.6493 10.8639L32.5986 9.44012C32.83 9.09442 32.7363 8.6286 32.3935 8.40008C32.3056 8.34149 32.2118 8.3034 32.1152 8.28582ZM16.8368 10.5358C16.7431 10.5534 16.6493 10.5915 16.5615 10.6472C16.2157 10.8757 16.122 11.3415 16.3505 11.6872L17.2939 13.1227C17.4638 13.3776 17.4609 13.7028 17.2909 13.9577L16.3564 15.3288C16.122 15.6716 16.2128 16.1374 16.5527 16.3718C16.6845 16.4597 16.831 16.5007 16.9745 16.5007C17.2148 16.5007 17.4521 16.3864 17.5956 16.1725L18.5302 14.8014C19.0458 14.0456 19.0517 13.0612 18.5478 12.2936L17.6015 10.861C17.4316 10.6032 17.1269 10.4831 16.8368 10.5358ZM8.2968 18.0007C7.83098 18.0007 7.40325 18.2116 7.11614 18.5778C6.82903 18.944 6.72942 19.4128 6.84368 19.8639L10.4794 34.4128C11.0683 36.7741 12.3837 38.904 14.1943 40.5007H3.47454C3.19036 40.5007 2.93255 40.6618 2.80657 40.9167C2.67766 41.1716 2.70696 41.4733 2.87688 41.6989L3.7763 42.9001C4.76067 44.2155 6.33098 45.0007 7.97454 45.0007H39.4745C41.1181 45.0007 42.6884 44.2155 43.6757 42.9001L44.5751 41.6989C44.748 41.4733 44.7743 41.1686 44.6484 40.9138C44.5195 40.6618 44.2616 40.5007 43.9745 40.5007H33.9579C35.3818 39.2438 36.4833 37.6589 37.1806 35.8893C39.7177 35.4235 43.8339 34.4743 45.29 33.0153C46.2861 32.0222 46.8339 30.7009 46.8339 29.2917C46.8339 27.8825 46.2861 26.5612 45.29 25.5651C43.8368 24.112 41.7421 23.6813 39.8876 24.3083L40.8691 19.8229C40.9687 19.3776 40.8603 18.9147 40.5732 18.5602C40.2861 18.2028 39.8613 18.0007 39.4042 18.0007H8.2968ZM8.2968 19.5007H39.4042L36.287 33.7448C35.6718 36.5661 33.8993 39.0153 31.4238 40.5007H16.7255C14.3495 39.0739 12.6064 36.736 11.9355 34.0466L8.2968 19.5007ZM11.5839 21.0007C11.1679 21.0007 10.8339 21.3376 10.8339 21.7507C10.8339 22.1638 11.1679 22.5007 11.5839 22.5007H14.5839C14.9999 22.5007 15.3339 22.1638 15.3339 21.7507C15.3339 21.3376 14.9999 21.0007 14.5839 21.0007H11.5839ZM17.5839 21.0007C17.1679 21.0007 16.8339 21.3376 16.8339 21.7507C16.8339 22.1638 17.1679 22.5007 17.5839 22.5007H36.3339C36.7499 22.5007 37.0839 22.1638 37.0839 21.7507C37.0839 21.3376 36.7499 21.0007 36.3339 21.0007H17.5839ZM41.3027 25.5329C42.3603 25.4567 43.4296 25.8259 44.2294 26.6257C44.9413 27.3376 45.3339 28.2839 45.3339 29.2917C45.3339 30.2995 44.9413 31.2458 44.2294 31.9577C43.3124 32.8747 40.4267 33.7126 37.6991 34.2634C37.7138 34.196 37.7372 34.1315 37.7519 34.0671L39.4833 26.1569C40.0429 25.7819 40.6698 25.5768 41.3027 25.5329ZM14.5839 34.5007C14.1679 34.5007 13.8339 34.8376 13.8339 35.2507V36.7507C13.8339 37.1638 14.1679 37.5007 14.5839 37.5007C14.9999 37.5007 15.3339 37.1638 15.3339 36.7507V35.2507C15.3339 34.8376 14.9999 34.5007 14.5839 34.5007ZM18.3339 34.5007C17.9179 34.5007 17.5839 34.8376 17.5839 35.2507V36.7507C17.5839 37.1638 17.9179 37.5007 18.3339 37.5007C18.7499 37.5007 19.0839 37.1638 19.0839 36.7507V35.2507C19.0839 34.8376 18.7499 34.5007 18.3339 34.5007ZM22.0839 34.5007C21.6679 34.5007 21.3339 34.8376 21.3339 35.2507V36.7507C21.3339 37.1638 21.6679 37.5007 22.0839 37.5007C22.4999 37.5007 22.8339 37.1638 22.8339 36.7507V35.2507C22.8339 34.8376 22.4999 34.5007 22.0839 34.5007ZM25.8339 34.5007C25.4179 34.5007 25.0839 34.8376 25.0839 35.2507V36.7507C25.0839 37.1638 25.4179 37.5007 25.8339 37.5007C26.2499 37.5007 26.5839 37.1638 26.5839 36.7507V35.2507C26.5839 34.8376 26.2499 34.5007 25.8339 34.5007ZM29.5839 34.5007C29.1679 34.5007 28.8339 34.8376 28.8339 35.2507V36.7507C28.8339 37.1638 29.1679 37.5007 29.5839 37.5007C29.9999 37.5007 30.3339 37.1638 30.3339 36.7507V35.2507C30.3339 34.8376 29.9999 34.5007 29.5839 34.5007ZM33.3339 34.5007C32.9179 34.5007 32.5839 34.8376 32.5839 35.2507V36.7507C32.5839 37.1638 32.9179 37.5007 33.3339 37.5007C33.7499 37.5007 34.0839 37.1638 34.0839 36.7507V35.2507C34.0839 34.8376 33.7499 34.5007 33.3339 34.5007ZM4.97454 42.0007H42.4745C41.7714 42.9411 40.6493 43.5007 39.4745 43.5007H7.97454C6.80266 43.5007 5.68059 42.9411 4.97454 42.0007Z" fill="#D9AFA5"/>
</svg>
