<svg width="48" height="48" viewBox="0 0 48 48" fill="none" xmlns="http://www.w3.org/2000/svg">
<g clip-path="url(#clip0_231_990)">
<path d="M35.2031 0C33.9814 0 32.9912 0.960938 32.9531 2.18262L32.5576 15H32.1797C31.3623 13.5176 30.0645 12.3193 28.5117 11.6279L28.5088 11.5928C28.2041 9.37207 26.1504 7.81348 23.9268 8.11816C23.7598 8.13867 23.5898 8.17383 23.4229 8.22363C22.7197 6.57422 20.9912 5.5459 19.1455 5.79785C17.9971 5.95605 16.9893 6.59473 16.3506 7.53516C15.7969 7.21875 15.1523 7.08984 14.4961 7.17774C13.1221 7.36816 12.0938 8.47852 11.9531 9.80566C10.2656 10.2627 8.91797 11.5576 8.38477 13.2305C7.13672 13.4561 6.00293 14.0771 5.13281 15H3.07617C1.83691 15 0.826172 16.0137 0.826172 17.25C0.826172 18.252 1.49414 19.0957 2.40234 19.3857L2.77148 22.1924C2.75977 22.21 2.73926 22.2217 2.73047 22.2422C0.539062 26.4375 0.310547 29.874 2.10352 31.6641C2.64551 32.2061 3.3457 32.54 4.1543 32.71L5.91211 46.043C6.06152 47.1592 7.01367 48 8.13574 48H45.3281C46.0283 48 46.6729 47.6836 47.1006 47.1357C47.5342 46.582 47.6777 45.8848 47.5107 45.2021L43.6875 29.9092C43.9805 29.8125 44.2412 29.6338 44.4287 29.3789C44.707 28.9863 44.7832 28.4854 44.6338 28.0283L44.1211 26.4902C43.6348 25.0283 42.5244 23.8506 41.0918 23.2793L38.168 22.1104L37.5469 2.18262C37.5088 0.960938 36.5186 0 35.2969 0H35.2031ZM35.2031 1.5H35.2969C35.7012 1.5 36.0293 1.82227 36.0469 2.22656L36.6533 21.5391C35.7305 21.2783 34.7695 21.2783 33.8467 21.5391L34.4531 2.22656C34.4707 1.82227 34.7988 1.5 35.2031 1.5ZM19.8486 7.26562C20.9971 7.33301 21.9873 8.17676 22.207 9.35742C22.251 9.5918 22.4033 9.79102 22.6172 9.89355C22.8311 9.99609 23.083 9.99316 23.2939 9.88184C23.5811 9.73242 23.8535 9.6416 24.1289 9.60352C24.8086 9.50977 25.4854 9.68555 26.0303 10.1016C26.5781 10.5146 26.9297 11.1182 27.0234 11.7979C27.0352 11.8857 27.0322 11.9736 27.0322 12.0586V12.1436C27.0322 12.457 27.2285 12.7383 27.5244 12.8467C28.6729 13.2686 29.6777 14.0273 30.4043 15H7.73145C8.08008 14.8535 8.44629 14.7334 8.83008 14.6807C8.87109 14.6748 8.90918 14.6748 8.9502 14.6719L9.04688 14.6631C9.37793 14.6338 9.65039 14.3906 9.71777 14.0654C10.0283 12.5391 11.2705 11.3701 12.8115 11.1562C13.2217 11.1006 13.5088 10.7227 13.4531 10.3125C13.3447 9.51562 13.9043 8.77442 14.7041 8.66602C15.1992 8.5957 15.6914 8.78906 16.0195 9.18164C16.1895 9.38672 16.459 9.48633 16.7227 9.43945C16.9863 9.39258 17.2061 9.20801 17.2969 8.95605C17.6279 8.05371 18.4131 7.41211 19.3477 7.2832C19.5176 7.25977 19.6846 7.25391 19.8486 7.26562ZM3.07617 16.5H31.7139C31.7197 16.5 31.7227 16.5 31.7256 16.5C31.7314 16.5 31.7314 16.5 31.7344 16.5H32.5049L32.4609 18H3.07617C2.66309 18 2.32617 17.6631 2.32617 17.25C2.32617 16.8369 2.66309 16.5 3.07617 16.5ZM3.93164 19.5H32.4141L32.332 22.1104L29.4082 23.2793C27.9756 23.8506 26.8652 25.0283 26.3789 26.4902L25.8662 28.0283C25.7168 28.4854 25.793 28.9863 26.0713 29.3789C26.2588 29.6338 26.5195 29.8125 26.8125 29.9092L22.9893 45.2021C22.8838 45.6445 22.9043 46.0869 23.0479 46.5H8.13574C7.76074 46.5 7.44727 46.2217 7.39453 45.8467L5.68359 32.8359C8.7041 32.7188 12.7559 30.8145 16.7695 27.5244C17.3936 27.9316 18.1084 28.1367 18.8232 28.1367C19.7842 28.1367 20.7451 27.7705 21.4775 27.0381C22.9395 25.5762 22.9395 23.1973 21.4775 21.7354C20.0156 20.2734 17.6338 20.2734 16.1719 21.7354C14.8916 23.0186 14.7363 25.002 15.7002 26.458C11.7188 29.7041 7.96875 31.3359 5.49023 31.3623L3.93164 19.5ZM18.8232 22.1367C19.4004 22.1367 19.9775 22.3564 20.417 22.7959C21.293 23.6748 21.293 25.0986 20.417 25.9775C19.7637 26.6309 18.7998 26.7979 17.9883 26.4727C18.5479 25.9746 19.1045 25.4561 19.6553 24.9053C19.9482 24.6123 19.9482 24.1377 19.6553 23.8447C19.3623 23.5518 18.8877 23.5518 18.5947 23.8447C18.0176 24.4219 17.4404 24.9551 16.8633 25.4648C16.3945 24.6123 16.5117 23.5195 17.2354 22.7959C17.6719 22.3564 18.249 22.1367 18.8232 22.1367ZM35.25 22.8457C35.7217 22.8457 36.1934 22.9365 36.6445 23.1152L36.6973 23.1357L38.2207 23.7451L40.5293 24.668C41.5576 25.0811 42.3516 25.9219 42.6973 26.9707L43.2158 28.5H27.293L27.8027 26.9707C28.1484 25.9219 28.9424 25.0811 29.9707 24.6768L32.2793 23.7451L33.8027 23.1357L33.8555 23.1152C34.3066 22.9365 34.7783 22.8457 35.25 22.8457ZM3.14062 24.9932L3.94336 31.0928C3.64453 30.9697 3.375 30.8145 3.16406 30.6064C2.14746 29.5869 2.16797 27.5537 3.14062 24.9932ZM28.3359 30H42.1641L46.0576 45.5713C46.1104 45.7939 46.0664 46.0283 45.9229 46.2158C45.7793 46.3945 45.5625 46.5 45.3281 46.5H41.9854C41.9854 46.459 41.9971 46.4209 41.9883 46.377L40.4883 37.377C40.4209 36.9697 40.0371 36.6914 39.627 36.7617C39.2197 36.8291 38.9414 37.2129 39.0117 37.623L40.4883 46.5H36V41.25C36 40.8369 35.6631 40.5 35.25 40.5C34.8369 40.5 34.5 40.8369 34.5 41.25V46.5H25.1719C24.9375 46.5 24.7207 46.3945 24.5771 46.2158C24.4336 46.0283 24.3896 45.7939 24.4424 45.5713L28.3359 30ZM35.25 34.5C34.8369 34.5 34.5 34.8369 34.5 35.25V38.25C34.5 38.6631 34.8369 39 35.25 39C35.6631 39 36 38.6631 36 38.25V35.25C36 34.8369 35.6631 34.5 35.25 34.5ZM9.75 42C9.33691 42 9 42.3369 9 42.75V44.25C9 44.6631 9.33691 45 9.75 45C10.1631 45 10.5 44.6631 10.5 44.25V42.75C10.5 42.3369 10.1631 42 9.75 42ZM13.5 42C13.0869 42 12.75 42.3369 12.75 42.75V44.25C12.75 44.6631 13.0869 45 13.5 45C13.9131 45 14.25 44.6631 14.25 44.25V42.75C14.25 42.3369 13.9131 42 13.5 42ZM17.25 42C16.8369 42 16.5 42.3369 16.5 42.75V44.25C16.5 44.6631 16.8369 45 17.25 45C17.6631 45 18 44.6631 18 44.25V42.75C18 42.3369 17.6631 42 17.25 42ZM21 42C20.5869 42 20.25 42.3369 20.25 42.75V44.25C20.25 44.6631 20.5869 45 21 45C21.4131 45 21.75 44.6631 21.75 44.25V42.75C21.75 42.3369 21.4131 42 21 42Z" fill="#D9AFA5"/>
</g>
<defs>
<clipPath id="clip0_231_990">
<rect width="48" height="48" fill="white"/>
</clipPath>
</defs>
</svg>
