<svg width="48" height="48" viewBox="0 0 48 48" fill="none" xmlns="http://www.w3.org/2000/svg">
<path d="M11.9997 3C11.5857 3 11.2497 3.336 11.2497 3.75V5.25C11.2497 5.664 11.5857 6 11.9997 6C12.4137 6 12.7497 5.664 12.7497 5.25V3.75C12.7497 3.336 12.4137 3 11.9997 3ZM15.8948 3.99609C15.6065 3.94772 15.3039 4.07088 15.1374 4.33301C15.1262 4.35101 15.1149 4.36846 15.1052 4.38721L14.3552 5.68506C14.1497 6.04131 14.27 6.49609 14.6247 6.70459C14.7357 6.77809 14.867 6.81531 14.9997 6.81006C15.269 6.81081 15.5173 6.66831 15.6516 6.43506L16.4016 5.13721C16.6236 4.78771 16.5211 4.32503 16.1716 4.10303C16.0842 4.04753 15.9908 4.01222 15.8948 3.99609ZM8.14573 4.03564C8.04966 4.0518 7.95478 4.08689 7.86741 4.14258C7.53816 4.35108 7.42445 4.77756 7.6052 5.12256L8.34788 6.42773C8.48213 6.66098 8.73048 6.80348 8.99973 6.80273C9.13248 6.80798 9.26373 6.77077 9.37473 6.69727C9.73473 6.49177 9.86002 6.0348 9.65452 5.6748L9.65159 5.67041L8.90159 4.37256C8.73509 4.11043 8.43394 3.98716 8.14573 4.03564ZM18.4538 6.73975C18.3567 6.74766 18.2586 6.77524 18.1667 6.82324C18.148 6.83299 18.1305 6.84275 18.1125 6.854L16.8147 7.604C16.4599 7.81325 16.3404 8.26875 16.5451 8.625C16.6809 8.8635 16.9298 9.01372 17.2043 9.02197C17.3341 9.01972 17.4597 8.97761 17.5647 8.90186L18.8625 8.15186C19.2293 7.95986 19.3709 7.50715 19.1789 7.13965C19.0349 6.86459 18.7453 6.71602 18.4538 6.73975ZM5.59397 6.74121C5.30576 6.69284 5.00314 6.816 4.83664 7.07812C4.61389 7.42838 4.71859 7.89177 5.06809 8.11377C5.08609 8.12502 5.10354 8.13478 5.12229 8.14453L5.12961 8.15186L6.42746 8.90186C6.53246 8.97761 6.65807 9.01972 6.78782 9.02197C7.06232 9.01372 7.31125 8.8635 7.447 8.625C7.65475 8.2665 7.53304 7.80736 7.17454 7.59961L7.17014 7.59814L5.87229 6.84814C5.78491 6.79264 5.69004 6.75734 5.59397 6.74121ZM11.9997 7.5C9.92898 7.5 8.24973 9.17925 8.24973 11.25C8.24973 13.3208 9.92898 15 11.9997 15C14.0705 15 15.7497 13.3208 15.7497 11.25C15.7497 9.17925 14.0705 7.5 11.9997 7.5ZM11.9997 9C13.2425 9 14.2497 10.0072 14.2497 11.25C14.2497 12.4928 13.2425 13.5 11.9997 13.5C10.757 13.5 9.74973 12.4928 9.74973 11.25C9.74973 10.0072 10.757 9 11.9997 9ZM4.49973 10.5C4.08573 10.5 3.74973 10.836 3.74973 11.25C3.74973 11.664 4.08573 12 4.49973 12H5.99973C6.41373 12 6.74973 11.664 6.74973 11.25C6.74973 10.836 6.41373 10.5 5.99973 10.5H4.49973ZM17.9997 10.5C17.5857 10.5 17.2497 10.836 17.2497 11.25C17.2497 11.664 17.5857 12 17.9997 12H19.4997C19.9137 12 20.2497 11.664 20.2497 11.25C20.2497 10.836 19.9137 10.5 19.4997 10.5H17.9997ZM17.2864 13.4912C16.9981 13.4428 16.6955 13.566 16.529 13.8281C16.3063 14.1784 16.411 14.6418 16.7605 14.8638C16.7785 14.875 16.7959 14.8848 16.8147 14.8945L16.822 14.9019L18.1198 15.6519C18.2248 15.7276 18.3504 15.7697 18.4802 15.772C18.7547 15.7637 19.0036 15.6135 19.1394 15.375C19.3471 15.0165 19.2254 14.5574 18.8669 14.3496L18.8625 14.3481L17.5647 13.5981C17.4773 13.5426 17.3824 13.5073 17.2864 13.4912ZM30.7497 13.5C29.1017 13.5 27.7497 14.852 27.7497 16.5V23.124C27.7363 23.205 27.7363 23.2877 27.7497 23.3687V29.124C27.7363 29.205 27.7363 29.2877 27.7497 29.3687V33.8496L25.0149 32.4858C24.3819 32.1708 23.6381 32.1708 23.0051 32.4858L19.6902 34.1382C18.6349 34.6639 17.3924 34.6639 16.3371 34.1382L13.0222 32.4858C12.3892 32.1708 11.6454 32.1708 11.0124 32.4858L7.69748 34.1382C6.64223 34.6639 5.40117 34.6639 4.34592 34.1382L3.36008 33.6445C2.57558 33.25 1.7282 32.998 0.855199 32.8975C0.441199 32.8517 0.0674533 33.15 0.0217033 33.5625C-0.0240467 33.975 0.275672 34.3466 0.689672 34.3916C1.38417 34.4696 2.06004 34.6699 2.68479 34.9819L3.67502 35.4756C5.15252 36.2121 6.89163 36.2121 8.36838 35.4756L11.6833 33.8232C11.8956 33.716 12.1464 33.716 12.3586 33.8232L15.6736 35.4756C17.1511 36.2121 18.8916 36.2121 20.3684 35.4756L23.6833 33.8232C23.8956 33.716 24.1464 33.716 24.3586 33.8232L27.6736 35.4756C29.1511 36.2121 30.8902 36.2121 32.3669 35.4756L35.6819 33.8232C35.8941 33.716 36.1449 33.716 36.3572 33.8232L39.6721 35.4756C41.1496 36.2121 42.8902 36.2121 44.3669 35.4756C44.3902 35.4651 44.4038 35.4451 44.4255 35.4331L45.3293 34.9819C45.9541 34.6692 46.6299 34.4689 47.3244 34.3916C47.7384 34.3459 48.0382 33.975 47.9924 33.5625C47.9452 33.15 47.5729 32.8517 47.1589 32.8975C46.2859 32.998 45.4371 33.2493 44.6526 33.6445L43.6638 34.1382C43.144 34.3969 42.5784 34.527 42.0129 34.5308V34.5322C41.757 34.5332 41.5017 34.5041 41.2497 34.4531V29.376C41.2631 29.295 41.2631 29.2123 41.2497 29.1313V23.376C41.2631 23.295 41.2631 23.2123 41.2497 23.1313V16.5C41.2497 15.6625 41.9122 15 42.7497 15C43.5872 15 44.2497 15.6625 44.2497 16.5V18C44.2483 18.0994 44.2667 18.1981 44.3037 18.2903C44.3408 18.3825 44.3958 18.4664 44.4656 18.5372C44.5354 18.608 44.6185 18.6642 44.7102 18.7026C44.8019 18.7409 44.9003 18.7607 44.9997 18.7607C45.0991 18.7607 45.1975 18.7409 45.2892 18.7026C45.3809 18.6642 45.4641 18.608 45.5339 18.5372C45.6036 18.4664 45.6587 18.3825 45.6957 18.2903C45.7328 18.1981 45.7511 18.0994 45.7497 18V16.5C45.7497 14.852 44.3977 13.5 42.7497 13.5C41.1017 13.5 39.7497 14.852 39.7497 16.5V22.5H29.2497V16.5C29.2497 15.6625 29.9122 15 30.7497 15C31.5872 15 32.2497 15.6625 32.2497 16.5V18C32.2483 18.0994 32.2667 18.1981 32.3037 18.2903C32.3408 18.3825 32.3958 18.4664 32.4656 18.5372C32.5354 18.608 32.6185 18.6642 32.7102 18.7026C32.8019 18.7409 32.9003 18.7607 32.9997 18.7607C33.0991 18.7607 33.1975 18.7409 33.2892 18.7026C33.3809 18.6642 33.4641 18.608 33.5339 18.5372C33.6036 18.4664 33.6587 18.3825 33.6957 18.2903C33.7328 18.1981 33.7511 18.0994 33.7497 18V16.5C33.7497 14.852 32.3977 13.5 30.7497 13.5ZM6.71457 13.5015C6.61785 13.513 6.52186 13.5438 6.43186 13.5952L6.42746 13.5981L5.12961 14.3481C4.76961 14.5529 4.64433 15.0106 4.84983 15.3706L4.85276 15.375C4.98851 15.6135 5.23744 15.7637 5.51194 15.772C5.64169 15.7697 5.76729 15.7276 5.87229 15.6519L7.17014 14.9019C7.53164 14.7001 7.66121 14.2438 7.45871 13.8823C7.45721 13.8801 7.45582 13.8772 7.45432 13.875C7.3002 13.605 7.00475 13.4669 6.71457 13.5015ZM9.14475 15.6812C8.85654 15.6328 8.55393 15.7559 8.38743 16.0181C8.37618 16.0361 8.36495 16.0535 8.3552 16.0723L7.6052 17.3701C7.39745 17.7286 7.52063 18.1878 7.87913 18.3955L7.88352 18.397C7.99452 18.4705 8.12577 18.5077 8.25852 18.5024C8.52552 18.4994 8.77034 18.3534 8.90159 18.1201L9.65159 16.8223C9.87359 16.4728 9.77111 16.0101 9.42161 15.7881C9.33423 15.7326 9.24082 15.6973 9.14475 15.6812ZM14.8957 15.728C14.7997 15.7442 14.7048 15.7793 14.6174 15.835C14.2882 16.0442 14.1752 16.4699 14.3552 16.8149L15.0979 18.1201C15.2321 18.3534 15.4805 18.4959 15.7497 18.4951C15.8825 18.5004 16.0137 18.4631 16.1247 18.3896C16.4847 18.1849 16.61 17.7272 16.4045 17.3672L16.4016 17.3628L15.6516 16.0649C15.4851 15.8028 15.1839 15.6795 14.8957 15.728ZM11.9997 16.5C11.5857 16.5 11.2497 16.836 11.2497 17.25V18.75C11.2497 19.164 11.5857 19.5 11.9997 19.5C12.4137 19.5 12.7497 19.164 12.7497 18.75V17.25C12.7497 16.836 12.4137 16.5 11.9997 16.5ZM29.2497 24H39.7497V28.5H29.2497V24ZM29.2497 30H39.7497V33.8525L37.0075 32.4858C36.3745 32.1708 35.6308 32.1708 34.9978 32.4858L31.6828 34.1382C30.9222 34.5171 30.0645 34.619 29.2497 34.4517V30ZM12.0056 36.7354C11.6613 36.7354 11.3172 36.8152 11.0007 36.9727L7.68577 38.6235C6.63052 39.1493 5.38799 39.1493 4.33274 38.6235C3.96749 38.4285 3.51335 38.5652 3.3176 38.9297C3.12185 39.2934 3.2585 39.7484 3.62375 39.9434C3.63725 39.9509 3.65273 39.9564 3.66623 39.9624H3.65159C5.12909 40.6989 6.86966 40.6989 8.34641 39.9624L11.6614 38.3101C11.8736 38.2028 12.1244 38.2028 12.3366 38.3101L15.6516 39.9624C17.1291 40.6989 18.8697 40.6989 20.3464 39.9624L23.6614 38.3101C23.8736 38.2028 24.1229 38.2028 24.3352 38.3101L27.6501 39.9624C28.0266 40.1349 28.4723 39.9712 28.6448 39.5962C28.8105 39.2377 28.6676 38.8103 28.3181 38.6235L25.0032 36.9727C24.3701 36.6577 23.6264 36.6577 22.9934 36.9727L19.6784 38.6235C18.6232 39.1493 17.3807 39.1493 16.3254 38.6235L13.0105 36.9727C12.694 36.8152 12.3498 36.7354 12.0056 36.7354ZM35.9953 36.7515C35.6511 36.7515 35.307 36.8298 34.9905 36.9873C34.614 37.1598 34.4481 37.6033 34.6213 37.979C34.7946 38.354 35.2394 38.5185 35.6159 38.3452C35.6302 38.3385 35.6449 38.3315 35.6584 38.3247C35.8707 38.2175 36.12 38.2175 36.3323 38.3247L39.6472 39.9771C41.1247 40.7136 42.8653 40.7136 44.342 39.9771L45.3323 39.4834C45.957 39.1706 46.6329 38.9703 47.3274 38.8931C47.7414 38.8473 48.0396 38.4765 47.9939 38.064C47.9489 37.6507 47.5773 37.3517 47.1633 37.3975C46.2903 37.4972 45.4422 37.7507 44.6584 38.146L43.6682 38.6396C42.6129 39.1654 41.3704 39.1654 40.3152 38.6396L37.0002 36.9873C36.6837 36.8298 36.3396 36.7515 35.9953 36.7515ZM33.0803 38.0347C32.983 38.0377 32.8844 38.0602 32.7903 38.1035C32.776 38.1103 32.7627 38.1158 32.7492 38.1226L31.6843 38.6543C31.4563 38.7683 31.2184 38.8586 30.9724 38.9238C30.5584 38.9778 30.2651 39.3551 30.3191 39.7676C30.3731 40.1801 30.7532 40.472 31.1672 40.418C31.1672 40.418 31.2902 40.3735 31.3547 40.3652C31.699 40.2745 32.0335 40.1492 32.3523 39.9917L33.4172 39.4614C33.7937 39.2889 33.9581 38.8455 33.7849 38.4697C33.6549 38.1885 33.3723 38.0256 33.0803 38.0347ZM12.0173 41.2207C11.6731 41.2207 11.3289 41.299 11.0124 41.4565L7.69748 43.1089C6.64223 43.6346 5.40117 43.6346 4.34592 43.1089L3.35569 42.6152C2.57119 42.2207 1.7238 41.9687 0.850805 41.8682C0.436805 41.8224 0.0630587 42.1207 0.0173087 42.5332C-0.0284413 42.9457 0.271277 43.3173 0.685277 43.3623C1.37978 43.4403 2.05564 43.6406 2.68039 43.9526L3.67063 44.4463C5.14813 45.1828 6.88724 45.1828 8.36399 44.4463L11.6789 42.7939C11.8912 42.6867 12.142 42.6867 12.3542 42.7939L15.6692 44.4463C17.1467 45.1828 18.8872 45.1828 20.364 44.4463L23.6789 42.7939C23.8912 42.6867 24.142 42.6867 24.3542 42.7939L27.6692 44.4463C29.1467 45.1828 30.8858 45.1828 32.3625 44.4463L35.6775 42.7939C35.8897 42.6867 36.1405 42.6867 36.3528 42.7939L39.6677 44.4463C41.1452 45.1828 42.8858 45.1828 44.3625 44.4463C44.739 44.2738 44.9035 43.8303 44.7302 43.4546C44.5569 43.0796 44.1121 42.9151 43.7356 43.0884C43.7213 43.0951 43.7081 43.1021 43.6946 43.1089H43.6755C42.6203 43.6346 41.3777 43.6346 40.3225 43.1089L37.0075 41.4565C36.3745 41.1415 35.6308 41.1415 34.9978 41.4565L31.6828 43.1089C30.6276 43.6346 29.3851 43.6346 28.3298 43.1089L25.0149 41.4565C24.3819 41.1415 23.6381 41.1415 23.0051 41.4565L19.6902 43.1089C18.6349 43.6346 17.3924 43.6346 16.3371 43.1089L13.0222 41.4565C12.7057 41.299 12.3616 41.2207 12.0173 41.2207Z" fill="#D9AFA5"/>
</svg>
