<svg width="49" height="48" viewBox="0 0 49 48" fill="none" xmlns="http://www.w3.org/2000/svg">
<path d="M7.4165 4.5C6.176 4.5 5.1665 5.5095 5.1665 6.75V41.25C5.1665 42.4905 6.176 43.5 7.4165 43.5H41.9165C43.157 43.5 44.1665 42.4905 44.1665 41.25V6.75C44.1665 5.5095 43.157 4.5 41.9165 4.5H7.4165ZM7.4165 6H41.9165C42.3298 6 42.6665 6.33675 42.6665 6.75V41.25C42.6665 41.6632 42.3298 42 41.9165 42H7.4165C7.00325 42 6.6665 41.6632 6.6665 41.25V6.75C6.6665 6.33675 7.00325 6 7.4165 6ZM16.4165 9C16.0025 9 15.6665 9.336 15.6665 9.75V34.5C15.6665 34.914 16.0025 35.25 16.4165 35.25H22.4165C22.8305 35.25 23.1665 34.914 23.1665 34.5V27H28.4165C32.9653 27 36.6665 23.2987 36.6665 18.75V17.25C36.6665 12.7013 32.9653 9 28.4165 9H16.4165ZM17.1665 10.5H28.4165C32.138 10.5 35.1665 13.5285 35.1665 17.25V18.75C35.1665 22.4715 32.138 25.5 28.4165 25.5H22.4165C22.0025 25.5 21.6665 25.836 21.6665 26.25V33.75H17.1665V10.5ZM22.4165 13.5C22.0025 13.5 21.6665 13.836 21.6665 14.25V21.75C21.6665 22.164 22.0025 22.5 22.4165 22.5H25.3228C30.146 22.5 30.6665 19.353 30.6665 18C30.6665 16.647 30.146 13.5 25.3228 13.5H22.4165ZM23.1665 15H25.3228C27.8735 15 29.1665 16.0095 29.1665 18C29.1665 19.9905 27.8735 21 25.3228 21H23.1665V15ZM9.6665 37.5C9.2525 37.5 8.9165 37.836 8.9165 38.25V39.75C8.9165 40.164 9.2525 40.5 9.6665 40.5C10.0805 40.5 10.4165 40.164 10.4165 39.75V38.25C10.4165 37.836 10.0805 37.5 9.6665 37.5ZM13.4165 37.5C13.0025 37.5 12.6665 37.836 12.6665 38.25V39.75C12.6665 40.164 13.0025 40.5 13.4165 40.5C13.8305 40.5 14.1665 40.164 14.1665 39.75V38.25C14.1665 37.836 13.8305 37.5 13.4165 37.5ZM17.1665 37.5C16.7525 37.5 16.4165 37.836 16.4165 38.25V39.75C16.4165 40.164 16.7525 40.5 17.1665 40.5C17.5805 40.5 17.9165 40.164 17.9165 39.75V38.25C17.9165 37.836 17.5805 37.5 17.1665 37.5ZM20.9165 37.5C20.5025 37.5 20.1665 37.836 20.1665 38.25V39.75C20.1665 40.164 20.5025 40.5 20.9165 40.5C21.3305 40.5 21.6665 40.164 21.6665 39.75V38.25C21.6665 37.836 21.3305 37.5 20.9165 37.5ZM24.6665 37.5C24.2525 37.5 23.9165 37.836 23.9165 38.25V39.75C23.9165 40.164 24.2525 40.5 24.6665 40.5C25.0805 40.5 25.4165 40.164 25.4165 39.75V38.25C25.4165 37.836 25.0805 37.5 24.6665 37.5ZM28.4165 37.5C28.0025 37.5 27.6665 37.836 27.6665 38.25V39.75C27.6665 40.164 28.0025 40.5 28.4165 40.5C28.8305 40.5 29.1665 40.164 29.1665 39.75V38.25C29.1665 37.836 28.8305 37.5 28.4165 37.5ZM32.1665 37.5C31.7525 37.5 31.4165 37.836 31.4165 38.25V39.75C31.4165 40.164 31.7525 40.5 32.1665 40.5C32.5805 40.5 32.9165 40.164 32.9165 39.75V38.25C32.9165 37.836 32.5805 37.5 32.1665 37.5ZM35.9165 37.5C35.5025 37.5 35.1665 37.836 35.1665 38.25V39.75C35.1665 40.164 35.5025 40.5 35.9165 40.5C36.3305 40.5 36.6665 40.164 36.6665 39.75V38.25C36.6665 37.836 36.3305 37.5 35.9165 37.5ZM39.6665 37.5C39.2525 37.5 38.9165 37.836 38.9165 38.25V39.75C38.9165 40.164 39.2525 40.5 39.6665 40.5C40.0805 40.5 40.4165 40.164 40.4165 39.75V38.25C40.4165 37.836 40.0805 37.5 39.6665 37.5Z" fill="#D9AFA5"/>
</svg>
