<svg width="49" height="48" viewBox="0 0 49 48" fill="none" xmlns="http://www.w3.org/2000/svg">
<path d="M7.4165 1.5C6.14209 1.5 5.1665 2.47559 5.1665 3.75V42.75C5.1665 44.0244 6.14209 45 7.4165 45H41.9165C43.1909 45 44.1665 44.0244 44.1665 42.75V3.75C44.1665 2.47559 43.1909 1.5 41.9165 1.5H7.4165ZM7.4165 3H41.9165C42.3677 3 42.6665 3.29883 42.6665 3.75V4.5H39.6665C38.8403 4.5 38.1665 5.17383 38.1665 6V9C38.1665 9.82617 38.8403 10.5 39.6665 10.5H42.6665V42.75C42.6665 43.2012 42.3677 43.5 41.9165 43.5H7.4165C6.96533 43.5 6.6665 43.2012 6.6665 42.75V3.75C6.6665 3.29883 6.96533 3 7.4165 3ZM9.6665 4.5C8.8374 4.5 8.1665 5.1709 8.1665 6C8.1665 6.8291 8.8374 7.5 9.6665 7.5C10.4956 7.5 11.1665 6.8291 11.1665 6C11.1665 5.1709 10.4956 4.5 9.6665 4.5ZM14.1665 4.5C13.3374 4.5 12.6665 5.1709 12.6665 6C12.6665 6.8291 13.3374 7.5 14.1665 7.5C14.9956 7.5 15.6665 6.8291 15.6665 6C15.6665 5.1709 14.9956 4.5 14.1665 4.5ZM34.4165 6C33.9653 6 33.6665 6.29883 33.6665 6.75C33.6665 7.20117 33.9653 7.5 34.4165 7.5H35.9165C36.3677 7.5 36.6665 7.20117 36.6665 6.75C36.6665 6.29883 36.3677 6 35.9165 6H34.4165ZM39.6665 6H42.6665V9H39.6665V6ZM8.9165 9C8.46533 9 8.1665 9.29883 8.1665 9.75C8.1665 10.2012 8.46533 10.5 8.9165 10.5H11.9165C12.3677 10.5 12.6665 10.2012 12.6665 9.75C12.6665 9.29883 12.3677 9 11.9165 9H8.9165ZM14.9165 9C14.4653 9 14.1665 9.29883 14.1665 9.75C14.1665 10.2012 14.4653 10.5 14.9165 10.5H35.9165C36.3677 10.5 36.6665 10.2012 36.6665 9.75C36.6665 9.29883 36.3677 9 35.9165 9H14.9165ZM23.9165 12C16.8677 12 11.1665 17.7012 11.1665 24.75C11.1665 31.7988 16.8677 37.5 23.9165 37.5C27.4409 37.5 30.8159 36 33.2183 33.4482C33.5171 33.1494 33.5171 32.6982 33.1421 32.3994C32.7671 32.1006 32.3921 32.1006 32.0933 32.3994C29.9927 34.6494 26.9927 36 23.8433 36C17.6177 36 12.5933 30.9756 12.5933 24.75C12.5933 18.5244 17.6177 13.5 23.8433 13.5C30.0659 13.5 35.0933 18.5244 35.0933 24.75V25.5732C35.0933 26.0244 35.3921 26.3232 35.7671 26.3994C36.2183 26.3994 36.5171 26.1006 36.5933 25.7256V24.75C36.6665 17.7012 30.9653 12 23.9165 12ZM23.9165 15C20.3921 15 17.0903 16.9482 15.3647 20.0244C15.2153 20.3232 15.2915 20.7012 15.5171 20.9268C16.5659 21.8994 17.1665 23.25 17.1665 24.75C17.1665 26.25 16.5659 27.5244 15.5171 28.5732C15.2915 28.7988 15.2153 29.1768 15.3647 29.4756C17.0903 32.5518 20.3921 34.5 23.9165 34.5C29.3159 34.5 33.6665 30.1494 33.6665 24.75C33.6665 19.3506 29.3159 15 23.9165 15ZM23.9165 16.5C28.4927 16.5 32.1665 20.1738 32.1665 24.75C32.1665 29.3262 28.4927 33 23.9165 33C21.0659 33 18.5171 31.5762 16.9409 29.1768C18.0659 27.9756 18.6665 26.3994 18.6665 24.75C18.6665 23.1006 18.0659 21.5244 16.9409 20.3232C18.4409 18 21.0659 16.5 23.9165 16.5ZM35.1021 28.2305C34.8091 28.2451 34.5278 28.4443 34.4165 28.7256C34.2671 29.1006 34.1177 29.4756 33.8921 29.8506C33.7427 30.2256 33.8159 30.6738 34.1909 30.8232C34.2671 30.8994 34.4165 30.8994 34.5659 30.8994C34.9409 30.8994 35.1665 30.75 35.3159 30.5244C35.5415 30.1494 35.6909 29.7012 35.8433 29.25C35.9927 28.875 35.7671 28.4238 35.3921 28.2744C35.2983 28.2363 35.1987 28.2217 35.1021 28.2305ZM9.6665 39C9.21533 39 8.9165 39.2988 8.9165 39.75V41.25C8.9165 41.7012 9.21533 42 9.6665 42C10.1177 42 10.4165 41.7012 10.4165 41.25V39.75C10.4165 39.2988 10.1177 39 9.6665 39ZM13.4165 39C12.9653 39 12.6665 39.2988 12.6665 39.75V41.25C12.6665 41.7012 12.9653 42 13.4165 42C13.8677 42 14.1665 41.7012 14.1665 41.25V39.75C14.1665 39.2988 13.8677 39 13.4165 39ZM17.1665 39C16.7153 39 16.4165 39.2988 16.4165 39.75V41.25C16.4165 41.7012 16.7153 42 17.1665 42C17.6177 42 17.9165 41.7012 17.9165 41.25V39.75C17.9165 39.2988 17.6177 39 17.1665 39ZM20.9165 39C20.4653 39 20.1665 39.2988 20.1665 39.75V41.25C20.1665 41.7012 20.4653 42 20.9165 42C21.3677 42 21.6665 41.7012 21.6665 41.25V39.75C21.6665 39.2988 21.3677 39 20.9165 39ZM24.6665 39C24.2153 39 23.9165 39.2988 23.9165 39.75V41.25C23.9165 41.7012 24.2153 42 24.6665 42C25.1177 42 25.4165 41.7012 25.4165 41.25V39.75C25.4165 39.2988 25.1177 39 24.6665 39ZM28.4165 39C27.9653 39 27.6665 39.2988 27.6665 39.75V41.25C27.6665 41.7012 27.9653 42 28.4165 42C28.8677 42 29.1665 41.7012 29.1665 41.25V39.75C29.1665 39.2988 28.8677 39 28.4165 39ZM32.1665 39C31.7153 39 31.4165 39.2988 31.4165 39.75V41.25C31.4165 41.7012 31.7153 42 32.1665 42C32.6177 42 32.9165 41.7012 32.9165 41.25V39.75C32.9165 39.2988 32.6177 39 32.1665 39ZM35.9165 39C35.4653 39 35.1665 39.2988 35.1665 39.75V41.25C35.1665 41.7012 35.4653 42 35.9165 42C36.3677 42 36.6665 41.7012 36.6665 41.25V39.75C36.6665 39.2988 36.3677 39 35.9165 39ZM39.6665 39C39.2153 39 38.9165 39.2988 38.9165 39.75V41.25C38.9165 41.7012 39.2153 42 39.6665 42C40.1177 42 40.4165 41.7012 40.4165 41.25V39.75C40.4165 39.2988 40.1177 39 39.6665 39Z" fill="#D9AFA5"/>
</svg>
