<svg width="49" height="48" viewBox="0 0 49 48" fill="none" xmlns="http://www.w3.org/2000/svg">
<g clip-path="url(#clip0_231_996)">
<path d="M24.3717 3C23.9557 3 23.6217 3.33398 23.6217 3.75V5.25C23.6217 5.66602 23.9557 6 24.3717 6C24.7877 6 25.1217 5.66602 25.1217 5.25V3.75C25.1217 3.33398 24.7877 3 24.3717 3ZM19.9801 3.22852C19.567 3.27246 19.2711 3.6416 19.3151 4.05469L19.4703 5.5459C19.5113 5.93262 19.8365 6.2168 20.2174 6.2168C20.2408 6.2168 20.2672 6.2168 20.2936 6.21094C20.7067 6.16992 21.0055 5.80078 20.9615 5.39062L20.8063 3.89648C20.7623 3.48633 20.3844 3.18457 19.9801 3.22852ZM15.9371 3.91406C15.8404 3.89648 15.7408 3.89648 15.6383 3.91699C15.234 4.00195 14.9762 4.40332 15.0612 4.80762L15.3717 6.27539C15.4479 6.62695 15.7584 6.86719 16.1071 6.86719C16.1569 6.86719 16.2096 6.86426 16.2623 6.85254C16.6666 6.76758 16.9274 6.36621 16.8424 5.96191L16.5289 4.49414C16.4645 4.19238 16.2242 3.96973 15.9371 3.91406ZM28.8893 3.99023C28.4674 3.94336 28.1071 4.24512 28.0631 4.6582C28.0192 5.06836 28.318 5.4375 28.7281 5.48145C33.2164 5.96191 37.5553 7.18066 41.6276 9.09961C41.7301 9.14941 41.8385 9.17285 41.9469 9.17285C42.2281 9.17285 42.4977 9.01172 42.6266 8.74219C42.8024 8.36719 42.6412 7.91895 42.2662 7.74316C38.0416 5.75098 33.5416 4.48828 28.8893 3.99023ZM11.6891 5.02148C11.5924 5.0127 11.4928 5.02148 11.3932 5.05371C10.9977 5.18262 10.7838 5.60742 10.9127 6L11.3727 7.42676C11.4781 7.74316 11.7711 7.94531 12.0875 7.94531C12.1637 7.94531 12.2428 7.93359 12.319 7.91016C12.7115 7.78125 12.9283 7.35645 12.8024 6.96094L12.3365 5.53711C12.2399 5.24121 11.9791 5.04785 11.6891 5.02148ZM7.57873 6.56836C7.48205 6.56836 7.38244 6.58887 7.28869 6.63281C6.91076 6.7998 6.74084 7.24219 6.90783 7.62012L7.51721 8.99121C7.64025 9.26953 7.91565 9.43652 8.20276 9.43652C8.30529 9.43652 8.40783 9.41602 8.50744 9.37207C8.88537 9.20215 9.05529 8.75977 8.8883 8.38184L8.27893 7.01367C8.15002 6.72949 7.8717 6.5625 7.57873 6.56836ZM24.3717 7.5C15.8903 7.5 7.88928 10.2627 1.23596 15.4834C0.726193 15.8848 0.415645 16.4824 0.377559 17.1299C0.336544 17.7715 0.576778 18.4014 1.03088 18.8555L3.21936 21.041C3.984 21.8057 5.18225 21.9199 6.06994 21.3135C8.85315 19.415 16.2125 15 24.3717 15C32.5309 15 39.8844 19.418 42.6676 21.3164C43.0485 21.5771 43.4879 21.7031 43.9274 21.7031C44.5074 21.7031 45.0846 21.4775 45.5211 21.0439L47.6744 18.8906C48.1403 18.4219 48.3776 17.7744 48.3248 17.1182C48.2721 16.459 47.9381 15.8643 47.4049 15.4775C44.0768 13.0781 35.1764 7.5 24.3717 7.5ZM3.65295 8.53125C3.55627 8.5459 3.45959 8.5752 3.3717 8.62793C3.01135 8.83594 2.8883 9.29297 3.09631 9.65332L3.84631 10.9512C3.98693 11.1914 4.23596 11.3262 4.4967 11.3262C4.62561 11.3262 4.75451 11.2939 4.8717 11.2266C5.23205 11.0186 5.35217 10.5586 5.14416 10.2012L4.39416 8.90332C4.23889 8.63379 3.94299 8.49609 3.65295 8.53125ZM24.3717 9C34.7399 9 43.318 14.3789 46.526 16.6934C46.7047 16.8223 46.8131 17.0156 46.8307 17.2383C46.8483 17.4609 46.7692 17.6689 46.611 17.8271L44.4576 19.9805C44.2028 20.2354 43.8072 20.2734 43.5143 20.0742C40.6139 18.0967 32.9469 13.5 24.3717 13.5C15.7965 13.5 8.12365 18.0967 5.22619 20.0742C4.93029 20.2734 4.53479 20.2354 4.2799 19.9805L2.09143 17.7949C1.93908 17.6396 1.85998 17.4346 1.87463 17.2148C1.88635 16.9951 1.98889 16.8018 2.16174 16.6641C8.55139 11.6514 16.2301 9 24.3717 9ZM45.4977 9.50684C45.2076 9.46875 44.9088 9.60059 44.7477 9.86719C44.5367 10.2246 44.6569 10.6846 45.0113 10.8984C45.6588 11.2822 46.3063 11.6924 46.9391 12.1172C47.0651 12.2021 47.2115 12.2432 47.3551 12.2432C47.5953 12.2432 47.8356 12.126 47.9791 11.9121C48.2106 11.5693 48.1197 11.1035 47.774 10.8721C47.1237 10.4297 46.4498 10.0049 45.7789 9.60645C45.6881 9.55371 45.5914 9.52148 45.4977 9.50684ZM24.3336 18C17.1207 18 11.5192 21.0791 8.82092 22.9131C8.26721 23.291 7.91565 23.8887 7.85119 24.5537C7.78674 25.2275 8.02697 25.8838 8.50451 26.3613L10.6578 28.5117C11.4108 29.2676 12.6002 29.3877 13.485 28.793C16.6988 26.6396 20.4488 25.5 24.3336 25.5C28.2184 25.5 31.9713 26.6396 35.1822 28.793C35.5602 29.0479 35.9908 29.1709 36.4244 29.1709C37.0016 29.1709 37.5817 28.9453 38.0123 28.5117L40.1627 26.3643C40.6403 25.8838 40.8776 25.2275 40.8131 24.5566C40.7516 23.8916 40.4 23.2939 39.8463 22.9189C37.1481 21.082 31.5465 18 24.3336 18ZM24.3336 19.5C31.1451 19.5 36.4479 22.418 39.0026 24.1553C39.2516 24.3252 39.3102 24.5684 39.3219 24.6973C39.3424 24.9229 39.2633 25.1426 39.1022 25.3008L36.9547 27.4541C36.7028 27.7031 36.3072 27.7441 36.0172 27.5479C32.5572 25.2275 28.5172 24 24.3336 24C20.15 24 16.1129 25.2275 12.6529 27.5479C12.3629 27.7412 11.9674 27.7031 11.7155 27.4512L9.56506 25.3008C9.40393 25.1396 9.32483 24.9199 9.34533 24.6943C9.35705 24.5654 9.41565 24.3223 9.66467 24.1523C12.2194 22.415 17.5221 19.5 24.3336 19.5ZM24.3336 28.5C20.3785 28.5 17.235 30.0234 15.7115 30.9316C15.3131 31.1689 15.0524 31.5732 14.9938 32.0332C14.9381 32.4961 15.0963 32.9531 15.4274 33.2812L18.7526 36.5889C19.0367 36.873 19.4176 37.0195 19.8072 37.0195C20.0299 37.0195 20.2555 36.9727 20.4664 36.8701C22.8834 35.7188 25.7662 35.7158 28.1803 36.8613C28.7574 37.1338 29.4459 37.0225 29.8883 36.583L33.2311 33.2842C33.5651 32.9561 33.7262 32.499 33.6705 32.0361C33.6149 31.5732 33.3512 31.1689 32.9498 30.9287C31.4293 30.0205 28.2858 28.5 24.3336 28.5ZM24.3336 30C27.9254 30 30.7936 31.3916 32.1793 32.2148L28.8248 35.5078C25.9977 34.166 22.6549 34.1602 19.8102 35.5254L16.4821 32.2207C17.8707 31.3916 20.7389 30 24.3336 30ZM24.3336 39C23.0944 39 22.0836 40.0107 22.0836 41.25C22.0836 42.4893 23.0944 43.5 24.3336 43.5C25.5729 43.5 26.5836 42.4893 26.5836 41.25C26.5836 40.0107 25.5729 39 24.3336 39ZM24.3336 40.2188C24.902 40.2188 25.3649 40.6816 25.3649 41.25C25.3649 41.8184 24.902 42.2812 24.3336 42.2812C23.7653 42.2812 23.3024 41.8184 23.3024 41.25C23.3024 40.6816 23.7653 40.2188 24.3336 40.2188Z" fill="#D9AFA5"/>
</g>
<defs>
<clipPath id="clip0_231_996">
<rect width="48" height="48" fill="white" transform="translate(0.333496)"/>
</clipPath>
</defs>
</svg>
