<svg width="128" height="52" viewBox="0 0 128 52" fill="none" xmlns="http://www.w3.org/2000/svg">
<path d="M127.87 0.619616L126.049 0.661714C125.095 0.718966 124.357 0.747591 123.809 0.747591C123.26 0.747591 122.536 0.718966 121.641 0.661714L119.905 0.619616C119.848 0.619616 119.818 0.705493 119.818 0.889036C119.818 1.05911 119.846 1.1433 119.905 1.1433C121.119 1.1433 121.987 1.48345 122.508 2.15027C123.028 2.8154 123.289 3.90824 123.289 5.41026V23.3925L104.502 0.680236L100.353 0.675185C100.237 0.858728 99.8529 1.45482 99.8377 1.46829C100.53 1.61647 101.186 1.76466 101.672 2.63859C101.837 2.93495 101.876 3.20269 101.876 3.50411V23.1281C101.876 23.5103 101.811 24.0138 101.809 24.0391H97.9155C97.9155 24.0391 97.4677 24.7194 97.4374 24.7766C97.5974 24.7766 98.3615 24.7766 98.9406 25.3862C99.5566 26.0328 99.4893 27.1122 99.4893 27.7066V48.1691C99.4893 48.3476 99.4388 49.5718 98.9406 50.0332C98.3245 50.604 97.5957 50.6427 97.4374 50.6427C97.4661 50.7 97.929 51.3803 97.929 51.3803H103.958C103.958 51.3803 104.406 50.7 104.435 50.6427C104.276 50.6427 103.62 50.5148 102.932 50.0332C102.344 49.6223 102.381 48.2887 102.381 48.2887V38.0978L103.842 36.68C103.842 36.68 111.691 46.1703 113.809 48.7197C114.507 49.56 115.771 51.4645 116.838 51.4645C117.258 51.4645 121.777 51.4358 121.777 51.4358V50.9122C121.676 50.9122 121.016 50.8987 120.944 50.8987C120.062 50.8566 119.116 50.4777 118.513 49.8614C117.3 48.6221 105.894 34.725 105.894 34.725L112.92 27.9642C114.105 26.8309 115.465 25.8139 116.838 25.275C118.197 24.7648 118.328 24.7076 119.195 24.4954L118.833 24.0424H112.344L112.356 24.4954C113.006 24.4954 113.455 24.7934 113.455 25.3744C113.455 25.8425 112.876 26.7451 111.908 27.7099L102.381 36.9949L102.376 27.2654C102.376 26.5666 102.246 24.8978 103.718 24.5914C104.389 24.5106 105.308 24.5156 105.308 24.5156V24.0424C105.308 24.0424 104.048 24.0424 102.975 24.034C102.972 24.002 102.916 23.5137 102.916 23.1315V3.43844L123.124 27.8699H124.314V5.41195C124.314 3.90992 124.588 2.81877 125.152 2.15195C125.716 1.48513 126.611 1.14499 127.87 1.14499C127.958 1.14499 128 1.06079 128 0.890722C128 0.707178 127.956 0.621299 127.87 0.621299V0.619616Z" fill="white"/>
<path d="M30.7881 50.614C29.3136 49.991 27.0581 47.8643 25.092 45.3115C22.5335 41.9808 20.7409 39.6419 19.2074 37.601C22.207 37.1884 25.2166 34.7131 25.3967 31.5895C25.4775 30.1767 25.3428 28.2857 23.8481 26.8006C23.094 26.0495 21.3384 24.0373 16.654 24.0373C16.5967 24.0373 16.2752 24.0407 16.0143 24.0407L24.614 4.50426L24.6527 25.3608C25.2149 25.8391 25.5819 26.1775 25.9942 26.7315C26.5463 27.4724 26.6911 27.8648 26.6911 27.8648H29.5526L29.7327 27.5886L28.7463 27.0986C27.5832 26.3459 27.632 25.8744 27.632 24.9247V5.52469C27.632 2.71597 28.0074 1.99359 29.4583 1.38571L28.6319 0.690262L25.6004 0.665002C25.2216 0.718887 24.9321 1.4699 24.8311 1.71238L15.1458 23.3856L5.22814 2.88773C4.96724 2.36067 4.74336 1.94475 4.54979 1.62313C4.54811 1.61976 4.54474 1.61471 4.54306 1.61135C4.38652 1.35203 4.24681 1.15165 4.13067 1.03209C4.07007 0.961367 3.77214 0.787927 3.52133 0.710468C3.15102 0.683526 0.735575 0.665002 0.735575 0.665002L0 1.25268C0.146442 1.25268 0.794488 1.17522 1.29273 1.73259C1.56709 2.03905 1.69334 2.2226 1.68492 3.15884C1.68492 5.24685 1.67314 24.3572 1.67314 25.765C1.67314 26.4874 1.33986 27.1255 0.806271 27.3663C0.545369 27.4943 0.286151 27.5078 0.0976281 27.4792V27.8614H4.33434V27.4792C4.23334 27.5078 3.78392 27.6206 3.33618 27.3798C2.91705 27.139 2.73021 26.223 2.73021 25.5461C2.73021 24.5391 2.77229 4.75684 2.77229 4.75684C2.77229 4.75684 11.7423 22.8754 12.3078 24.039H7.45506C7.34228 24.2192 6.90464 24.8641 6.90633 24.8675C6.90633 24.8675 7.83547 24.9752 8.28658 25.3187C8.88581 25.7751 8.92284 26.4116 8.92284 26.7484C8.92284 26.942 8.91611 27.2047 8.91611 27.7065V47.9771C8.91611 47.9771 8.93126 48.7146 8.90265 49.0127C8.8875 49.565 8.5559 49.9203 8.36738 50.1038C7.84726 50.6275 7.02247 50.6427 6.86424 50.6427L7.29515 51.4391H13.3094L13.8598 50.6427C13.7016 50.6427 12.9205 50.6561 12.3566 50.1324C12.1681 49.9472 11.9224 49.6357 11.8365 48.9133C11.8214 48.4317 11.8079 47.935 11.8079 47.935V37.9984C13.2269 38.2308 14.4523 38.2762 15.5397 38.1516C16.0901 38.0893 16.6287 38.3486 16.9384 38.81C19.5087 42.6375 21.6835 45.5523 23.5906 47.807C24.8631 49.309 26.1794 50.3446 26.989 50.9256C27.4654 51.2657 28.0444 51.4358 28.6369 51.4358H32.8013V50.9677C32.8013 50.9677 31.8334 51.0535 30.7915 50.614H30.7881ZM14.422 37.1194C13.4104 37.1194 12.5418 37.0621 11.8045 36.9358V27.7924C11.8045 27.6509 11.8045 27.5229 11.8197 27.4101C11.8348 26.9134 11.8921 26.5311 11.9931 26.191V26.1624C12.0368 26.0209 12.0941 25.8929 12.1513 25.765C12.1799 25.7077 12.1951 25.6656 12.2388 25.6084C12.2961 25.4939 12.3684 25.381 12.4694 25.2968C12.5132 25.2682 12.5418 25.2261 12.5856 25.211C12.9761 24.9129 13.5686 24.758 14.3631 24.7159C14.4641 24.7024 14.5802 24.6873 14.6947 24.7024C14.8546 24.689 15.0414 24.689 15.2451 24.7024C15.2586 24.7024 15.2737 24.689 15.3023 24.7024C15.7787 24.7159 16.3712 24.8018 16.9923 25.014C19.1182 25.6942 21.5757 27.7351 21.7205 30.655C21.8215 32.7666 20.6937 34.6104 19.3926 35.6443C19.3926 35.6443 17.6151 37.1177 14.4186 37.1177L14.422 37.1194Z" fill="white"/>
<path d="M41.9177 26.2281C42.3755 26.021 42.8821 25.8256 43.4258 25.6488C45.5063 24.9719 47.8746 24.6385 50.1672 24.3169C52.6399 23.97 55.1967 23.6113 57.358 22.8148L57.4287 22.8115V22.7862C60.0714 21.8247 61.3809 20.2823 61.933 19.5161C64.7878 15.5455 63.2998 10.1234 61.5274 7.10253C60.4181 5.21321 59.1035 4.0968 58.4066 3.51586C54.4914 0.254173 50.0847 0.0319016 49.2296 0.00664334C48.8846 -0.00345996 48.6371 0.0015919 48.5092 0.0015919C40.1873 0.0015919 33.4173 6.44076 33.4173 14.355C33.4173 18.9823 35.7755 23.3368 39.7311 26.0294C39.6907 26.0513 39.652 26.0732 39.615 26.0951C39.5359 26.1388 39.4618 26.1843 39.3861 26.2298C39.3389 26.255 39.2969 26.2836 39.2548 26.3106C35.1359 28.9307 32.6767 33.2684 32.6767 37.9109C32.6767 45.6567 39.4433 51.9578 47.7585 51.9578C56.0737 51.9578 62.8403 45.6567 62.8403 37.9109C62.8403 36.227 62.5238 34.5835 61.8994 33.0276C61.8724 32.9485 61.8405 32.8693 61.8068 32.7868C61.5913 32.2749 61.3372 31.7664 61.0544 31.2764C61.0493 31.2663 61.0443 31.2545 61.0375 31.246C60.8877 31.0086 60.7447 30.7981 60.5965 30.6011C59.7314 29.4342 58.5884 28.471 57.2806 27.8059C57.4809 27.7823 57.7216 27.8025 57.9572 27.8227L58.0397 27.8328C58.479 27.8699 58.8662 27.8867 59.1288 27.7032C59.2803 27.5954 59.3728 27.4725 59.4082 27.331C59.5395 26.8578 58.9487 26.2971 58.4824 26.1169C57.7148 25.829 56.7924 26.2449 56.343 26.8158C55.6748 27.6644 55.9744 28.8061 56.0771 29.1951C56.2016 29.6514 56.38 29.9292 56.6275 30.3115C56.853 30.6617 57.1324 31.0979 57.4927 31.8489C57.6374 32.152 57.7468 32.3961 57.8192 32.5831C57.8276 32.5999 57.836 32.6167 57.8445 32.6386C59.7617 37.2727 59.1086 43.2909 56.2908 46.9483C55.6226 47.8171 53.8451 50.1224 50.7008 50.8784C49.6269 51.1361 48.4991 51.1832 47.3309 51.0199C45.0266 50.7858 43.0084 50.0331 41.3302 48.7786C38.7077 46.8186 36.9672 43.5923 36.4286 39.6941C35.8816 35.7319 36.6794 31.5508 38.4132 29.2894C39.578 27.7655 40.9565 26.7871 41.9177 26.2314V26.2281ZM37.2618 15.6583C36.7215 11.7433 37.5194 7.61106 39.248 5.37655C41.2646 2.77158 43.8854 1.78987 43.9123 1.78146C43.9207 1.77809 44.6832 1.50193 45.503 1.3588C45.9844 1.27461 46.5112 1.23082 47.07 1.23082C49.8053 1.23082 53.298 2.26305 55.8044 4.54639C59.0985 7.55212 60.509 12.752 59.3964 17.7952V17.7986C59.3206 18.0175 59.2314 18.233 59.1254 18.4553C57.592 21.594 53.7979 22.2945 49.4064 23.1045C47.57 23.4429 45.6713 23.7932 43.8046 24.3489H43.781L43.7709 24.3606C43.2558 24.5139 42.7963 24.6671 42.3671 24.8254L42.1651 24.6823C39.5376 22.7357 37.7954 19.5313 37.2618 15.6567V15.6583Z" fill="white"/>
<path d="M92.684 4.14067C89.7821 1.55086 85.9982 0.0420971 82.3018 0C82.2479 0 82.194 0 82.1385 0C74.8753 0 69.0816 5.4541 67.6576 10.7735C66.5147 15.0303 68.0599 19.1542 68.9402 20.3817C69.9721 21.8198 71.2479 22.4495 71.3893 22.5169L71.4095 22.5287C71.8118 22.7122 72.231 22.8267 72.2495 22.8318C72.7797 22.9783 73.3554 23.0423 73.9142 23.0271C74.6515 23.0052 75.3736 22.8419 76.062 22.5388L76.0839 22.5354L76.1007 22.5203C77.0787 21.9831 77.991 21.0822 77.8345 20.2723C77.7537 19.8631 77.417 19.6156 77.2521 19.4943C76.6646 19.0649 75.8987 19.0498 75.419 19.1676C75.0521 19.2569 74.7878 19.4303 74.6767 19.6543C74.4747 20.0584 74.8029 20.5552 75.0941 20.993C75.3163 21.3281 75.5452 21.6749 75.4291 21.8467C75.2625 22.0942 74.4915 21.9696 74.0017 21.7844C71.5004 20.8296 70.6268 15.8538 70.8069 12.6258C70.8827 11.2298 71.0611 7.9614 73.4799 5.04997C75.111 3.10171 77.04 1.85901 79.213 1.35721C84.2106 0.202066 88.3496 3.50079 89.5077 4.54648C94.007 8.61306 94.8537 17.408 91.2819 22.9968C90.7988 23.7529 90.2248 24.4618 89.5784 25.1033C89.4993 25.0663 89.4219 25.0343 89.3461 25.0057C89.2064 24.9552 86.7236 23.6922 81.3709 23.6922C77.5332 23.6922 74.6616 24.9972 73.2392 25.7348C71.3439 26.8209 69.3863 28.5705 68.2232 30.3419C66.8261 32.4501 66.1292 34.8732 66.1292 37.6011C66.1292 40.329 66.816 42.9155 68.1794 45.0995C69.5428 47.2952 71.4482 48.9791 73.899 50.1848C76.3381 51.4022 79.1188 52 82.2344 52C83.985 52 85.5369 51.8586 86.8903 51.5656C88.2419 51.2726 89.6828 50.7607 91.2246 50.0332C91.4014 49.9238 91.5242 49.816 91.5798 49.7183C91.6454 49.6426 91.6909 49.4253 91.7128 49.0768L92.1453 44.2743C92.1453 44.1986 92.0561 44.1447 91.8457 44.1447C91.701 44.1447 91.6235 44.1767 91.6235 44.2424C90.8257 46.6217 89.6727 48.3931 88.1544 49.5567C86.6462 50.7202 84.6751 51.3062 82.2361 51.3062C79.9537 51.3062 77.8479 50.6984 75.897 49.4691C73.958 48.2517 72.4161 46.5897 71.2749 44.4815C70.1336 42.3732 69.5563 40.0478 69.5563 37.5152C69.5563 34.9827 70.0781 32.5495 71.12 30.5608C71.9398 28.9847 73.0254 27.6915 74.4007 26.703C74.5892 26.5616 75.3365 25.9217 76.9827 25.2633C78.7333 24.5628 79.9149 24.423 81.3844 24.3523C83.5103 24.2496 85.5218 24.8406 86.9778 25.8122C87.4087 26.1002 88.0753 26.703 88.1409 26.7788C89.3276 27.9626 90.2029 29.5825 90.7785 31.625C90.8122 31.7126 90.9115 31.7547 91.0664 31.7345C91.233 31.7227 91.3105 31.6688 91.3105 31.5829L90.7785 26.3999C90.76 26.2265 90.6978 25.7567 90.6978 25.7567C90.6978 25.7567 90.6119 25.6977 90.4857 25.6152C91.334 25.0427 97.3869 20.7185 97.3869 13.9207C97.3869 10.3188 95.7189 6.84667 92.6874 4.14235L92.684 4.14067Z" fill="white"/>
</svg>
