<svg width="98" height="40" viewBox="0 0 98 40" fill="none" xmlns="http://www.w3.org/2000/svg">
<path d="M97.9008 0.476628L96.5064 0.50901C95.7757 0.55305 95.2112 0.57507 94.7911 0.57507C94.3709 0.57507 93.8168 0.55305 93.1312 0.50901L91.8025 0.476628C91.7587 0.476628 91.7355 0.542687 91.7355 0.683874C91.7355 0.814699 91.7574 0.879465 91.8025 0.879465C92.7317 0.879465 93.3967 1.14111 93.7949 1.65405C94.1931 2.16569 94.3928 3.00634 94.3928 4.16174V17.9942L80.0093 0.523259L76.8326 0.519373C76.7437 0.66056 76.4499 1.11909 76.4383 1.12946C76.9679 1.24344 77.4706 1.35743 77.843 2.02969C77.9693 2.25766 77.9989 2.46361 77.9989 2.69547V17.7908C77.9989 18.0849 77.9487 18.4722 77.9474 18.4916H74.9665C74.9665 18.4916 74.6237 19.0149 74.6005 19.0589C74.723 19.0589 75.3081 19.0589 75.7514 19.5278C76.2231 20.0252 76.1715 20.8555 76.1715 21.3127V37.0532C76.1715 37.1905 76.1329 38.1321 75.7514 38.4871C75.2797 38.9262 74.7217 38.956 74.6005 38.956C74.6225 39 74.9769 39.5233 74.9769 39.5233H79.5931C79.5931 39.5233 79.9359 39 79.9578 38.956C79.8367 38.956 79.334 38.8575 78.807 38.4871C78.3572 38.171 78.3855 37.1451 78.3855 37.1451V29.306L79.5042 28.2154C79.5042 28.2154 85.5135 35.5157 87.1347 37.4767C87.6695 38.1231 88.6374 39.5881 89.4544 39.5881C89.7753 39.5881 93.2356 39.566 93.2356 39.566V39.1632C93.1582 39.1632 92.6531 39.1528 92.5976 39.1528C91.9224 39.1205 91.1981 38.829 90.7367 38.3549C89.8075 37.4016 81.0751 26.7115 81.0751 26.7115L86.4543 21.5109C87.3615 20.6392 88.4028 19.8568 89.4544 19.4423C90.4944 19.0499 90.595 19.0058 91.2587 18.8426L90.9816 18.4942H86.0135L86.0226 18.8426C86.52 18.8426 86.8641 19.0719 86.8641 19.5188C86.8641 19.8789 86.4208 20.5731 85.6798 21.3153L78.3855 28.4576L78.3817 20.9734C78.3817 20.4358 78.2824 19.1522 79.4088 18.9164C79.923 18.8543 80.6266 18.8582 80.6266 18.8582V18.4942C80.6266 18.4942 79.6614 18.4942 78.8405 18.4877C78.8379 18.4631 78.7954 18.0875 78.7954 17.7934V2.64495L94.2666 21.4384H95.1777V4.16304C95.1777 3.00763 95.3877 2.16828 95.8195 1.65535C96.2512 1.14241 96.9368 0.880759 97.9008 0.880759C97.9678 0.880759 98 0.815995 98 0.685171C98 0.543983 97.9665 0.477923 97.9008 0.477923V0.476628Z" fill="white"/>
<path d="M23.5721 38.9339C22.4432 38.4546 20.7163 36.8187 19.2111 34.855C17.2522 32.2929 15.8797 30.4937 14.7057 28.9238C17.0022 28.6065 19.3064 26.7024 19.4443 24.2996C19.5062 23.2129 19.4031 21.7583 18.2587 20.6158C17.6814 20.0381 16.3372 18.4902 12.7507 18.4902C12.7069 18.4902 12.4607 18.4928 12.261 18.4928L18.8451 3.46481L18.8747 19.5083C19.3052 19.8762 19.5861 20.1366 19.9018 20.5627C20.3245 21.1326 20.4354 21.4344 20.4354 21.4344H22.6262L22.7641 21.222L22.0089 20.8451C21.1184 20.2661 21.1558 19.9034 21.1558 19.1729V4.24976C21.1558 2.08921 21.4432 1.53353 22.554 1.06593L21.9213 0.530971L19.6003 0.51154C19.3103 0.55299 19.0887 1.13069 19.0113 1.31721L11.596 17.989L4.00279 2.22133C3.80304 1.8159 3.63164 1.49596 3.48343 1.24856C3.48215 1.24597 3.47957 1.24209 3.47828 1.2395C3.35843 1.04002 3.25146 0.885882 3.16254 0.793916C3.11615 0.739513 2.88804 0.606097 2.69602 0.546514C2.4125 0.525789 0.563174 0.51154 0.563174 0.51154L0 0.963599C0.112119 0.963599 0.60828 0.904016 0.989744 1.33276C1.19981 1.5685 1.29646 1.70969 1.29002 2.42987C1.29002 4.03604 1.281 18.7363 1.281 19.8192C1.281 20.3749 1.02583 20.8658 0.617301 21.051C0.417548 21.1495 0.219084 21.1598 0.0747465 21.1378V21.4319H3.31848V21.1378C3.24115 21.1598 2.89706 21.2466 2.55426 21.0614C2.23337 20.8762 2.09032 20.1715 2.09032 19.6508C2.09032 18.8762 2.12254 3.65911 2.12254 3.65911C2.12254 3.65911 8.99017 17.5965 9.42319 18.4915H5.70778C5.62144 18.6301 5.28637 19.1262 5.28766 19.1288C5.28766 19.1288 5.99903 19.2117 6.34441 19.476C6.8032 19.827 6.83155 20.3166 6.83155 20.5757C6.83155 20.7246 6.8264 20.9267 6.8264 21.3127V36.9054C6.8264 36.9054 6.838 37.4728 6.81609 37.702C6.80449 38.1269 6.55061 38.4002 6.40627 38.5414C6.00806 38.9442 5.37658 38.9559 5.25544 38.9559L5.58535 39.5686H10.19L10.6114 38.9559C10.4903 38.9559 9.89228 38.9663 9.46056 38.5634C9.31622 38.4209 9.12807 38.1813 9.06234 37.6256C9.05075 37.2552 9.04043 36.8731 9.04043 36.8731V29.2295C10.1268 29.4083 11.065 29.4432 11.8975 29.3474C12.319 29.2995 12.7314 29.4989 12.9685 29.8539C14.9364 32.7981 16.6014 35.0402 18.0615 36.7746C19.0358 37.93 20.0436 38.7266 20.6635 39.1735C21.0282 39.4352 21.4715 39.566 21.9251 39.566H25.1135V39.2059C25.1135 39.2059 24.3724 39.2719 23.5747 38.9339H23.5721ZM11.0418 28.5534C10.2673 28.5534 9.60232 28.5093 9.03786 28.4122V21.3787C9.03786 21.2699 9.03786 21.1715 9.04946 21.0847C9.06105 20.7026 9.10487 20.4086 9.18219 20.1469V20.1249C9.2157 20.0161 9.25952 19.9176 9.30334 19.8192C9.32524 19.7752 9.33684 19.7428 9.37035 19.6987C9.41417 19.6107 9.46958 19.5239 9.5469 19.4591C9.58041 19.4371 9.60232 19.4047 9.63583 19.3931C9.93481 19.1638 10.3884 19.0446 10.9967 19.0122C11.074 19.0019 11.163 18.9902 11.2506 19.0019C11.373 18.9915 11.5161 18.9915 11.672 19.0019C11.6823 19.0019 11.6939 18.9915 11.7158 19.0019C12.0805 19.0122 12.5342 19.0783 13.0097 19.2415C14.6374 19.7648 16.5189 21.3347 16.6298 23.5807C16.7071 25.205 15.8436 26.6234 14.8474 27.4187C14.8474 27.4187 13.4865 28.5521 11.0393 28.5521L11.0418 28.5534Z" fill="white"/>
<path d="M32.0932 20.1754C32.4437 20.0161 32.8316 19.8659 33.2479 19.7299C34.8408 19.2092 36.654 18.9527 38.4093 18.7053C40.3024 18.4385 42.26 18.1626 43.9147 17.5499L43.9688 17.5473V17.5279C45.9921 16.7882 46.9948 15.6018 47.4175 15.0124C49.6032 11.9581 48.4639 7.78724 47.1069 5.46348C46.2576 4.01016 45.2511 3.15138 44.7176 2.7045C41.72 0.195518 38.3461 0.0245397 37.6914 0.00511026C37.4273 -0.00266151 37.2378 0.00122454 37.1399 0.00122454C30.7684 0.00122454 25.5851 4.95443 25.5851 11.0423C25.5851 14.6018 27.3906 17.9514 30.4191 20.0226C30.3882 20.0394 30.3586 20.0563 30.3302 20.0731C30.2696 20.1068 30.2129 20.1418 30.155 20.1767C30.1189 20.1962 30.0867 20.2182 30.0544 20.2389C26.9009 22.2544 25.0181 25.5911 25.0181 29.1622C25.0181 35.1206 30.1988 39.9675 36.5651 39.9675C42.9314 39.9675 48.1121 35.1206 48.1121 29.1622C48.1121 27.8669 47.8698 26.6027 47.3917 25.4058C47.3711 25.345 47.3466 25.2841 47.3208 25.2206C47.1559 24.8268 46.9613 24.4357 46.7448 24.0587C46.7409 24.051 46.737 24.0419 46.7319 24.0354C46.6172 23.8528 46.5076 23.6909 46.3942 23.5393C45.7318 22.6417 44.8568 21.9008 43.8554 21.3891C44.0088 21.371 44.1931 21.3865 44.3735 21.4021L44.4366 21.4099C44.773 21.4384 45.0694 21.4513 45.2705 21.3101C45.3864 21.2272 45.4573 21.1327 45.4844 21.0239C45.5849 20.6599 45.1326 20.2285 44.7756 20.09C44.1879 19.8685 43.4817 20.1884 43.1376 20.6275C42.626 21.2803 42.8554 22.1585 42.934 22.4578C43.0294 22.8088 43.166 23.0225 43.3554 23.3165C43.5281 23.586 43.742 23.9214 44.0178 24.4991C44.1286 24.7323 44.2124 24.9201 44.2678 25.0639C44.2743 25.0768 44.2807 25.0898 44.2872 25.1066C45.755 28.6713 45.255 33.3007 43.0977 36.114C42.586 36.7824 41.2251 38.5557 38.8178 39.1373C37.9956 39.3354 37.1321 39.3717 36.2378 39.2461C34.4735 39.066 32.9283 38.487 31.6434 37.522C29.6356 36.0143 28.3031 33.5325 27.8907 30.5339C27.4718 27.4861 28.0827 24.2699 29.4101 22.5303C30.3019 21.358 31.3573 20.6055 32.0932 20.178V20.1754ZM28.5286 12.0449C28.1149 9.03332 28.7258 5.85466 30.0493 4.13581C31.5932 2.13198 33.5997 1.37683 33.6203 1.37035C33.6268 1.36776 34.2106 1.15533 34.8382 1.04523C35.2068 0.980467 35.6101 0.946788 36.038 0.946788C38.1322 0.946788 40.8063 1.7408 42.7252 3.49722C45.2473 5.80933 46.3272 9.8092 45.4754 13.6886V13.6912C45.4174 13.8596 45.3491 14.0254 45.2679 14.1964C44.0938 16.6108 41.1891 17.1496 37.8268 17.7727C36.4208 18.033 34.9671 18.3024 33.5379 18.7299H33.5198L33.5121 18.739C33.1177 18.8568 32.7659 18.9747 32.4373 19.0965L32.2826 18.9864C30.2709 17.489 28.9371 15.0241 28.5286 12.0436V12.0449Z" fill="white"/>
<path d="M70.9612 3.18513C68.7394 1.19297 65.8423 0.0323824 63.0123 0C62.9711 0 62.9298 0 62.8873 0C57.3264 0 52.8906 4.19546 51.8004 8.2873C50.9253 11.5618 52.1084 14.734 52.7824 15.6782C53.5724 16.7844 54.5492 17.2689 54.6575 17.3207L54.6729 17.3298C54.9809 17.4709 55.3018 17.559 55.316 17.5629C55.722 17.6756 56.1627 17.7248 56.5906 17.7132C57.155 17.6963 57.7079 17.5707 58.235 17.3375L58.2517 17.3349L58.2646 17.3233C59.0134 16.9101 59.7119 16.2171 59.592 15.5941C59.5302 15.2793 59.2724 15.0889 59.1461 14.9956C58.6963 14.6653 58.11 14.6537 57.7427 14.7443C57.4617 14.813 57.2594 14.9464 57.1744 15.1187C57.0197 15.4296 57.271 15.8117 57.494 16.1484C57.6641 16.4062 57.8393 16.673 57.7504 16.8052C57.6228 16.9956 57.0326 16.8997 56.6576 16.7572C54.7425 16.0228 54.0737 12.1952 54.2116 9.71212C54.2696 8.63832 54.4062 6.12416 56.2581 3.88459C57.5068 2.38593 58.9837 1.43001 60.6475 1.04401C64.4737 0.155435 67.6427 2.69292 68.5293 3.4973C71.9741 6.62543 72.6224 13.3908 69.8877 17.6898C69.5178 18.2714 69.0783 18.8167 68.5835 19.3103C68.5229 19.2818 68.4636 19.2572 68.4056 19.2351C68.2987 19.1963 66.3978 18.2248 62.2996 18.2248C59.3613 18.2248 57.1628 19.2287 56.0738 19.796C54.6227 20.6315 53.1239 21.9773 52.2334 23.3399C51.1637 24.9616 50.6302 26.8256 50.6302 28.9239C50.6302 31.0223 51.156 33.0119 52.1999 34.6919C53.2437 36.381 54.7026 37.6762 56.579 38.6037C58.4463 39.5402 60.5753 40 62.9607 40C64.301 40 65.4892 39.8912 66.5254 39.6658C67.5602 39.4404 68.6634 39.0467 69.8438 38.4871C69.9792 38.4029 70.0732 38.32 70.1158 38.2449C70.166 38.1866 70.2008 38.0195 70.2176 37.7514L70.5488 34.0572C70.5488 33.9989 70.4805 33.9575 70.3194 33.9575C70.2086 33.9575 70.1493 33.9821 70.1493 34.0326C69.5384 35.8628 68.6556 37.2255 67.4932 38.1205C66.3385 39.0156 64.8294 39.4663 62.962 39.4663C61.2145 39.4663 59.6023 38.9987 58.1087 38.0532C56.6241 37.1167 55.4436 35.8382 54.5698 34.2165C53.6961 32.5948 53.254 30.806 53.254 28.8579C53.254 26.9097 53.6535 25.0381 54.4513 23.5083C55.0789 22.2959 55.9101 21.3011 56.963 20.5408C57.1073 20.432 57.6795 19.9398 58.9399 19.4333C60.2802 18.8945 61.1849 18.787 62.3099 18.7326C63.9376 18.6535 65.4776 19.1082 66.5924 19.8556C66.9223 20.0771 67.4326 20.5408 67.4829 20.5991C68.3914 21.5097 69.0616 22.7557 69.5023 24.3269C69.5281 24.3943 69.6041 24.4267 69.7227 24.4111C69.8503 24.4021 69.9096 24.3606 69.9096 24.2946L69.5023 20.3076C69.4882 20.1742 69.4405 19.8128 69.4405 19.8128C69.4405 19.8128 69.3747 19.7675 69.2781 19.704C69.9276 19.2636 74.5619 15.9373 74.5619 10.7082C74.5619 7.93757 73.2848 5.26667 70.9638 3.18643L70.9612 3.18513Z" fill="white"/>
</svg>
